<svg width="30" height="31" viewBox="0 0 30 31" xmlns="http://www.w3.org/2000/svg">
  <path d="M15.1096466.1165662c2.5198641 0 4.8397045.5647409 6.9600647 1.6947662 2.1198167 1.1300254 3.8846999 2.6600981 5.2946498 4.5902184 1.4099498 1.9301202 2.2953809 4.095051 2.6552062 6.4947921H.169831c.3598253-2.3997411 1.239821-4.5646719 2.6399871-6.4947921 1.400166-1.9301203 3.1650493-3.460193 5.2946497-4.5902184C10.2346118.6813071 12.5696714.1165662 15.1096466.1165662Zm14.9099207 17.39989c-.3598253 2.4399633-1.2452564 4.6250051-2.6552062 6.5551253-1.4099499 1.9295767-3.1748331 3.4596495-5.2946498 4.5896749-2.1203602 1.1300253-4.4402006 1.6953098-6.9600647 1.6953098-2.5600863 0-4.9000378-.5652845-7.0198544-1.6953098-2.1198167-1.1300254-3.8798081-2.6600982-5.2799741-4.5896749C1.409652 22.1414613.5296563 19.9564195.169831 17.5164562h29.8497363Z" fill-rule="evenodd"/>
</svg>
