<svg width="29" height="59" viewBox="0 0 29 59" xmlns="http://www.w3.org/2000/svg">
  <path d="m27.4332446 30.1673738.0219984 13.5883815c-.0146934 2.7025702-.5602836 5.0575539-1.6103038 7.0724252-1.0785873 2.0690683-2.5897064 3.6779268-4.5273299 4.8323691-1.9231611 1.1458256-4.1540843 1.7179021-6.7008141 1.6883692-2.59648579-.0012809-4.84373582-.5848369-6.75223325-1.7182243-1.93139818-1.1469872-3.43959624-2.7531779-4.51880778-4.8234438-1.05224823-2.0185417-1.57842598-4.3710924-1.55031356-7.0638234l-.04462604-13.5532782 25.68243003-.0227753ZM14.6234361 1.65029985c2.5538832.01534313 4.7894642.60334715 6.7145082 1.73772695 1.9493449 1.1490559 3.4635399 2.7545309 4.5367125 4.8208811 1.0444037 2.0109569 1.5806062 4.3592735 1.5806046 7.0549421l-.0219271 14.2170982-25.65586448.0227922-.02191143-14.2136862c-.0147373-2.711304.52222623-5.0775282 1.58224734-7.1047314 1.08718939-2.079781 2.60777086-3.6909307 4.55559564-4.8387347 1.92950853-1.1370107 4.16984458-1.71166926 6.73003473-1.69628825Z" fill="#FFF" stroke="#EF7622" stroke-width="2.7" fill-rule="evenodd"/>
</svg>
