<svg width="20" height="45" viewBox="0 0 20 45" xmlns="http://www.w3.org/2000/svg">
  <path d="M4.8539324 43.4740208c1.4778575.8541192 3.2207227 1.2816412 5.2295193 1.2816412 1.9626279.023084 3.6856406-.395665 5.1690383-1.2557868 1.4833977-.8601213 2.6380748-2.0605054 3.4635696-3.6016138.8254949-1.5415701 1.2437826-3.345378 1.2553247-5.4114236l-.0170823-10.061065-19.7934095.0170824.0346265 10.0439826c-.0230843 2.0545035.378121 3.8527711 1.2036158 5.3938795.8254949 1.5411085 1.9769402 2.7391841 3.4547976 3.5933035ZM.195519 20.5291416l19.758783-.0170824.0170823-10.0264385c0-2.0549652-.4099773-3.850001-1.2294702-5.3855692-.819493-1.5355682-1.9741701-2.730412-3.463108-3.5845314C13.7894065.6614007 12.0576217.228339 10.0834517.2167969 8.1092816.2052547 6.3779585.6267742 4.8885589 1.4808936c-1.4893996.8541194-2.6496169 2.0549652-3.480652 3.6020755C.5768718 6.6296178.1668944 8.4366574.1784366 10.5031647L.195519 20.5291416Z" fill-rule="evenodd"/>
</svg>
