<svg xmlns="http://www.w3.org/2000/svg" width="6" height="6" viewBox="0 0 6 6">
  <path d="M5.85635172.41870117c0-.12931315-.04518045-.23142497-.13554137-.30633545S5.5092291 0 5.35714935 0H.4992634C.34685817 0 .2255463.03688558.13532778.11065674.04510926.1844279 0 .28597005 0 .4152832c0 .06807455.01327341.1324056.03982024.19299317.02654682.06058756.05723333.12913004.0920595.20562744l2.33343544 4.81488037c.07197139.14396159.14402416.24428304.21615829.30096436.07213413.05668131.15380885.08502197.24502414.08502197.09345297 0 .17624651-.02834066.24838065-.08502197.07213413-.05668132.14418689-.15700277.21615828-.30096436L5.72105446.81390381c.03710452-.07421875.0689302-.1416219.09547703-.20220947.02654682-.06058757.03982023-.12491862.03982023-.19299317Z"/>
</svg>
