<svg width="112" height="90" viewBox="0 0 112 90" xmlns="http://www.w3.org/2000/svg">
  <path d="M110.5 88c0 .1380712-.05596441.2630712-.14644661.3535534C110.26307119 88.4440356 110.13807119 88.5 110 88.5H2c-.1380712 0-.2630712-.0559644-.3535534-.1464466C1.5559644 88.2630712 1.5 88.1380712 1.5 88V24.9084786c0-.1015469.0307122-.1980496.0849245-.2787693.0542123-.0807198.1319246-.1456566.2259248-.1840719L57.4506796 1.707147c.1246415-.0509376.2645592-.0494514.3880906.0041225l52.36016977 22.7078808c.09139089.039635.16665589.104507.21907318.1843741Z" stroke="#EF7622" stroke-width="3" fill="#0065A2"/>
  <path d="M31.1722791 39.99791713h4.4433594c2.0247396 0 3.4944661.28808593 4.4091797.86425781.9147135.57617187 1.3720703 1.49251302 1.3720703 2.74902343 0 .85286459-.2001953 1.55273438-.6005859 2.09960938-.4003907.546875-.9326172.87565104-1.5966797.98632813v.09765624c.9049479.20182292 1.5576172.57942709 1.9580078 1.1328125.4003906.55338542.6005859 1.2890625.6005859 2.20703128 0 1.3020833-.4703776 2.3177083-1.4111328 3.046875-.9407552.7291666-2.2184245 1.09375-3.8330078 1.09375h-5.3417969V39.99791713Zm3.0273438 5.65429687h1.7578125c.8203125 0 1.414388-.12695312 1.7822265-.38085938.3678386-.25390624.5517579-.67382812.5517579-1.25976562 0-.546875-.2001954-.9391276-.600586-1.17675781-.4003906-.23763021-1.0335286-.35644531-1.899414-.35644531h-1.5917969V45.652214Zm0 2.40234375v3.72070315h1.9726562c.8333334 0 1.4485677-.1595052 1.8457031-.4785157.3971355-.3190104.5957032-.8072916.5957032-1.4648437 0-1.18489583-.8463542-1.77734375-2.5390625-1.77734375h-1.875Zm19.1503906 6.22070315-1.0351563-3.3984375h-5.2050781l-1.0351562 3.3984375h-3.2617188l5.0390625-14.33593752h3.7011719l5.0585937 14.33593752h-3.2617187Zm-1.7578125-5.93750002c-.9570312-3.07942709-1.4957682-4.82096355-1.6162109-5.22460938-.1204427-.40364583-.2067058-.72265625-.2587891-.95703125-.2148438.83333333-.8300781 2.89388021-1.8457031 6.18164063h3.7207031Zm12.8808594-6.02539063c-1.1393229 0-2.0214844.4280599-2.6464844 1.28417969-.625.85611979-.9375 2.04915364-.9375 3.57910156 0 3.1835937 1.1946615 4.7753906 3.5839844 4.7753906 1.0026041 0 2.2167968-.250651 3.6425781-.7519531v2.5390625c-1.171875.4882813-2.4804688.7324219-3.9257813.7324219-2.0768229 0-3.6653645-.6298828-4.765625-1.8896485-1.1002604-1.2597656-1.6503906-3.06803382-1.6503906-5.42480465 0-1.484375.2701823-2.78483073.8105469-3.90136719.5403646-1.11653646 1.3167318-1.97265625 2.3291016-2.56835937 1.0123698-.59570313 2.1988932-.89355469 3.5595703-.89355469 1.3867187 0 2.7799479.33528646 4.1796875 1.00585938l-.9765625 2.4609375c-.5338542-.25390626-1.0709636-.47526042-1.6113282-.6640625-.5403645-.18880209-1.0709635-.28320313-1.5917968-.28320313ZM82.6371229 54.2752609h-3.4375l-3.7402344-6.01562502-1.2792969.91796874v5.09765628h-3.0273437V39.99791713h3.0273437v6.53320312l1.1914063-1.6796875 3.8671875-4.85351562h3.359375l-4.9804688 6.31835937zm-55.70312502 21h-3.02734376V63.5174484H20.029701v-2.5195313h10.78125v2.5195313h-3.87695312zM45.967201 68.1170578c0 2.3632812-.5859375 4.1796874-1.7578125 5.4492187-1.171875 1.2695313-2.8515625 1.9042969-5.0390625 1.9042969s-3.8671875-.6347656-5.0390625-1.9042969c-1.171875-1.2695313-1.7578125-3.0924479-1.7578125-5.46875s.5875651-4.1910807 1.7626953-5.4443359c1.1751302-1.2532552 2.8597005-1.8798828 5.0537109-1.8798828 2.1940105 0 3.8720704.6315104 5.0341797 1.8945312 1.1621094 1.2630208 1.7431641 3.0794271 1.7431641 5.4492188Zm-10.4199219 0c0 1.595052.3027344 2.7962239.9082031 3.6035156.6054688.8072916 1.5104167 1.2109375 2.7148438 1.2109375 2.4153646 0 3.6230469-1.6048177 3.6230469-4.8144531 0-3.2161459-1.2011719-4.8242188-3.6035157-4.8242188-1.204427 0-2.1126302.4052734-2.7246093 1.2158203-.6119792.8105469-.9179688 2.0133464-.9179688 3.6083985Zm24.0820313 7.1582031h-3.0273438V63.5174484h-3.8769531v-2.5195313h10.78125v2.5195313h-3.8769531zm19.0332031-7.1582031c0 2.3632812-.5859375 4.1796874-1.7578125 5.4492187-1.171875 1.2695313-2.8515625 1.9042969-5.0390625 1.9042969s-3.8671875-.6347656-5.0390625-1.9042969c-1.171875-1.2695313-1.7578125-3.0924479-1.7578125-5.46875s.5875651-4.1910807 1.7626953-5.4443359c1.1751302-1.2532552 2.8597005-1.8798828 5.053711-1.8798828 2.1940104 0 3.8720703.6315104 5.0341796 1.8945312 1.1621094 1.2630208 1.7431641 3.0794271 1.7431641 5.4492188Zm-10.4199219 0c0 1.595052.3027344 2.7962239.9082032 3.6035156.6054687.8072916 1.5104166 1.2109375 2.7148437 1.2109375 2.4153646 0 3.6230469-1.6048177 3.6230469-4.8144531 0-3.2161459-1.2011719-4.8242188-3.6035156-4.8242188-1.2044271 0-2.1126303.4052734-2.7246094 1.2158203-.6119792.8105469-.9179688 2.0133464-.9179688 3.6083985Zm16.40625-.4003907h.9960938c.9309896 0 1.6276041-.1839192 2.0898437-.5517578.4622396-.3678385.6933594-.9033203.6933594-1.6064453 0-.7096354-.1936849-1.233724-.5810547-1.5722656-.3873698-.3385417-.9944661-.5078125-1.821289-.5078125h-1.3769532v4.2382812Zm6.8359375-2.265625c0 1.5364584-.4801432 2.7115886-1.4404297 3.5253907-.9602864.813802-2.3258463 1.2207031-4.0966796 1.2207031h-1.2988282v5.078125h-3.0273437V60.9979171h4.5605469c1.7317708 0 3.0485026.3727214 3.9501953 1.1181641.9016927.7454427 1.352539 1.8570963 1.352539 3.3349609Z" fill="#FFF"/>
  <path fill="none" stroke="#FFF" stroke-width="1.5" stroke-linecap="round" d="m30 24.5729523 27.4024352-10 25.5975648 10"/>
</svg>
