<svg width="63" height="65" viewBox="0 0 63 65" xmlns="http://www.w3.org/2000/svg" xmlns:xlink="http://www.w3.org/1999/xlink">
  <defs>
    <path id="pillhand-a" d="M0 0h62.9785912v20.7556319H0z"/>
    <path id="pillhand-c" d="M0 0h17.150008v36.3359H0z"/>
  </defs>
  <g fill-rule="evenodd">
    <path d="M51.7989018 28.2768c-.244 0-.489-.093-.675-.28l-.203-.203c-.373-.373-.373-.977 0-1.35.372-.373.977-.373 1.349 0l.204.204c.373.372.373.977 0 1.349-.186.187-.431.28-.675.28m2.9103 2.9104c-.244 0-.489-.093-.675-.28l-.204-.203c-.372-.373-.372-.978.001-1.35.373-.373.977-.373 1.35 0l.203.204c.373.372.373.977 0 1.35-.187.186-.431.279-.675.279m-3.1138 0c-.244 0-.488-.093-.675-.279-.373-.373-.373-.978 0-1.35l.203-.204c.373-.373.977-.373 1.35 0 .373.372.373.977.001 1.35l-.204.203c-.186.187-.431.28-.675.28m2.9103-2.9104c-.244 0-.489-.093-.675-.28-.373-.372-.373-.977 0-1.349l.204-.204c.372-.373.977-.373 1.349 0 .373.373.373.977 0 1.35l-.203.203c-.186.187-.431.28-.675.28m3.0019-12.5397c-.244 0-.489-.093-.675-.28-.373-.372-.373-.977 0-1.349l.651-.652c.373-.372.977-.373 1.35 0 .373.373.373.978 0 1.35l-.651.651c-.186.187-.431.28-.675.28m3.5124-3.5125c-.244 0-.489-.093-.675-.28-.373-.372-.373-.977 0-1.349l.651-.651c.373-.373.977-.373 1.35 0 .373.372.373.977 0 1.349l-.651.651c-.186.187-.431.28-.675.28m.651 3.5125c-.244 0-.489-.093-.675-.28l-.651-.651c-.373-.373-.373-.977 0-1.35.373-.373.977-.372 1.35 0l.651.652c.373.372.373.977 0 1.35-.186.186-.431.279-.675.279m-3.5124-3.5125c-.244 0-.489-.093-.675-.28l-.651-.651c-.373-.372-.373-.977 0-1.349.373-.373.977-.373 1.35 0l.651.651c.373.372.373.977 0 1.349-.186.187-.431.28-.675.28M8.56740175 8.0641c-.244 0-.488-.093-.675-.279l-.203-.204c-.373-.373-.373-.977-.001-1.35.373-.373.977-.373 1.35 0l.204.203c.373.373.373.977 0 1.35-.186.187-.431.28-.675.28m2.91030005 2.9104c-.244 0-.489-.093-.675-.28l-.204-.203c-.372-.373-.372-.978.001-1.35.373-.373.977-.373 1.35 0l.203.204c.373.372.373.977 0 1.35-.187.186-.431.279-.675.279m-3.11390005 0c-.244 0-.489-.093-.675-.28-.373-.372-.373-.977 0-1.349l.204-.204c.372-.373.977-.373 1.35 0 .372.373.372.977 0 1.35l-.204.203c-.186.187-.431.28-.675.28m2.91040005-2.9104c-.244 0-.489-.093-.675-.28-.373-.372-.373-.977 0-1.349l.204-.204c.372-.373.977-.373 1.349 0 .373.373.373.977 0 1.35l-.203.203c-.186.187-.431.28-.675.28m-9.96680005 24.003c-.244 0-.489-.093-.675-.28-.373-.372-.373-.977 0-1.349l.651-.651c.373-.373.977-.373 1.35 0 .373.372.373.977 0 1.349l-.651.651c-.186.187-.431.28-.675.28m3.5124-3.5124c-.244 0-.489-.093-.675-.28-.373-.372-.373-.977 0-1.349l.651-.652c.373-.372.977-.372 1.35 0 .373.373.373.978 0 1.35l-.651.651c-.186.187-.431.28-.675.28m.651 3.5124c-.244 0-.489-.093-.675-.28l-.651-.651c-.373-.372-.373-.977 0-1.349.373-.373.977-.373 1.35 0l.651.651c.373.372.373.977 0 1.349-.186.187-.431.28-.675.28m-3.5124-3.5124c-.244 0-.489-.093-.675-.28l-.651-.651c-.373-.372-.373-.977 0-1.35.373-.372.977-.372 1.35 0l.651.652c.373.372.373.977 0 1.349-.186.187-.431.28-.675.28"/>
    <g transform="translate(.021311 43.575368)">
      <mask id="pillhand-b" fill="#fff">
        <use xlink:href="#pillhand-a"/>
      </mask>
      <path d="M25.9462912 20.7556319c-.208 0-.409-.006-.604-.017-4.36-.249-7.754-1.204-11.351-3.192-4.55199999-2.516-9.21699999-4.128-13.136-4.539-.525-.055-.905-.525-.85-1.049.055-.524.524-.904 1.04900001-.85 4.168.437 9.08999999 2.13 13.85999999 4.767 3.375 1.865 6.428 2.722 10.537 2.957 3.596.207 10.238-1.876 19.211-6.022 4.446-2.054 8.987-4.20700004 12.083-6.03200004 3.628-2.138 4.264-3.244 4.32-3.713.011-.09.04-.328-.44-.71-1.101-.877-3.805-.299-5.879.341-2.959.912-6.558 2.5-10.039 4.037-1.339.591-2.724 1.202-4.051 1.766-.485.205-1.046-.021-1.252-.506-.206-.486.021-1.046.506-1.252 1.315-.558 2.693-1.166 4.026-1.755 3.531-1.558 7.182-3.17 10.247-4.115 3.76-1.159 6.185-1.162 7.631-.01 1.086.865 1.223 1.8 1.147 2.432-.346 2.867-5.677 5.788-17.499 11.25000004-8.927 4.125-15.486 6.212-19.516 6.212" mask="url(#pillhand-b)"/>
    </g>
    <path d="M35.5240018 57.3798c-1.526 0-3.507-.711-6.146-1.658-.728-.261-1.423-.519-2.095-.769-3.178-1.182-5.923-2.203-9.81-2.62-.524-.056-.903-.526-.847-1.051.056-.524.527-.903 1.051-.847 4.125.443 6.973 1.502 10.272 2.728.666.248 1.356.505 2.074.762 2.688.965 5.227 1.876 6.175 1.426.135-.064.308-.187.443-.568.229-.648-.631-1.906-2.192-3.205-1.747-1.453-4.266-2.92-6.912-4.027-1.694-.708-3.135-1.651-4.529-2.562-1.819-1.19-3.538-2.314-5.468-2.616-2.8-.438-5.381.114-7.538.712-3.73300005 1.035-6.76900005 1.56-9.02500005 1.56h-.024c-.527-.001-.954-.429-.95300175-.956.00100175-.527.42800175-.953.95400175-.953h.024c2.083 0 4.947-.502 8.514-1.491 4.21700005-1.169 6.67400005-1.019 8.34300005-.758 2.336.365 4.221 1.599 6.218 2.904 1.322.864 2.688 1.758 4.221 2.399 2.813 1.176 5.509 2.751 7.396 4.321 1.638 1.363 3.449 3.391 2.771 5.309-.277.781-.756 1.338-1.425 1.656-.443.21-.938.304-1.492.304m2.345-8.087c-.29 0-.576-.131-.763-.38-.317-.421-.233-1.019.187-1.337.265-.199 6.558-4.896 14.141-6.41.517-.104 1.02.232 1.123.749.103.517-.232 1.02-.749 1.123-7.145 1.427-13.304 6.017-13.366 6.063-.172.129-.373.192-.573.192m-3.2587-2.6635c-.277 0-.552-.12-.741-.352-.333-.409-.271-1.01.138-1.343.203-.165 5.03-4.061 10.649-5.748.505-.151 1.038.135 1.189.64.152.505-.135 1.037-.639 1.188-5.261 1.58-9.947 5.363-9.994 5.401-.177.144-.39.214-.602.214m-3.5886-2.2335c-.266 0-.531-.111-.719-.327-.347-.397-.306-.999.09-1.346.131-.114 3.244-2.815 7.416-4.612.484-.209 1.046.015 1.254.499.209.484-.015 1.046-.499 1.254-3.886 1.675-6.885 4.271-6.915 4.297-.181.157-.404.235-.627.235"/>
    <g transform="translate(21.956794)">
      <mask id="pillhand-d" fill="#fff">
        <use xlink:href="#pillhand-c"/>
      </mask>
      <path d="M8.70600798 36.3359c-.041 0-.081 0-.122-.001-1.708 0-3.221-.375-4.498-1.113h-.001c-1.286-.744-2.302-1.8-3.019-3.139-.708-1.322-1.058-2.872-1.039-4.608L0 19.6889c-.00099202-.237.09200798-.464.25900798-.632.167-.167.394-.262.631-.262l15.35500002-.013h.001c.492 0 .89.398.891.889l.013 7.805c-.009 1.749-.372 3.301-1.079 4.621-.717 1.338-1.735 2.396-3.025 3.144-1.254.727-2.713 1.095-4.34000002 1.095Zm-3.729-2.657c1.004.58 2.219.874 3.612.874.003 0 .007 0 .01.001 1.351.017 2.54800002-.272 3.55300002-.854 1.014-.588 1.782-1.388 2.348-2.445.568-1.06.861-2.333.869-3.782l-.012-6.909-13.57200002.012.023 6.899v.013c-.016 1.435.263 2.698.829 3.754.565 1.056 1.331 1.853 2.34 2.437Zm-4.059-16.138c-.492 0-.891-.398-.891-.89l-.01416645-7.778c-.00883355-1.743.34716645-3.301 1.06016645-4.628.722-1.344 1.745-2.402 3.042-3.146 1.288-.739 2.795-1.105 4.479-1.09907258C10.274008.0099 11.777008.3889 13.062008 1.1259c1.298.744 2.317 1.799 3.03 3.134.702 1.316 1.058 2.863 1.058 4.598l-.013 7.78c-.001.491-.399.889-.89.889l-15.32900002.014Zm7.611-15.759c-1.343 0-2.529.29-3.527.863-1.018.584-1.789 1.383-2.359 2.443-.571 1.062-.856 2.333-.848 3.778l.012 6.892 13.55000002-.012.012-6.89c0-1.437-.286-2.701-.849-3.757-.561-1.05-1.328-1.844-2.344-2.427-1.015-.582-2.22400002-.882-3.59300002-.89h-.054Z" mask="url(#pillhand-d)"/>
    </g>
  </g>
</svg>
