<svg width="34" height="34" viewBox="0 0 34 34" xmlns="http://www.w3.org/2000/svg">
  <path d="m.2892105 12.216099 2.28243 2.333767 2.2824301-2.343684 15.9802387 16.3529 2.28243 2.317239 2.0919586-2.183361 4.9942281 5.031153h3.0862845v-2.175098l-5.3945412-5.112141 1.8805028-2.338726-2.28243-2.337073-4.3760028 4.480768-4.5648601-4.675799 2.0919586-2.142042-2.2824301-2.337073-2.0935727 2.142042-9.1297202-9.349945 2.0919585-2.142042 9.1313344 9.349945 6.8472902 7.011219 2.2840442-2.337073L11.5125034 5.399911l2.28243-2.337073-2.28243-2.338725C7.168784 5.173477 9.7692046 2.509147 6.9476433 5.399911L4.6652132 3.062838 2.381169 5.399911l2.2840442 2.337073C2.0357376 10.429412 3.054276 9.384836.2892105 12.216099"/>
</svg>
