<svg xmlns="http://www.w3.org/2000/svg" xmlns:xlink="http://www.w3.org/1999/xlink" width="360.5" height="395.456385" viewBox="0 0 360.5 395.456385">
  <title>Chart/Trials- Mobile</title>
  <defs>
    <path id="a" d="M0 10.808h2.156V6.874h3.976v3.934h2.156v-9.8H6.132v3.878H2.156V1.008H0z"/>
    <path id="b" d="M12.544 10.948c1.036 0 1.75-.378 2.268-.952v.812h2.058V6.454c0-1.008-.252-1.834-.812-2.394-.532-.532-1.372-.84-2.534-.84-1.274 0-2.086.238-2.912.602l.532 1.624c.686-.252 1.26-.406 2.072-.406 1.064 0 1.61.49 1.61 1.372v.126c-.532-.182-1.078-.308-1.834-.308-1.778 0-3.024.756-3.024 2.394v.028c0 1.484 1.162 2.296 2.576 2.296Zm.644-1.47c-.686 0-1.162-.336-1.162-.91V8.54c0-.672.56-1.036 1.47-1.036.518 0 .994.112 1.358.28v.378c0 .77-.672 1.316-1.666 1.316Zm-.28-7h1.568L12.922 0l-1.834.798 1.82 1.68Z"/>
    <path id="c" d="M18.746 2.478h2.24V.588h-2.24v1.89Zm-.224 10.612c1.568 0 2.408-.756 2.408-2.408V3.304h-2.128v7.21c0 .63-.308.868-.756.868-.154 0-.28-.014-.448-.042v1.666c.294.056.532.084.924.084Z"/>
    <path id="d" d="M26.488 10.976c1.358 0 2.366-.532 3.066-1.4l-1.218-1.078c-.588.546-1.106.77-1.82.77-.952 0-1.624-.504-1.834-1.47h5.222c.014-.196.028-.392.028-.56 0-2.128-1.148-4.074-3.654-4.074-2.184 0-3.71 1.764-3.71 3.906v.028c0 2.296 1.666 3.878 3.92 3.878Zm-1.834-4.508c.168-.966.742-1.596 1.624-1.596.896 0 1.456.644 1.582 1.596h-3.206Z"/>
    <path id="e" d="M31.514 10.808h2.128V8.526l.756-.798 1.918 3.08h2.464l-2.954-4.55 2.856-2.954h-2.548l-2.492 2.73V.588h-2.128z"/>
    <path id="f" d="M47.558 10.976c1.358 0 2.366-.532 3.066-1.4l-1.218-1.078c-.588.546-1.106.77-1.82.77-.952 0-1.624-.504-1.834-1.47h5.222c.014-.196.028-.392.028-.56 0-2.128-1.148-4.074-3.654-4.074-2.184 0-3.71 1.764-3.71 3.906v.028c0 2.296 1.666 3.878 3.92 3.878Zm-1.834-4.508c.168-.966.742-1.596 1.624-1.596.896 0 1.456.644 1.582 1.596h-3.206Z"/>
    <path id="g" d="M55.118 10.934c.714 0 1.232-.168 1.68-.434V8.792c-.308.168-.658.266-1.05.266-.476 0-.686-.238-.686-.728V5.124h1.764v-1.82h-1.764V1.386h-2.128v1.918h-.896v1.82h.896V8.68c0 1.736.882 2.254 2.184 2.254Z"/>
    <path id="h" d="M64.722 10.948c1.036 0 1.75-.378 2.268-.952v.812h2.058V6.454c0-1.008-.252-1.834-.812-2.394-.532-.532-1.372-.84-2.534-.84-1.274 0-2.086.238-2.912.602l.532 1.624c.686-.252 1.26-.406 2.072-.406 1.064 0 1.61.49 1.61 1.372v.126c-.532-.182-1.078-.308-1.834-.308-1.778 0-3.024.756-3.024 2.394v.028c0 1.484 1.162 2.296 2.576 2.296Zm.644-1.47c-.686 0-1.162-.336-1.162-.91V8.54c0-.672.56-1.036 1.47-1.036.518 0 .994.112 1.358.28v.378c0 .77-.672 1.316-1.666 1.316Z"/>
    <path id="i" d="M70.98 10.808h2.128V.588H70.98z"/>
    <path id="j" d="m19.698 28.782.938-1.414c-1.89-1.316-2.702-2.604-2.702-4.578 0-1.974.812-3.262 2.702-4.578l-.938-1.414c-2.576 1.4-3.878 3.304-3.878 5.992s1.302 4.592 3.878 5.992Z"/>
    <path id="k" d="M22.4 26.808h2.128v-6.23l4.746 6.23h1.834v-9.8H28.98v6.034l-4.592-6.034H22.4z"/>
    <path id="l" d="M33.306 21.026h6.916v-1.932h-6.916v1.932Zm0 3.64h6.916v-1.932h-6.916v1.932Z"/>
    <path id="m" d="M41.93 26.808h7.252v-1.862h-4.27l1.596-1.232c1.736-1.344 2.576-2.156 2.576-3.794v-.028c0-1.834-1.344-3.024-3.374-3.024-1.75 0-2.688.714-3.654 2.03l1.512 1.218c.728-.896 1.246-1.316 2.002-1.316.77 0 1.316.448 1.316 1.274 0 .812-.476 1.344-1.694 2.352L41.93 25.1v1.708Z"/>
    <path id="n" d="M54.712 26.976c2.128 0 3.738-1.386 3.738-3.388v-.028c0-2.044-1.498-3.122-3.444-3.122-.896 0-1.512.28-2.03.63.07-.854.504-2.268 1.974-2.268.84 0 1.358.294 2.002.784l1.134-1.666c-.868-.686-1.736-1.078-3.066-1.078-2.926 0-4.298 2.324-4.298 5.348v.028c0 1.946.448 2.996 1.162 3.71.686.686 1.554 1.05 2.828 1.05Zm-.084-1.848c-1.064 0-1.708-.63-1.708-1.456v-.028c0-.826.616-1.414 1.68-1.414s1.708.602 1.708 1.428v.028c0 .84-.616 1.442-1.68 1.442Z"/>
    <path id="o" d="M63.588 26.976c2.184 0 3.528-1.358 3.528-3.206v-.028c0-1.82-1.302-2.52-2.632-2.744l2.478-2.366v-1.624H60.34v1.848h3.85l-2.338 2.352.336 1.372h.896c1.204 0 1.918.448 1.918 1.246v.028c0 .728-.574 1.19-1.386 1.19-.994 0-1.694-.42-2.366-1.176l-1.484 1.414c.84.994 2.058 1.694 3.822 1.694Z"/>
    <path id="p" d="M69.454 28.782c2.576-1.4 3.878-3.304 3.878-5.992s-1.302-4.592-3.878-5.992l-.938 1.414c1.89 1.316 2.702 2.604 2.702 4.578 0 1.974-.812 3.262-2.702 4.578l.938 1.414Z"/>
    <path id="q" d="M2.982 9.968h2.156V2.156H8.12V.168H0v1.988h2.982z"/>
    <path id="r" d="M14.532 10.136c3.024 0 5.222-2.282 5.222-5.068V5.04c0-2.786-2.17-5.04-5.194-5.04S9.338 2.282 9.338 5.068v.028c0 2.786 2.17 5.04 5.194 5.04Zm.028-1.988c-1.736 0-2.968-1.4-2.968-3.08V5.04c0-1.68 1.204-3.052 2.94-3.052s2.968 1.4 2.968 3.08v.028c0 1.68-1.204 3.052-2.94 3.052Z"/>
    <path id="s" d="M25.76 10.122c2.632 0 4.298-1.456 4.298-4.424V.168h-2.156v5.614c0 1.554-.798 2.352-2.114 2.352-1.316 0-2.114-.826-2.114-2.422V.168h-2.156v5.6c0 2.884 1.61 4.354 4.242 4.354Z"/>
    <path id="t" d="M32.256 9.968h2.156V6.832h1.694l2.1 3.136h2.52l-2.394-3.5c1.246-.462 2.1-1.456 2.1-3.038v-.028c0-.924-.294-1.694-.84-2.24-.644-.644-1.61-.994-2.856-.994h-4.48v9.8Zm2.156-5.04V2.114h2.142c1.05 0 1.694.476 1.694 1.4v.028c0 .826-.602 1.386-1.652 1.386h-2.184Z"/>
    <path id="u" d="M42.378 9.968h2.114V3.612l2.73 4.144h.056l2.758-4.186v6.398h2.142v-9.8h-2.324l-2.576 4.144L44.702.168h-2.324z"/>
    <path id="v" d="M53.69 9.968h2.198l.896-2.198h4.144l.896 2.198h2.254l-4.2-9.87H57.89l-4.2 9.87Zm3.864-4.102 1.302-3.178 1.302 3.178h-2.604Z"/>
    <path id="w" d="M65.59 9.968h7.042v-1.96h-4.886V.168H65.59z"/>
    <path id="x" d="M74.354 9.968h2.156v-9.8h-2.156z"/>
    <path id="y" d="M78.96 9.968h2.128v-6.23l4.746 6.23h1.834v-9.8H85.54v6.034L80.948.168H78.96z"/>
    <path id="z" d="M90.02 9.968h7.462V8.05h-5.32V5.992h4.62V4.074h-4.62V2.086h5.25V.168H90.02z"/>
    <path id="A" d="M98.924 6.65h4.312V4.606h-4.312z"/>
    <path id="B" d="M74.9 25.968h2.114v-6.356l2.73 4.144h.056l2.758-4.186v6.398H84.7v-9.8h-2.324L79.8 20.312l-2.576-4.144H74.9z"/>
    <path id="C" d="M87.052 25.968h2.114v-6.356l2.73 4.144h.056l2.758-4.186v6.398h2.142v-9.8h-2.324l-2.576 4.144-2.576-4.144h-2.324z"/>
    <path id="D" d="M100.52 25.968h2.128v-9.87h-1.47l-2.814.84.448 1.764 1.708-.42z"/>
    <path id="E" d="m47.978 43.942.938-1.414c-1.89-1.316-2.702-2.604-2.702-4.578 0-1.974.812-3.262 2.702-4.578l-.938-1.414c-2.576 1.4-3.878 3.304-3.878 5.992s1.302 4.592 3.878 5.992Z"/>
    <path id="F" d="M50.68 41.968h2.128v-6.23l4.746 6.23h1.834v-9.8H57.26v6.034l-4.592-6.034H50.68z"/>
    <path id="G" d="M61.586 36.186h6.916v-1.932h-6.916v1.932Zm0 3.64h6.916v-1.932h-6.916v1.932Z"/>
    <path id="H" d="M73.878 42.136c2.184 0 3.528-1.358 3.528-3.206v-.028c0-1.82-1.302-2.52-2.632-2.744l2.478-2.366v-1.624H70.63v1.848h3.85l-2.338 2.352.336 1.372h.896c1.204 0 1.918.448 1.918 1.246v.028c0 .728-.574 1.19-1.386 1.19-.994 0-1.694-.42-2.366-1.176l-1.484 1.414c.84.994 2.058 1.694 3.822 1.694Z"/>
    <path id="I" d="M82.964 42.136c2.128 0 3.738-1.386 3.738-3.388v-.028c0-2.044-1.498-3.122-3.444-3.122-.896 0-1.512.28-2.03.63.07-.854.504-2.268 1.974-2.268.84 0 1.358.294 2.002.784l1.134-1.666C85.47 32.392 84.602 32 83.272 32c-2.926 0-4.298 2.324-4.298 5.348v.028c0 1.946.448 2.996 1.162 3.71.686.686 1.554 1.05 2.828 1.05Zm-.084-1.848c-1.064 0-1.708-.63-1.708-1.456v-.028c0-.826.616-1.414 1.68-1.414s1.708.602 1.708 1.428v.028c0 .84-.616 1.442-1.68 1.442Z"/>
    <path id="J" d="M92.582 42.136c2.618 0 4.368-2.226 4.368-5.068v-.028c0-2.842-1.75-5.04-4.34-5.04-2.604 0-4.368 2.226-4.368 5.068v.028c0 2.842 1.722 5.04 4.34 5.04Zm.028-1.946c-1.302 0-2.156-1.33-2.156-3.122v-.028c0-1.792.84-3.094 2.128-3.094 1.288 0 2.156 1.344 2.156 3.122v.028c0 1.778-.826 3.094-2.128 3.094Z"/>
    <path id="K" d="M99.232 43.942c2.576-1.4 3.878-3.304 3.878-5.992s-1.302-4.592-3.878-5.992l-.938 1.414c1.89 1.316 2.702 2.604 2.702 4.578 0 1.974-.812 3.262-2.702 4.578l.938 1.414Z"/>
    <path id="L" d="M2.982 10.22h2.156V2.408H8.12V.42H0v1.988h2.982z"/>
    <path id="M" d="M13.104 10.388c1.358 0 2.366-.532 3.066-1.4L14.952 7.91c-.588.546-1.106.77-1.82.77-.952 0-1.624-.504-1.834-1.47h5.222c.014-.196.028-.392.028-.56 0-2.128-1.148-4.074-3.654-4.074-2.184 0-3.71 1.764-3.71 3.906v.028c0 2.296 1.666 3.878 3.92 3.878ZM11.27 5.88c.168-.966.742-1.596 1.624-1.596.896 0 1.456.644 1.582 1.596H11.27Z"/>
    <path id="N" d="M18.13 10.22h2.128V7.448c0-1.792.868-2.646 2.282-2.646h.112V2.576c-1.26-.056-1.96.616-2.394 1.652V2.716H18.13v7.504Z"/>
    <path id="O" d="M23.982 12.46h2.128V9.24c.504.602 1.204 1.12 2.338 1.12 1.778 0 3.416-1.372 3.416-3.878v-.028c0-2.506-1.666-3.878-3.416-3.878-1.106 0-1.82.518-2.338 1.218V2.716h-2.128v9.744Zm3.92-3.906c-.994 0-1.82-.826-1.82-2.072v-.028c0-1.246.826-2.072 1.82-2.072.994 0 1.834.826 1.834 2.072v.028c0 1.26-.84 2.072-1.834 2.072Z"/>
    <path id="P" d="M37.114 10.388c2.338 0 4.074-1.75 4.074-3.906v-.028c0-2.156-1.722-3.878-4.046-3.878-2.338 0-4.074 1.75-4.074 3.906v.028c0 2.156 1.722 3.878 4.046 3.878Zm.028-1.834c-1.176 0-1.974-.966-1.974-2.072v-.028c0-1.106.728-2.044 1.946-2.044 1.176 0 1.974.966 1.974 2.072v.028c0 1.106-.728 2.044-1.946 2.044Z"/>
    <path id="Q" d="M45.36 10.36c1.624 0 2.87-.756 2.87-2.422V7.91c0-1.372-1.218-1.876-2.268-2.226-.812-.28-1.526-.476-1.526-.896V4.76c0-.294.266-.518.784-.518.546 0 1.288.266 2.03.7l.812-1.47c-.812-.546-1.848-.868-2.8-.868-1.512 0-2.744.854-2.744 2.38v.028c0 1.456 1.19 1.946 2.24 2.254.826.252 1.554.406 1.554.868v.028c0 .336-.28.56-.896.56-.7 0-1.554-.308-2.366-.896l-.91 1.4c.994.784 2.17 1.134 3.22 1.134Z"/>
    <path id="R" d="M57.512 10.388c1.358 0 2.366-.532 3.066-1.4L59.36 7.91c-.588.546-1.106.77-1.82.77-.952 0-1.624-.504-1.834-1.47h5.222c.014-.196.028-.392.028-.56 0-2.128-1.148-4.074-3.654-4.074-2.184 0-3.71 1.764-3.71 3.906v.028c0 2.296 1.666 3.878 3.92 3.878ZM55.678 5.88c.168-.966.742-1.596 1.624-1.596.896 0 1.456.644 1.582 1.596h-3.206Z"/>
    <path id="S" d="M65.072 10.346c.714 0 1.232-.168 1.68-.434V8.204c-.308.168-.658.266-1.05.266-.476 0-.686-.238-.686-.728V4.536h1.764v-1.82h-1.764V.798h-2.128v1.918h-.896v1.82h.896v3.556c0 1.736.882 2.254 2.184 2.254Z"/>
    <path id="T" d="M74.676 10.36c1.036 0 1.75-.378 2.268-.952v.812h2.058V5.866c0-1.008-.252-1.834-.812-2.394-.532-.532-1.372-.84-2.534-.84-1.274 0-2.086.238-2.912.602l.532 1.624c.686-.252 1.26-.406 2.072-.406 1.064 0 1.61.49 1.61 1.372v.126c-.532-.182-1.078-.308-1.834-.308-1.778 0-3.024.756-3.024 2.394v.028c0 1.484 1.162 2.296 2.576 2.296Zm.644-1.47c-.686 0-1.162-.336-1.162-.91v-.028c0-.672.56-1.036 1.47-1.036.518 0 .994.112 1.358.28v.378c0 .77-.672 1.316-1.666 1.316Z"/>
    <path id="U" d="M80.934 10.22h2.128V0h-2.128z"/>
    <path id="V" d="m32.788 28.194.938-1.414c-1.89-1.316-2.702-2.604-2.702-4.578 0-1.974.812-3.262 2.702-4.578l-.938-1.414c-2.576 1.4-3.878 3.304-3.878 5.992s1.302 4.592 3.878 5.992Z"/>
    <path id="W" d="M35.49 26.22h2.128v-6.23l4.746 6.23h1.834v-9.8H42.07v6.034l-4.592-6.034H35.49z"/>
    <path id="X" d="M46.396 20.438h6.916v-1.932h-6.916v1.932Zm0 3.64h6.916v-1.932h-6.916v1.932Z"/>
    <path id="Y" d="M56.826 26.22h2.128v-9.87h-1.47l-2.814.84.448 1.764 1.708-.42z"/>
    <path id="Z" d="M64.512 26.388c2.254 0 3.724-1.316 3.724-3.388v-.028c0-2.212-1.526-3.136-3.43-3.136-.546 0-.896.07-1.288.168l.112-1.694h4.172v-1.89h-6.02l-.28 4.83 1.246.826c.462-.196 1.022-.364 1.638-.364 1.022 0 1.736.49 1.736 1.33v.028c0 .868-.63 1.358-1.638 1.358-.868 0-1.596-.392-2.338-1.064l-1.302 1.554c.952.91 2.1 1.47 3.668 1.47Z"/>
    <path id="aa" d="M73.332 26.388c2.254 0 3.724-1.316 3.724-3.388v-.028c0-2.212-1.526-3.136-3.43-3.136-.546 0-.896.07-1.288.168l.112-1.694h4.172v-1.89h-6.02l-.28 4.83 1.246.826c.462-.196 1.022-.364 1.638-.364 1.022 0 1.736.49 1.736 1.33v.028c0 .868-.63 1.358-1.638 1.358-.868 0-1.596-.392-2.338-1.064l-1.302 1.554c.952.91 2.1 1.47 3.668 1.47Z"/>
    <path id="ab" d="M79.408 28.194c2.576-1.4 3.878-3.304 3.878-5.992s-1.302-4.592-3.878-5.992l-.938 1.414c1.89 1.316 2.702 2.604 2.702 4.578 0 1.974-.812 3.262-2.702 4.578l.938 1.414Z"/>
    <path id="ac" d="M0 14.2094727h2.114V7.85347266l2.73 4.14400004H4.9l2.758-4.18600004v6.39800004H9.8V4.40947266H7.476l-2.576 4.144-2.576-4.144H0z"/>
    <path id="ad" d="M11.97 5.87947266h2.24v-1.89h-2.24v1.89Zm.056 8.33000004h2.128V6.70547266h-2.128v7.50400004Z"/>
    <path id="ae" d="M16.156 14.2094727h2.128v-4.186c0-1.00800004.518-1.52600004 1.33-1.52600004s1.288.518 1.288 1.52600004v4.186h2.128V9.35147266c0-1.722-.938-2.786-2.548-2.786-1.078 0-1.708.574-2.198 1.204v-1.064h-2.128v7.50400004Z"/>
    <path id="af" d="M27.006 14.3494727c1.036 0 1.75-.378 2.268-.952v.812h2.058V9.85547266c0-1.008-.252-1.834-.812-2.394-.532-.532-1.372-.84-2.534-.84-1.274 0-2.086.238-2.912.602l.532 1.624c.686-.252 1.26-.406 2.072-.406 1.064 0 1.61.49 1.61 1.372v.126c-.532-.182-1.078-.308-1.834-.308-1.778 0-3.024.75600004-3.024 2.39400004v.028c0 1.484 1.162 2.296 2.576 2.296Zm.644-1.47c-.686 0-1.162-.336-1.162-.91v-.028c0-.672.56-1.036 1.47-1.036.518 0 .994.112 1.358.28v.378c0 .77-.672 1.316-1.666 1.316Z"/>
    <path id="ag" d="M33.166 14.2094727h2.128v-2.772c0-1.79200004.868-2.64600004 2.282-2.64600004h.112v-2.226c-1.26-.056-1.96.616-2.394 1.652v-1.512h-2.128v7.50400004Z"/>
    <path id="ah" d="M39.06 5.87947266h2.24v-1.89h-2.24v1.89Zm.056 8.33000004h2.128V6.70547266h-2.128v7.50400004Z"/>
    <path id="ai" d="M43.246 14.2094727h2.128v-2.282l.756-.798 1.918 3.08h2.464l-2.954-4.55000004 2.856-2.954h-2.548l-2.492 2.73v-5.446h-2.128z"/>
    <path id="aj" d="M59.29 14.3774727c1.358 0 2.366-.532 3.066-1.4l-1.218-1.078c-.588.546-1.106.77-1.82.77-.952 0-1.624-.504-1.834-1.47h5.222c.014-.196.028-.392.028-.56 0-2.12800004-1.148-4.07400004-3.654-4.07400004-2.184 0-3.71 1.764-3.71 3.90600004v.028c0 2.296 1.666 3.878 3.92 3.878Zm-1.834-4.50800004c.168-.966.742-1.596 1.624-1.596.896 0 1.456.644 1.582 1.596h-3.206Z"/>
    <path id="ak" d="M66.85 14.3354727c.714 0 1.232-.168 1.68-.434v-1.708c-.308.168-.658.266-1.05.266-.476 0-.686-.238-.686-.728V8.52547266h1.764v-1.82h-1.764v-1.918h-2.128v1.918h-.896v1.82h.896v3.55600004c0 1.736.882 2.254 2.184 2.254Z"/>
    <path id="al" d="M76.454 14.3494727c1.036 0 1.75-.378 2.268-.952v.812h2.058V9.85547266c0-1.008-.252-1.834-.812-2.394-.532-.532-1.372-.84-2.534-.84-1.274 0-2.086.238-2.912.602l.532 1.624c.686-.252 1.26-.406 2.072-.406 1.064 0 1.61.49 1.61 1.372v.126c-.532-.182-1.078-.308-1.834-.308-1.778 0-3.024.75600004-3.024 2.39400004v.028c0 1.484 1.162 2.296 2.576 2.296Zm.644-1.47c-.686 0-1.162-.336-1.162-.91v-.028c0-.672.56-1.036 1.47-1.036.518 0 .994.112 1.358.28v.378c0 .77-.672 1.316-1.666 1.316Z"/>
    <path id="am" d="M82.712 14.2094727h2.128V3.98947266h-2.128z"/>
    <path id="an" d="M90.0735937 2.43896484h-1.5292968v3.77050782h-.8525391V2.43896484h-1.5424805v-.83935546h1.5424805V0h.8525391v1.59960938h1.5292968z"/>
    <path id="ao" d="m41.0992656 32.1834727.938-1.414c-1.89-1.316-2.702-2.604-2.702-4.578 0-1.974.812-3.262 2.702-4.578l-.938-1.414c-2.576 1.4-3.878 3.304-3.878 5.992s1.302 4.592 3.878 5.992Z"/>
    <path id="ap" d="M43.8012656 30.2094727h2.128v-6.23l4.746 6.23h1.834v-9.8h-2.128v6.034l-4.592-6.034h-1.988z"/>
    <path id="aq" d="M54.7072656 24.4274727h6.916v-1.932h-6.916v1.932Zm0 3.64h6.916v-1.932h-6.916v1.932Z"/>
    <path id="ar" d="M65.1372656 30.2094727h2.128v-9.87h-1.47l-2.814.84.448 1.764 1.708-.42z"/>
    <path id="as" d="M71.0452656 30.2094727h2.128v-9.87h-1.47l-2.814.84.448 1.764 1.708-.42z"/>
    <path id="at" d="M80.0332656 30.2094727h2.058v-2.114h1.316v-1.75h-1.316v-6.006h-1.82l-5.376 6.23.35 1.526h4.788v2.114Zm-2.604-3.864 2.604-3.052v3.052h-2.604Z"/>
    <path id="au" d="M85.6332656 32.1834727c2.576-1.4 3.878-3.304 3.878-5.992s-1.302-4.592-3.878-5.992l-.938 1.414c1.89 1.316 2.702 2.604 2.702 4.578 0 1.974-.812 3.262-2.702 4.578l.938 1.414Z"/>
    <path id="av" d="M6.498 13.392c2.772 0 4.374-1.206 5.562-2.844L9.432 8.676c-.756.918-1.53 1.53-2.844 1.53-1.764 0-3.006-1.476-3.006-3.366v-.036c0-1.836 1.242-3.348 3.006-3.348 1.206 0 2.034.594 2.754 1.476l2.628-2.034C10.854 1.368 9.198.288 6.624.288 2.808.288 0 3.168 0 6.84v.036c0 3.762 2.898 6.516 6.498 6.516Z"/>
    <path id="aw" d="M13.464 13.14h3.402V0h-3.402z"/>
    <path id="ax" d="M18.81 2.52h3.546V0H18.81v2.52Zm.072 10.62h3.402V3.402h-3.402v9.738Z"/>
    <path id="ay" d="M24.21 13.14h3.42V7.866c0-1.08.612-1.656 1.44-1.656s1.386.576 1.386 1.656v5.274h3.402V6.768c0-2.214-1.242-3.582-3.312-3.582-1.386 0-2.286.774-2.916 1.584V3.402h-3.42v9.738Z"/>
    <path id="az" d="M35.64 2.52h3.546V0H35.64v2.52Zm.072 10.62h3.402V3.402h-3.402v9.738Z"/>
    <path id="aA" d="M45.756 13.374c2.124 0 3.42-.9 4.32-2.232L47.79 9.486c-.522.63-1.044 1.008-1.872 1.008-1.152 0-1.944-.954-1.944-2.214v-.036c0-1.188.81-2.178 1.926-2.178.81 0 1.332.396 1.818 1.026l2.304-1.728c-.828-1.296-2.16-2.16-4.158-2.16-3.078 0-5.202 2.322-5.202 5.076v.036c0 2.754 2.142 5.058 5.094 5.058Z"/>
    <path id="aB" d="M54.072 13.356c1.278 0 2.196-.504 2.88-1.242v1.026h3.366V7.542c0-1.368-.306-2.376-1.044-3.096-.774-.774-1.962-1.188-3.708-1.188-1.674 0-2.844.306-3.942.756l.702 2.394c.882-.324 1.674-.54 2.7-.54 1.314 0 1.944.576 1.944 1.602v.162c-.558-.216-1.44-.378-2.34-.378-2.286 0-3.816 1.026-3.816 3.06v.036c0 1.926 1.404 3.006 3.258 3.006Zm1.224-2.142c-.702 0-1.206-.396-1.206-1.062v-.036c0-.738.576-1.206 1.566-1.206.504 0 .99.108 1.35.252v.45c0 .972-.702 1.602-1.71 1.602Z"/>
    <path id="aC" d="M62.154 13.14h3.402V0h-3.402z"/>
    <path id="aD" d="M75.744 13.14h3.492V3.6h3.78V.54H71.982V3.6h3.762z"/>
    <path id="aE" d="M84.348 13.14h3.42v-3.042c0-2.232 1.008-3.258 2.79-3.258h.288v-3.6c-1.62-.072-2.52.792-3.078 2.124V3.402h-3.42v9.738Z"/>
    <path id="aF" d="M92.07 2.52h3.546V0H92.07v2.52Zm.072 10.62h3.402V3.402h-3.402v9.738Z"/>
    <path id="aG" d="M100.26 13.356c1.278 0 2.196-.504 2.88-1.242v1.026h3.366V7.542c0-1.368-.306-2.376-1.044-3.096-.774-.774-1.962-1.188-3.708-1.188-1.674 0-2.844.306-3.942.756l.702 2.394c.882-.324 1.674-.54 2.7-.54 1.314 0 1.944.576 1.944 1.602v.162c-.558-.216-1.44-.378-2.34-.378-2.286 0-3.816 1.026-3.816 3.06v.036c0 1.926 1.404 3.006 3.258 3.006Zm1.224-2.142c-.702 0-1.206-.396-1.206-1.062v-.036c0-.738.576-1.206 1.566-1.206.504 0 .99.108 1.35.252v.45c0 .972-.702 1.602-1.71 1.602Z"/>
    <path id="aH" d="M108.342 13.14h3.402V0h-3.402z"/>
    <path id="aI" d="M114.382 7.14h1.91V.09h-1.41l-2.05.58.37 1.5 1.18-.28z"/>
    <path id="aJ" d="M117.332 8.79c1.24-.04 2.05-.55 2.05-2.03V5.17h-1.97v1.95h.76c.03.54-.33.87-1 .94l.16.73Z"/>
    <path id="aK" d="M120.142 7.14h5.54V5.56h-2.89l1.2-.84c1.04-.75 1.62-1.33 1.62-2.45v-.02c0-1.32-1.05-2.23-2.58-2.23-1.35 0-2.1.53-2.85 1.5l1.31 1.09c.55-.63.92-.91 1.39-.91.48 0 .79.27.79.72 0 .42-.26.75-.91 1.26l-2.62 2v1.46Z"/>
  </defs>
  <g fill="none" fill-rule="evenodd">
    <path stroke="#8A8A8A" stroke-linecap="round" d="M150.262663 366.499999h180.886074"/>
    <g fill="#247AAC" fill-rule="nonzero">
      <path d="M201.004 121h3.104v-3.392h1.376L207.74 121h3.568l-2.672-3.904c1.392-.592 2.304-1.728 2.304-3.456v-.032c0-1.104-.336-1.952-.992-2.608-.752-.752-1.936-1.2-3.648-1.2h-5.296V121Zm3.104-5.824v-2.704h2.048c1.024 0 1.68.448 1.68 1.344v.032c0 .816-.624 1.328-1.664 1.328h-2.064ZM216.636 121.208c1.712 0 2.912-.704 3.744-1.76l-1.68-1.392c-.624.608-1.184.88-1.92.88-.944 0-1.632-.48-1.872-1.424h5.792c.016-.208.016-.432.016-.624 0-2.544-1.376-4.736-4.352-4.736-2.56 0-4.368 2-4.368 4.528v.032c0 2.672 1.92 4.496 4.64 4.496Zm-1.776-5.248c.16-.96.704-1.568 1.504-1.568.832 0 1.408.608 1.52 1.568h-3.024ZM224.508 121.192c1.136 0 1.952-.448 2.56-1.104V121h2.992v-4.976c0-1.216-.272-2.112-.928-2.752-.688-.688-1.744-1.056-3.296-1.056-1.488 0-2.528.272-3.504.672l.624 2.128c.784-.288 1.488-.48 2.4-.48 1.168 0 1.728.512 1.728 1.424v.144c-.496-.192-1.28-.336-2.08-.336-2.032 0-3.392.912-3.392 2.72v.032c0 1.712 1.248 2.672 2.896 2.672Zm1.088-1.904c-.624 0-1.072-.352-1.072-.944v-.032c0-.656.512-1.072 1.392-1.072.448 0 .88.096 1.2.224v.4c0 .864-.624 1.424-1.52 1.424ZM231.692 121h3.024v-11.68h-3.024zM236.252 117.32h5.248v-2.656h-5.248zM246.124 121.08h2.704l2.256-6.448 2.24 6.448h2.704l3.744-11.28h-3.216l-1.952 6.48-2.16-6.512h-2.672l-2.16 6.512-1.952-6.48h-3.28zM265.244 121.208c2.784 0 4.8-2.064 4.8-4.528v-.032c0-2.464-2-4.496-4.768-4.496s-4.784 2.064-4.784 4.528v.032c0 2.464 2 4.496 4.752 4.496Zm.032-2.576c-1.072 0-1.84-.896-1.84-1.952v-.032c0-1.056.704-1.936 1.808-1.936 1.072 0 1.856.896 1.856 1.968v.032c0 1.04-.72 1.92-1.824 1.92ZM271.324 121h3.04v-2.704c0-1.984.896-2.896 2.48-2.896h.256v-3.2c-1.44-.064-2.24.704-2.736 1.888v-1.744h-3.04V121ZM278.252 121h3.024v-11.68h-3.024zM286.508 121.192c1.296 0 2.032-.624 2.624-1.344V121h3.04v-11.68h-3.04v4.08c-.56-.656-1.328-1.248-2.64-1.248-2.048 0-3.824 1.712-3.824 4.528v.032c0 2.768 1.776 4.48 3.84 4.48Zm.912-2.544c-.976 0-1.776-.816-1.776-1.968v-.032c0-1.152.8-1.968 1.776-1.968.992 0 1.776.832 1.776 1.968v.032c0 1.152-.784 1.968-1.776 1.968ZM183.641 139h9.088v-2.64h-6.016v-1.776h5.376v-2.448h-5.376v-1.712h5.936V127.8h-9.008zM194.697 139h3.04v-6.224h1.936v-2.336h-2v-.208c0-.56.304-.816.864-.816.448 0 .784.064 1.136.176v-2.144c-.464-.144-1.056-.24-1.968-.24-1.04 0-1.744.224-2.272.752-.512.512-.736 1.248-.736 2.24v.176h-1.008v2.4h1.008V139Zm6.464 0h3.04v-6.224h1.936v-2.336h-2v-.208c0-.56.304-.816.864-.816.448 0 .784.064 1.136.176v-2.144c-.464-.144-1.056-.24-1.968-.24-1.04 0-1.744.224-2.272.752-.512.512-.736 1.248-.736 2.24v.224h-1.008v2.352h1.008V139ZM211.385 139.208c1.712 0 2.912-.704 3.744-1.76l-1.68-1.392c-.624.608-1.184.88-1.92.88-.944 0-1.632-.48-1.872-1.424h5.792c.016-.208.016-.432.016-.624 0-2.544-1.376-4.736-4.352-4.736-2.56 0-4.368 2-4.368 4.528v.032c0 2.672 1.92 4.496 4.64 4.496Zm-1.776-5.248c.16-.96.704-1.568 1.504-1.568.832 0 1.408.608 1.52 1.568h-3.024ZM220.969 139.208c1.888 0 3.04-.8 3.84-1.984l-2.032-1.472c-.464.56-.928.896-1.664.896-1.024 0-1.728-.848-1.728-1.968v-.032c0-1.056.72-1.936 1.712-1.936.72 0 1.184.352 1.616.912l2.048-1.536c-.736-1.152-1.92-1.92-3.696-1.92-2.736 0-4.624 2.064-4.624 4.512v.032c0 2.448 1.904 4.496 4.528 4.496ZM229.321 139.176c.848 0 1.568-.208 2.112-.512v-2.368c-.368.176-.752.288-1.152.288-.56 0-.832-.256-.832-.864v-2.944h2.016v-2.432h-2.016v-2.192h-3.024v2.192h-1.024v2.432h1.024v3.536c0 2.064 1.072 2.864 2.896 2.864ZM232.793 129.56h3.152v-2.24h-3.152v2.24Zm.064 9.44h3.024v-8.656h-3.024V139ZM240.393 139.064h2.768l3.456-8.72h-3.136l-1.68 5.056-1.664-5.056h-3.2zM251.897 139.208c1.712 0 2.912-.704 3.744-1.76l-1.68-1.392c-.624.608-1.184.88-1.92.88-.944 0-1.632-.48-1.872-1.424h5.792c.016-.208.016-.432.016-.624 0-2.544-1.376-4.736-4.352-4.736-2.56 0-4.368 2-4.368 4.528v.032c0 2.672 1.92 4.496 4.64 4.496Zm-1.776-5.248c.16-.96.704-1.568 1.504-1.568.832 0 1.408.608 1.52 1.568h-3.024ZM257.289 139h3.04v-4.688c0-.96.544-1.472 1.28-1.472s1.232.512 1.232 1.472V139h3.024v-5.664c0-1.968-1.104-3.184-2.944-3.184-1.232 0-2.032.688-2.592 1.408v-1.216h-3.04V139ZM271.737 139.208c1.712 0 2.912-.704 3.744-1.76l-1.68-1.392c-.624.608-1.184.88-1.92.88-.944 0-1.632-.48-1.872-1.424h5.792c.016-.208.016-.432.016-.624 0-2.544-1.376-4.736-4.352-4.736-2.56 0-4.368 2-4.368 4.528v.032c0 2.672 1.92 4.496 4.64 4.496Zm-1.776-5.248c.16-.96.704-1.568 1.504-1.568.832 0 1.408.608 1.52 1.568h-3.024ZM280.569 139.192c2.112 0 3.536-.992 3.536-2.896v-.032c0-1.68-1.36-2.272-3.072-2.752-.896-.272-1.408-.432-1.408-.768v-.032c0-.256.24-.432.704-.432.688 0 1.664.304 2.56.816l1.04-1.92c-.992-.64-2.304-1.008-3.568-1.008-2 0-3.472 1.024-3.472 2.864v.032c0 1.728 1.36 2.304 3.072 2.752.912.256 1.408.4 1.408.752v.032c0 .304-.256.464-.784.464-.896 0-1.968-.336-2.96-.992l-1.136 1.824c1.184.864 2.624 1.296 4.08 1.296ZM288.793 139.192c2.112 0 3.536-.992 3.536-2.896v-.032c0-1.68-1.36-2.272-3.072-2.752-.896-.272-1.408-.432-1.408-.768v-.032c0-.256.24-.432.704-.432.688 0 1.664.304 2.56.816l1.04-1.92c-.992-.64-2.304-1.008-3.568-1.008-2 0-3.472 1.024-3.472 2.864v.032c0 1.728 1.36 2.304 3.072 2.752.912.256 1.408.4 1.408.752v.032c0 .304-.256.464-.784.464-.896 0-1.968-.336-2.96-.992l-1.136 1.824c1.184.864 2.624 1.296 4.08 1.296ZM296.611 133h1.87v-1.36h.89v-1.45h-.89v-4.24h-1.95l-3.63 4.32.31 1.37h3.4V133Zm-1.68-2.8 1.68-2.02v2.02h-1.68ZM300.051 130.7h3.28v-1.66h-3.28zM307.141 133.14c1.53 0 2.78-.96 2.78-2.52v-.02c0-1.4-1.08-2.18-2.31-2.18-.6 0-1.06.19-1.51.54.05-.56.31-1.5 1.32-1.5.56 0 .96.21 1.39.53l.91-1.36c-.67-.5-1.35-.77-2.33-.77-2.19 0-3.25 1.66-3.25 3.84v.02c0 1.31.34 2.1.86 2.62.51.5 1.15.8 2.14.8Zm-.08-1.51c-.61 0-.99-.4-.99-.91v-.02c0-.51.36-.89.97-.89s1 .39 1 .9v.02c0 .51-.37.9-.98.9Z"/>
    </g>
    <path stroke="#8A8A8A" stroke-linecap="round" stroke-linejoin="round" d="M180.51997 367v10M210.11951 367v10M239.061281 367v10M270.634123 367v10M300.89143 367v10M331.148737 367v10"/>
    <path stroke="#8A8A8A" stroke-opacity=".3" d="M239.061281 19.5000005V366.5M270.634123 19.5000004V366.5M301.220314 23.5l-.328884 343M331.477621 23.5l-.328884 343M210.11951 19.4999996V366.5M180.51997 19.5000003V366.5"/>
    <g fill="#444" fill-rule="nonzero">
      <path d="M330.6084995 382.85872862c0 .54296876-.15820312.99511719-.47460938 1.35644532-.31640624.36132812-.76171874.60449218-1.3359375.72949218v.046875c.6875.0859375 1.203125.29980469 1.546875.64160157.34375.34179687.515625.79589843.515625 1.36230469 0 .82421874-.29101562 1.45996093-.87304687 1.90722656-.58203125.44726562-1.41015625.67089844-2.484375.67089844-.94921875 0-1.75-.15429688-2.40234375-.46289063v-1.22460937c.36328125.1796875.74804688.31835937 1.15429688.41601562s.796875.14648438 1.171875.14648438c.6640625 0 1.16015624-.12304688 1.48828125-.36914063.32812499-.24609375.49218749-.62695313.49218749-1.14257813 0-.45703124-.18164062-.79296874-.54492187-1.0078125-.36328125-.21484374-.93359375-.32226562-1.7109375-.32226562h-.74414063v-1.11914062h.75585938c1.3671875 0 2.05078125-.47265626 2.05078125-1.41796875 0-.36718751-.11914063-.65039063-.35742187-.84960938-.23828126-.19921875-.58984376-.29882813-1.0546875-.29882813-.32421876 0-.63671876.04589844-.9375.13769532-.30078125.09179687-.65625.27050781-1.06640626.53613281l-.67382812-.9609375c.78515625-.578125 1.69726562-.8671875 2.73632812-.8671875.86328126 0 1.53710938.18554688 2.02148438.55664063s.7265625.8828125.7265625 1.53515624ZM337.1323745 385.17318175c0 1.48828125-.2392578 2.59375-.7177734 3.31640625-.4785157.72265625-1.209961 1.08398438-2.19433597 1.08398438-.953125 0-1.67578125-.37304688-2.16796875-1.11914063s-.73828125-1.83984375-.73828125-3.28125c0-1.51171875.23925781-2.62597656.71777343-3.34277344.47851563-.71679687 1.20800782-1.07519531 2.18847657-1.07519531.95703127 0 1.68164067.375 2.17382817 1.125.4921875.75.7382812 1.84765625.7382812 3.29296875Zm-4.42382812 0c0 1.16796875.12011718 2.00195313.36035156 2.50195313.24023437.5.62402344.75 1.15136719.75s.91308597-.25390626 1.15722657-.76171876c.2441406-.5078125.3662109-1.33789062.3662109-2.49023437 0-1.1484375-.1220703-1.97949219-.3662109-2.49316406-.2441406-.51367188-.62988282-.77050781-1.15722657-.77050781s-.91113282.25195312-1.15136719.75585937c-.24023438.50390625-.36035156 1.33984375-.36035156 2.5078125Z"/>
    </g>
    <g fill="#444" fill-rule="nonzero">
      <path d="M270.93076562 389.45638488H265.124125v-1.04296876l2.20898438-2.22070312c.65234374-.66796875 1.08496093-1.14160156 1.29785156-1.42089844.21289062-.27929687.36816406-.54199218.46582031-.78808594.09765625-.24609374.14648437-.50976562.14648437-.79101562 0-.38671875-.11621093-.69140625-.34863281-.9140625-.23242187-.22265625-.55371093-.33398438-.96386719-.33398438-.328125 0-.64550781.06054688-.95214843.18164063-.30664063.12109375-.66113281.33984375-1.06347657.65625l-.74414062-.90820313c.4765625-.40234374.93945313-.6875 1.38867188-.85546874.44921875-.16796875.92773437-.25195313 1.43554687-.25195313.796875 0 1.43554687.20800781 1.91601563.62402344.48046874.41601562.72070312.97558593.72070312 1.67871094 0 .38671875-.06933594.75390625-.20800781 1.10156249-.13867188.34765626-.3515625.70605469-.63867188 1.07519532-.28710937.36914062-.76464843.86816406-1.43261719 1.49707031l-1.48828124 1.44140625v.05859375h4.06640624v1.21289063ZM277.132375 385.17318175c0 1.48828125-.2392578 2.59375-.7177734 3.31640625-.4785157.72265625-1.209961 1.08398438-2.19433597 1.08398438-.953125 0-1.67578125-.37304688-2.16796875-1.11914063s-.73828125-1.83984375-.73828125-3.28125c0-1.51171875.23925781-2.62597656.71777343-3.34277344.47851563-.71679687 1.20800782-1.07519531 2.18847657-1.07519531.95703127 0 1.68164067.375 2.17382817 1.125.4921875.75.7382812 1.84765625.7382812 3.29296875Zm-4.42382812 0c0 1.16796875.12011718 2.00195313.36035156 2.50195313.24023437.5.62402344.75 1.15136719.75s.91308597-.25390626 1.15722657-.76171876c.2441406-.5078125.3662109-1.33789062.3662109-2.49023437 0-1.1484375-.1220703-1.97949219-.3662109-2.49316406-.2441406-.51367188-.62988282-.77050781-1.15722657-.77050781s-.91113282.25195312-1.15136719.75585937c-.24023438.50390625-.36035156 1.33984375-.36035156 2.5078125Z"/>
    </g>
    <g fill="#444" fill-rule="nonzero">
      <path d="M300.93076562 389.45638512H295.124125v-1.04296874l2.20898438-2.22070313c.65234374-.66796875 1.08496093-1.14160156 1.29785156-1.42089844.21289062-.27929687.36816406-.54199219.46582031-.78808593.09765625-.24609376.14648437-.50976563.14648437-.79101563 0-.38671875-.11621093-.69140625-.34863281-.9140625-.23242187-.22265625-.55371093-.33398437-.96386719-.33398437-.328125 0-.64550781.06054687-.95214843.18164062-.30664063.12109375-.66113281.33984375-1.06347657.65625l-.74414062-.90820312c.4765625-.40234376.93945313-.6875 1.38867188-.85546876.44921875-.16796874.92773437-.25195312 1.43554687-.25195312.796875 0 1.43554687.20800781 1.91601563.62402344.48046874.41601562.72070312.97558594.72070312 1.67871094 0 .38671874-.06933594.75390624-.20800781 1.1015625-.13867188.34765624-.3515625.70605468-.63867188 1.07519531-.28710937.36914062-.76464843.86816406-1.43261719 1.49707031l-1.48828124 1.44140625v.05859375h4.06640624v1.21289062ZM304.23198438 384.10677575c.86328125 0 1.54687502.22851563 2.05078122.68554687.5039063.45703126.7558594 1.08007813.7558594 1.86914063 0 .9140625-.2861328 1.62792969-.8583984 2.14160156-.5722657.51367188-1.38574222.77050781-2.44042972.77050781-.95703125 0-1.70898438-.15429687-2.25585938-.46289062v-1.24804688c.31640625.1796875.6796875.31835938 1.08984375.41601563s.79101563.14648437 1.14257813.14648437c.62109375 0 1.09375-.13867187 1.41796872-.41601562.3242188-.27734375.4863282-.68359375.4863282-1.21875 0-1.0234375-.6523438-1.53515625-1.9570313-1.53515625-.18359375 0-.41015625.01855469-.6796875.05566406-.26953125.03710938-.50585937.07910157-.70898437.12597656l-.61523438-.36328125.328125-4.18359374h4.45312505v1.22460937h-3.24023442l-.19335938 2.12109375c.13671875-.0234375.30371094-.05078125.50097656-.08203125.19726563-.03125.43847657-.046875.72363282-.046875Z"/>
    </g>
    <g fill="#444" fill-rule="nonzero">
      <path d="M237.16709375 389.45638525h-1.37695313v-5.53125c0-.66015625.015625-1.18359375.046875-1.5703125-.08984374.09375-.20019531.19726563-.33105468.31054687-.13085938.11328126-.56933594.47265626-1.31542969 1.078125l-.69140625-.87304687 2.51953125-1.98046875h1.1484375v8.56640625ZM242.23198438 384.10677588c.86328125 0 1.54687502.22851562 2.05078122.68554687.5039063.45703125.7558594 1.08007813.7558594 1.86914063 0 .9140625-.2861328 1.62792968-.8583984 2.14160156-.5722657.51367187-1.38574222.77050781-2.44042972.77050781-.95703125 0-1.70898438-.15429687-2.25585938-.46289063v-1.24804687c.31640625.1796875.6796875.31835937 1.08984375.41601563.41015625.09765624.79101563.14648437 1.14257813.14648437.62109375 0 1.09375-.13867187 1.41796875-.41601563.32421875-.27734374.48632817-.68359374.48632817-1.21875 0-1.0234375-.6523438-1.53515624-1.9570313-1.53515624-.18359375 0-.41015625.01855468-.6796875.05566406-.26953125.03710937-.50585937.07910156-.70898437.12597656l-.61523438-.36328125.328125-4.18359375h4.45312505v1.22460938h-3.24023442l-.19335938 2.12109375c.13671875-.02343751.30371094-.05078126.50097656-.08203125.19726563-.03125.43847657-.046875.72363282-.046875Z"/>
    </g>
    <g fill="#444" fill-rule="nonzero">
      <path d="M208.16709375 389.45638488h-1.37695313v-5.53125c0-.66015626.015625-1.18359376.046875-1.5703125-.08984374.09375-.20019531.19726562-.33105468.31054687-.13085938.11328125-.56933594.47265625-1.31542969 1.078125l-.69140625-.87304687 2.51953125-1.98046875h1.1484375v8.56640625ZM216.132375 385.17318175c0 1.48828125-.2392578 2.59375-.7177734 3.31640625-.4785157.72265625-1.20996097 1.08398438-2.19433597 1.08398438-.953125 0-1.67578125-.37304688-2.16796875-1.11914063s-.73828125-1.83984375-.73828125-3.28125c0-1.51171875.23925781-2.62597656.71777343-3.34277344.47851563-.71679687 1.20800782-1.07519531 2.18847657-1.07519531.95703125 0 1.68164067.375 2.17382817 1.125.4921875.75.7382812 1.84765625.7382812 3.29296875Zm-4.42382812 0c0 1.16796875.12011718 2.00195313.36035156 2.50195313.24023437.5.62402344.75 1.15136719.75s.91308593-.25390626 1.15722656-.76171876c.24414061-.5078125.36621091-1.33789062.36621091-2.49023437 0-1.1484375-.1220703-1.97949219-.36621091-2.49316406-.24414063-.51367188-.62988281-.77050781-1.15722656-.77050781s-.91113282.25195312-1.15136719.75585937c-.24023438.50390625-.36035156 1.33984375-.36035156 2.5078125Z"/>
    </g>
    <path fill="#444" fill-rule="nonzero" d="M180.23198388 385.10677588c.86328124 0 1.546875.22851562 2.05078124.68554687.50390626.45703125.75585938 1.08007813.75585938 1.86914063 0 .9140625-.28613281 1.62792968-.85839844 2.14160156-.57226562.51367187-1.38574218.77050781-2.44042968.77050781-.95703126 0-1.70898438-.15429687-2.25585938-.46289063v-1.24804687c.31640625.1796875.6796875.31835937 1.08984375.41601563.41015625.09765624.79101562.14648437 1.14257813.14648437.62109374 0 1.09375-.13867187 1.41796874-.41601563.32421876-.27734374.48632813-.68359374.48632813-1.21875 0-1.0234375-.65234375-1.53515624-1.95703125-1.53515624-.18359375 0-.41015625.01855468-.6796875.05566406-.26953125.03710937-.50585938.07910156-.70898438.12597656l-.61523437-.36328125.328125-4.18359375h4.453125v1.22460938h-3.24023437l-.19335938 2.12109375c.13671875-.02343751.30371094-.05078126.50097656-.08203125.19726563-.03125.43847656-.046875.72363282-.046875ZM153.13237538 385.71679675c0 1.48828125-.23925782 2.59375-.71777344 3.31640625-.47851563.72265625-1.20996094 1.08398438-2.19433594 1.08398438-.953125 0-1.67578125-.37304688-2.16796875-1.11914063s-.73828125-1.83984375-.73828125-3.28125c0-1.51171875.23925781-2.62597656.71777344-3.34277344.47851562-.71679687 1.20800781-1.07519531 2.18847656-1.07519531.95703125 0 1.68164062.375 2.17382812 1.125s.73828126 1.84765625.73828126 3.29296875Zm-4.42382813 0c0 1.16796875.12011719 2.00195313.36035156 2.50195313.24023438.5.62402344.75 1.15136719.75s.91308594-.25390626 1.15722656-.76171876c.24414063-.5078125.36621094-1.33789062.36621094-2.49023437 0-1.1484375-.12207031-1.97949219-.36621094-2.49316406-.24414062-.51367188-.62988281-.77050781-1.15722656-.77050781s-.91113281.25195312-1.15136719.75585937c-.24023437.50390625-.36035156 1.33984375-.36035156 2.5078125Z"/>
    <g fill-rule="nonzero">
      <g transform="translate(64.842000, 234.192000)">
        <use xlink:href="#a" fill="#333F48"/>
        <use xlink:href="#a" fill="#247AAC"/>
      </g>
      <g transform="translate(64.842000, 234.192000)">
        <use xlink:href="#b" fill="#333F48"/>
        <use xlink:href="#b" fill="#247AAC"/>
      </g>
      <g transform="translate(64.842000, 234.192000)">
        <use xlink:href="#c" fill="#333F48"/>
        <use xlink:href="#c" fill="#247AAC"/>
      </g>
      <g transform="translate(64.842000, 234.192000)">
        <use xlink:href="#d" fill="#333F48"/>
        <use xlink:href="#d" fill="#247AAC"/>
      </g>
      <g transform="translate(64.842000, 234.192000)">
        <use xlink:href="#e" fill="#333F48"/>
        <use xlink:href="#e" fill="#247AAC"/>
      </g>
      <g transform="translate(64.842000, 234.192000)">
        <use xlink:href="#f" fill="#333F48"/>
        <use xlink:href="#f" fill="#247AAC"/>
      </g>
      <g transform="translate(64.842000, 234.192000)">
        <use xlink:href="#g" fill="#333F48"/>
        <use xlink:href="#g" fill="#247AAC"/>
      </g>
      <g transform="translate(64.842000, 234.192000)">
        <use xlink:href="#h" fill="#333F48"/>
        <use xlink:href="#h" fill="#247AAC"/>
      </g>
      <g transform="translate(64.842000, 234.192000)">
        <use xlink:href="#i" fill="#333F48"/>
        <use xlink:href="#i" fill="#247AAC"/>
      </g>
      <g transform="translate(64.842000, 234.192000)">
        <use xlink:href="#j" fill="#333F48"/>
        <use xlink:href="#j" fill="#247AAC"/>
      </g>
      <g transform="translate(64.842000, 234.192000)">
        <use xlink:href="#k" fill="#333F48"/>
        <use xlink:href="#k" fill="#247AAC"/>
      </g>
      <g transform="translate(64.842000, 234.192000)">
        <use xlink:href="#l" fill="#333F48"/>
        <use xlink:href="#l" fill="#247AAC"/>
      </g>
      <g transform="translate(64.842000, 234.192000)">
        <use xlink:href="#m" fill="#333F48"/>
        <use xlink:href="#m" fill="#247AAC"/>
      </g>
      <g transform="translate(64.842000, 234.192000)">
        <use xlink:href="#n" fill="#333F48"/>
        <use xlink:href="#n" fill="#247AAC"/>
      </g>
      <g transform="translate(64.842000, 234.192000)">
        <use xlink:href="#o" fill="#333F48"/>
        <use xlink:href="#o" fill="#247AAC"/>
      </g>
      <g transform="translate(64.842000, 234.192000)">
        <use xlink:href="#p" fill="#333F48"/>
        <use xlink:href="#p" fill="#247AAC"/>
      </g>
    </g>
    <g fill-rule="nonzero">
      <g transform="translate(35.064000, 40.032000)">
        <use xlink:href="#q" fill="#333F48"/>
        <use xlink:href="#q" fill="#E05C01"/>
      </g>
      <g transform="translate(35.064000, 40.032000)">
        <use xlink:href="#r" fill="#333F48"/>
        <use xlink:href="#r" fill="#E05C01"/>
      </g>
      <g transform="translate(35.064000, 40.032000)">
        <use xlink:href="#s" fill="#333F48"/>
        <use xlink:href="#s" fill="#E05C01"/>
      </g>
      <g transform="translate(35.064000, 40.032000)">
        <use xlink:href="#t" fill="#333F48"/>
        <use xlink:href="#t" fill="#E05C01"/>
      </g>
      <g transform="translate(35.064000, 40.032000)">
        <use xlink:href="#u" fill="#333F48"/>
        <use xlink:href="#u" fill="#E05C01"/>
      </g>
      <g transform="translate(35.064000, 40.032000)">
        <use xlink:href="#v" fill="#333F48"/>
        <use xlink:href="#v" fill="#E05C01"/>
      </g>
      <g transform="translate(35.064000, 40.032000)">
        <use xlink:href="#w" fill="#333F48"/>
        <use xlink:href="#w" fill="#E05C01"/>
      </g>
      <g transform="translate(35.064000, 40.032000)">
        <use xlink:href="#x" fill="#333F48"/>
        <use xlink:href="#x" fill="#E05C01"/>
      </g>
      <g transform="translate(35.064000, 40.032000)">
        <use xlink:href="#y" fill="#333F48"/>
        <use xlink:href="#y" fill="#E05C01"/>
      </g>
      <g transform="translate(35.064000, 40.032000)">
        <use xlink:href="#z" fill="#333F48"/>
        <use xlink:href="#z" fill="#E05C01"/>
      </g>
      <g transform="translate(35.064000, 40.032000)">
        <use xlink:href="#A" fill="#333F48"/>
        <use xlink:href="#A" fill="#E05C01"/>
      </g>
      <g transform="translate(35.064000, 40.032000)">
        <use xlink:href="#B" fill="#333F48"/>
        <use xlink:href="#B" fill="#E05C01"/>
      </g>
      <g transform="translate(35.064000, 40.032000)">
        <use xlink:href="#C" fill="#333F48"/>
        <use xlink:href="#C" fill="#E05C01"/>
      </g>
      <g transform="translate(35.064000, 40.032000)">
        <use xlink:href="#D" fill="#333F48"/>
        <use xlink:href="#D" fill="#E05C01"/>
      </g>
      <g transform="translate(35.064000, 40.032000)">
        <use xlink:href="#E" fill="#333F48"/>
        <use xlink:href="#E" fill="#E05C01"/>
      </g>
      <g transform="translate(35.064000, 40.032000)">
        <use xlink:href="#F" fill="#333F48"/>
        <use xlink:href="#F" fill="#E05C01"/>
      </g>
      <g transform="translate(35.064000, 40.032000)">
        <use xlink:href="#G" fill="#333F48"/>
        <use xlink:href="#G" fill="#E05C01"/>
      </g>
      <g transform="translate(35.064000, 40.032000)">
        <use xlink:href="#H" fill="#333F48"/>
        <use xlink:href="#H" fill="#E05C01"/>
      </g>
      <g transform="translate(35.064000, 40.032000)">
        <use xlink:href="#I" fill="#333F48"/>
        <use xlink:href="#I" fill="#E05C01"/>
      </g>
      <g transform="translate(35.064000, 40.032000)">
        <use xlink:href="#J" fill="#333F48"/>
        <use xlink:href="#J" fill="#E05C01"/>
      </g>
      <g transform="translate(35.064000, 40.032000)">
        <use xlink:href="#K" fill="#333F48"/>
        <use xlink:href="#K" fill="#E05C01"/>
      </g>
    </g>
    <g fill-rule="nonzero">
      <g transform="translate(54.888000, 156.780000)">
        <use xlink:href="#L" fill="#333F48"/>
        <use xlink:href="#L" fill="#247AAC"/>
      </g>
      <g transform="translate(54.888000, 156.780000)">
        <use xlink:href="#M" fill="#333F48"/>
        <use xlink:href="#M" fill="#247AAC"/>
      </g>
      <g transform="translate(54.888000, 156.780000)">
        <use xlink:href="#N" fill="#333F48"/>
        <use xlink:href="#N" fill="#247AAC"/>
      </g>
      <g transform="translate(54.888000, 156.780000)">
        <use xlink:href="#O" fill="#333F48"/>
        <use xlink:href="#O" fill="#247AAC"/>
      </g>
      <g transform="translate(54.888000, 156.780000)">
        <use xlink:href="#P" fill="#333F48"/>
        <use xlink:href="#P" fill="#247AAC"/>
      </g>
      <g transform="translate(54.888000, 156.780000)">
        <use xlink:href="#Q" fill="#333F48"/>
        <use xlink:href="#Q" fill="#247AAC"/>
      </g>
      <g transform="translate(54.888000, 156.780000)">
        <use xlink:href="#R" fill="#333F48"/>
        <use xlink:href="#R" fill="#247AAC"/>
      </g>
      <g transform="translate(54.888000, 156.780000)">
        <use xlink:href="#S" fill="#333F48"/>
        <use xlink:href="#S" fill="#247AAC"/>
      </g>
      <g transform="translate(54.888000, 156.780000)">
        <use xlink:href="#T" fill="#333F48"/>
        <use xlink:href="#T" fill="#247AAC"/>
      </g>
      <g transform="translate(54.888000, 156.780000)">
        <use xlink:href="#U" fill="#333F48"/>
        <use xlink:href="#U" fill="#247AAC"/>
      </g>
      <g transform="translate(54.888000, 156.780000)">
        <use xlink:href="#V" fill="#333F48"/>
        <use xlink:href="#V" fill="#247AAC"/>
      </g>
      <g transform="translate(54.888000, 156.780000)">
        <use xlink:href="#W" fill="#333F48"/>
        <use xlink:href="#W" fill="#247AAC"/>
      </g>
      <g transform="translate(54.888000, 156.780000)">
        <use xlink:href="#X" fill="#333F48"/>
        <use xlink:href="#X" fill="#247AAC"/>
      </g>
      <g transform="translate(54.888000, 156.780000)">
        <use xlink:href="#Y" fill="#333F48"/>
        <use xlink:href="#Y" fill="#247AAC"/>
      </g>
      <g transform="translate(54.888000, 156.780000)">
        <use xlink:href="#Z" fill="#333F48"/>
        <use xlink:href="#Z" fill="#247AAC"/>
      </g>
      <g transform="translate(54.888000, 156.780000)">
        <use xlink:href="#aa" fill="#333F48"/>
        <use xlink:href="#aa" fill="#247AAC"/>
      </g>
      <g transform="translate(54.888000, 156.780000)">
        <use xlink:href="#ab" fill="#333F48"/>
        <use xlink:href="#ab" fill="#247AAC"/>
      </g>
    </g>
    <g fill-rule="nonzero">
      <g transform="translate(48.662734, 303.790527)">
        <use xlink:href="#ac" fill="#333F48"/>
        <use xlink:href="#ac" fill="#247AAC"/>
      </g>
      <g transform="translate(48.662734, 303.790527)">
        <use xlink:href="#ad" fill="#333F48"/>
        <use xlink:href="#ad" fill="#247AAC"/>
      </g>
      <g transform="translate(48.662734, 303.790527)">
        <use xlink:href="#ae" fill="#333F48"/>
        <use xlink:href="#ae" fill="#247AAC"/>
      </g>
      <g transform="translate(48.662734, 303.790527)">
        <use xlink:href="#af" fill="#333F48"/>
        <use xlink:href="#af" fill="#247AAC"/>
      </g>
      <g transform="translate(48.662734, 303.790527)">
        <use xlink:href="#ag" fill="#333F48"/>
        <use xlink:href="#ag" fill="#247AAC"/>
      </g>
      <g transform="translate(48.662734, 303.790527)">
        <use xlink:href="#ah" fill="#333F48"/>
        <use xlink:href="#ah" fill="#247AAC"/>
      </g>
      <g transform="translate(48.662734, 303.790527)">
        <use xlink:href="#ai" fill="#333F48"/>
        <use xlink:href="#ai" fill="#247AAC"/>
      </g>
      <g transform="translate(48.662734, 303.790527)">
        <use xlink:href="#aj" fill="#333F48"/>
        <use xlink:href="#aj" fill="#247AAC"/>
      </g>
      <g transform="translate(48.662734, 303.790527)">
        <use xlink:href="#ak" fill="#333F48"/>
        <use xlink:href="#ak" fill="#247AAC"/>
      </g>
      <g transform="translate(48.662734, 303.790527)">
        <use xlink:href="#al" fill="#333F48"/>
        <use xlink:href="#al" fill="#247AAC"/>
      </g>
      <g transform="translate(48.662734, 303.790527)">
        <use xlink:href="#am" fill="#333F48"/>
        <use xlink:href="#am" fill="#247AAC"/>
      </g>
      <g transform="translate(48.662734, 303.790527)">
        <use xlink:href="#an" fill="#333F48"/>
        <use xlink:href="#an" fill="#247AAC"/>
      </g>
      <g transform="translate(48.662734, 303.790527)">
        <use xlink:href="#ao" fill="#333F48"/>
        <use xlink:href="#ao" fill="#247AAC"/>
      </g>
      <g transform="translate(48.662734, 303.790527)">
        <use xlink:href="#ap" fill="#333F48"/>
        <use xlink:href="#ap" fill="#247AAC"/>
      </g>
      <g transform="translate(48.662734, 303.790527)">
        <use xlink:href="#aq" fill="#333F48"/>
        <use xlink:href="#aq" fill="#247AAC"/>
      </g>
      <g transform="translate(48.662734, 303.790527)">
        <use xlink:href="#ar" fill="#333F48"/>
        <use xlink:href="#ar" fill="#247AAC"/>
      </g>
      <g transform="translate(48.662734, 303.790527)">
        <use xlink:href="#as" fill="#333F48"/>
        <use xlink:href="#as" fill="#247AAC"/>
      </g>
      <g transform="translate(48.662734, 303.790527)">
        <use xlink:href="#at" fill="#333F48"/>
        <use xlink:href="#at" fill="#247AAC"/>
      </g>
      <g transform="translate(48.662734, 303.790527)">
        <use xlink:href="#au" fill="#333F48"/>
        <use xlink:href="#au" fill="#247AAC"/>
      </g>
    </g>
    <path fill="#006B9A" d="M278.527334 228.5v42c0 2.209139-1.790861 4-4 4h-124.26467v-50h124.26467c2.209139 0 4 1.790861 4 4Z"/>
    <path fill="#E05C01" d="M276.22514794 34v42c0 2.209139-1.790861 4-4 4H149.93378V30h122.29136794c2.209139 0 4 1.790861 4 4Z"/>
    <path fill="#006B9A" d="M317.0067347 151v42c0 2.209139-1.790861 4-4 4H149.933779v-50h163.0729557c2.209139 0 4 1.790861 4 4Z"/>
    <g fill="#FFF" fill-rule="nonzero">
      <path d="M248.62255844 254.5000004h-7.48535157v-1.57470702l2.68798829-2.71728516c.79589843-.81542969 1.31591796-1.38061524 1.56005859-1.69555664.24414063-.31494141.41992187-.60668946.52734375-.87524414.10742188-.26855469.16113281-.546875.16113281-.83496094 0-.4296875-.1184082-.74951172-.35522461-.95947266-.2368164-.20996093-.55297851-.3149414-.94848632-.3149414-.41503907 0-.8178711.09521484-1.2084961.28564453-.390625.19042969-.79833984.46142578-1.22314453.81298828l-1.23046875-1.45751953c.52734375-.44921875.96435547-.76660156 1.31103516-.95214844.34667968-.18554687.72509765-.32836914 1.1352539-.4284668.41015625-.10009765.86914063-.15014648 1.37695313-.15014648.66894531 0 1.25976562.12207031 1.77246093.36621094.51269532.24414062.91064454.5859375 1.19384766 1.02539062.28320313.43945313.42480469.94238282.42480469 1.50878906 0 .49316407-.08666992.95581055-.26000977 1.38793946-.17333984.4321289-.44189453.87524414-.80566406 1.3293457s-1.00463867 1.10107422-1.92260742 1.94091797l-1.37695313 1.29638672v.10253906h4.66552735v1.90429687ZM255.2949217 254.5000004h-2.2631836v-6.19628906l.0219727-1.0180664.0366211-1.11328125c-.3759766.37597656-.6372071.62255859-.7836914.73974609l-1.23046878.98876953-1.0913086-1.36230469 3.44970708-2.74658203h1.8603515v10.70800781ZM258.517578 253.45263712c0-.41015624.1098632-.72021484.3295898-.93017578.2197266-.20996093.5395508-.3149414.9594727-.3149414.4052734 0 .7189941.10742187.9411621.32226562.2221679.21484375.3332519.52246094.3332519.92285156 0 .38574218-.1123047.68969728-.336914.91186528-.2246094.2221679-.5371094.3332519-.9375.3332519-.4101563 0-.7275391-.1086426-.9521485-.3259277-.2246093-.2172852-.336914-.5236817-.336914-.91918948ZM270.0239256 254.5000004h-7.4853515v-1.57470702l2.6879882-2.71728516c.7958985-.81542969 1.315918-1.38061524 1.5600586-1.69555664.2441407-.31494141.4199219-.60668946.5273438-.87524414.1074219-.26855469.1611328-.546875.1611328-.83496094 0-.4296875-.1184082-.74951172-.3552246-.95947266-.2368164-.20996093-.5529785-.3149414-.9484863-.3149414-.4150391 0-.8178711.09521484-1.2084961.28564453-.390625.19042969-.7983399.46142578-1.2231446.81298828l-1.2304687-1.45751953c.5273437-.44921875.9643555-.76660156 1.3110351-.95214844.3466797-.18554687.7250977-.32836914 1.1352539-.4284668.4101563-.10009765.8691407-.15014648 1.3769532-.15014648.6689453 0 1.2597656.12207031 1.7724609.36621094.5126953.24414062.9106445.5859375 1.1938477 1.02539062.2832031.43945313.4248047.94238282.4248047 1.50878906 0 .49316407-.08667.95581055-.2600098 1.38793946-.1733399.4321289-.4418945.87524414-.8056641 1.3293457-.3637695.45410156-1.0046386 1.10107422-1.9226074 1.94091797l-1.3769531 1.29638672v.10253906h4.6655273v1.90429687Z"/>
    </g>
    <path fill="#006B9A" d="M286.749428 302v42c0 2.209139-1.790861 4-4 4H149.93378v-50h132.815648c2.209139 0 4 1.790861 4 4Z"/>
    <g fill="#FFF" fill-rule="nonzero">
      <path d="M256.62255844 328.5000004h-7.48535156v-1.57470702l2.68798828-2.71728516c.79589843-.81542969 1.31591796-1.38061524 1.56005859-1.69555664.24414063-.31494141.41992187-.60668946.52734375-.87524414.10742188-.26855469.16113281-.546875.16113281-.83496094 0-.4296875-.1184082-.74951172-.35522461-.95947266-.2368164-.20996093-.55297851-.3149414-.94848632-.3149414-.41503907 0-.8178711.09521484-1.2084961.28564453-.390625.19042969-.79833984.46142578-1.22314453.81298828l-1.23046875-1.45751953c.52734375-.44921875.96435547-.76660156 1.31103516-.95214844.34667968-.18554687.72509765-.32836914 1.1352539-.4284668.41015625-.10009765.86914063-.15014648 1.37695313-.15014648.66894531 0 1.25976562.12207031 1.77246093.36621094.51269532.24414062.91064454.5859375 1.19384766 1.02539062.28320313.43945313.42480469.94238282.42480469 1.50878906 0 .49316407-.08666992.95581055-.26000977 1.38793946-.17333984.4321289-.44189453.87524414-.80566406 1.3293457s-1.00463867 1.10107422-1.92260742 1.94091797l-1.37695313 1.29638672v.10253906h4.66552735v1.90429687ZM264.7670897 320.18701212c0 .66894532-.2026367 1.23779297-.6079102 1.70654297-.4052734.46875-.9741211.79101563-1.7065429.96679688v.04394531c.8642578.10742188 1.5185546.36987305 1.9628906.78735352.4443359.41748047.6665039.98022461.6665039 1.68823242 0 1.03027344-.3735352 1.83227539-1.1206055 2.40600588-.7470703.5737304-1.8139648.8605957-3.2006836.8605957-1.1621093 0-2.19238278-.1928711-3.09082028-.5786133v-1.92626953c.41503906.20996094.87158203.38085937 1.3696289.51269531.49804688.13183594.99121098.19775391 1.47949218.19775391.7470703 0 1.2988281-.12695313 1.6552734-.38085938.3564454-.25390625.534668-.66162109.534668-1.22314453 0-.50292969-.2050781-.859375-.6152344-1.06933594-.4101562-.20996093-1.0644531-.3149414-1.9628906-.3149414h-.8129883v-1.73583985h.8276368c.8300781 0 1.4367675-.10864257 1.8200683-.32592773.3833008-.21728516.5749512-.58959961.5749512-1.11694336 0-.81054688-.5078125-1.21582031-1.5234375-1.21582031-.3515625 0-.7092285.05859375-1.0729981.17578125-.3637695.1171875-.7678222.31982422-1.21215816.60791015l-1.04736328-1.56005859c.9765625-.703125 2.14111324-1.0546875 3.49365234-1.0546875 1.1083984 0 1.9836426.22460938 2.6257324.67382813.6420899.44921875.9631348 1.07421875.9631348 1.87499999ZM266.517578 327.45263712c0-.41015624.1098632-.72021484.3295898-.93017578.2197266-.20996093.5395508-.3149414.9594727-.3149414.4052734 0 .7189941.10742187.9411621.32226562.2221679.21484375.3332519.52246094.3332519.92285156 0 .38574218-.1123047.68969728-.336914.91186528-.2246094.2221679-.5371094.3332519-.9375.3332519-.4101563 0-.7275391-.1086426-.9521485-.3259277-.2246093-.2172852-.336914-.5236817-.336914-.91918948ZM276.1342772 328.5000004h-2.2631836v-6.19628906l.0219726-1.0180664.0366211-1.11328125c-.3759765.37597656-.637207.62255859-.7836914.73974609l-1.2304687.98876953-1.0913086-1.36230469 3.449707-2.74658203h1.8603516v10.70800781Z"/>
    </g>
    <g fill="#FFF" fill-rule="nonzero">
      <path d="M286.12255844 177.0000004h-7.48535156v-1.57470702l2.68798828-2.71728516c.79589843-.81542969 1.31591796-1.38061524 1.56005859-1.69555664.24414063-.31494141.41992187-.60668946.52734375-.87524414.10742188-.26855469.16113281-.546875.16113281-.83496094 0-.4296875-.1184082-.74951172-.35522461-.95947266-.2368164-.20996093-.55297851-.3149414-.94848632-.3149414-.41503907 0-.8178711.09521484-1.2084961.28564453-.390625.19042969-.79833984.46142578-1.22314453.81298828l-1.23046875-1.45751953c.52734375-.44921875.96435547-.76660156 1.31103516-.95214844.34667968-.18554687.72509765-.32836914 1.1352539-.4284668.41015625-.10009765.86914063-.15014648 1.37695313-.15014648.66894531 0 1.25976562.12207031 1.77246093.36621094.51269532.24414062.91064454.5859375 1.19384766 1.02539062.28320313.43945313.42480469.94238282.42480469 1.50878906 0 .49316407-.08666992.95581055-.26000977 1.38793946-.17333984.4321289-.44189453.87524414-.80566406 1.3293457s-1.00463867 1.10107422-1.92260742 1.94091797l-1.37695313 1.29638672v.10253906h4.66552735v1.90429687ZM288.26123031 177.0000004l4.02099609-8.78906249h-5.28076171v-1.90429688h7.68310551v1.42089844l-4.050293 9.27246093zM296.017578 175.95263712c0-.41015624.1098632-.72021484.3295898-.93017578.2197266-.20996093.5395508-.3149414.9594727-.3149414.4052734 0 .7189941.10742187.9411621.32226562.2221679.21484375.3332519.52246094.3332519.92285156 0 .38574218-.1123047.68969728-.336914.91186528-.2246094.2221679-.5371094.3332519-.9375.3332519-.4101563 0-.7275391-.1086426-.9521485-.3259277-.2246093-.2172852-.336914-.5236817-.336914-.91918948ZM299.9653319 172.45166056c0-2.11914062.447998-3.69628906 1.3439941-4.73144531s2.2375488-1.55273438 4.0246582-1.55273438c.6103516 0 1.0888672.0366211 1.4355469.10986329v1.80908203c-.4345703-.09765625-.8642578-.14648438-1.2890625-.14648438-.7763672 0-1.4099121.1171875-1.9006348.3515625-.4907226.234375-.8581543.58105469-1.1022949 1.04003907-.2441406.45898437-.3881836 1.11083984-.4321289 1.9555664h.0952148c.4833985-.83007812 1.2573243-1.24511719 2.3217774-1.24511719.9570312 0 1.706543.30029297 2.2485351.90087891.5419922.60058594.8129883 1.43066406.8129883 2.49023438 0 1.14257812-.3222656 2.04711914-.9667968 2.71362302-.6445313.6665039-1.538086.9997559-2.6806641.9997559-.7910156 0-1.4807129-.1831055-2.0690918-.5493164-.5883789-.366211-1.0424805-.90087893-1.3623047-1.60400393s-.4797363-1.55029297-.4797363-2.54150391Zm3.8671875 2.88574219c.4833984 0 .8544922-.16235352 1.1132812-.48706055.2587891-.32470703.3881836-.78735351.3881836-1.38793945 0-.52246094-.1208496-.93383789-.3625488-1.23413086-.2416992-.30029297-.6066895-.45043945-1.0949707-.45043945-.4589844 0-.8508301.14892578-1.1755371.44677734-.3247071.29785156-.4870606.64453125-.4870606 1.04003906 0 .58105469.1525879 1.07177735.4577637 1.47216797.3051758.40039063.6921387.60058594 1.1608887.60058594Z"/>
    </g>
    <g fill="#FFF" fill-rule="nonzero">
      <path d="M244.12255844 59.9999998h-7.48535157v-1.57470699l2.68798829-2.71728515c.79589843-.81542969 1.31591796-1.38061524 1.56005859-1.69555664.24414063-.31494141.41992187-.60668946.52734375-.87524414.10742188-.26855469.16113281-.54687501.16113281-.83496094 0-.4296875-.1184082-.74951172-.35522461-.95947266-.2368164-.20996094-.55297851-.31494141-.94848632-.31494141-.41503907 0-.8178711.09521485-1.2084961.28564454-.390625.19042968-.79833984.46142578-1.22314453.81298828L236.60791 50.66894516c.52734375-.44921875.96435547-.76660157 1.31103516-.95214844.34667968-.18554688.72509765-.32836914 1.1352539-.4284668.41015625-.10009765.86914063-.15014648 1.37695313-.15014648.66894531 0 1.25976562.12207031 1.77246093.36621093.51269532.24414063.91064454.5859375 1.19384766 1.02539063.28320313.43945312.42480469.94238281.42480469 1.50878906 0 .49316406-.08666992.95581055-.26000977 1.38793946-.17333984.4321289-.44189453.87524414-.80566406 1.3293457s-1.00463867 1.10107422-1.92260742 1.94091797l-1.37695313 1.29638672v.10253906h4.66552735v1.90429683ZM252.6259764 54.64599594c0 1.87011718-.3063965 3.25439453-.9191894 4.15283203-.612793.89843753-1.5563965 1.34765623-2.8308106 1.34765623-1.2353516 0-2.166748-.4638672-2.79418945-1.39160154-.6274414-.92773438-.94116211-2.29736328-.94116211-4.10888672 0-1.88964844.30517578-3.28247071.91552735-4.1784668.61035161-.8959961 1.55029301-1.34399414 2.81982421-1.34399414 1.2353516 0 2.1691895.46875 2.8015137 1.40625.6323242.9375.9484863 2.30957031.9484863 4.11621094Zm-5.2368164 0c0 1.31347656.1135254 2.25463867.3405762 2.82348633.2270508.56884765.6091308.85327148 1.1462402.85327148.5273438 0 .9082031-.28808594 1.1425781-.86425781.234375-.57617188.3515625-1.51367188.3515625-2.8125 0-1.31347656-.1184082-2.25708008-.3552246-2.83081055-.2368164-.57373047-.6164551-.8605957-1.138916-.8605957-.5322266 0-.9130859.28686523-1.1425781.8605957-.2294922.57373047-.3442383 1.51733399-.3442383 2.83081055ZM254.017578 58.95263656c0-.41015625.1098632-.72021484.3295898-.93017578.2197266-.20996094.5395508-.3149414.9594727-.3149414.4052734 0 .7189941.10742187.9411621.32226562.2221679.21484375.3332519.52246094.3332519.92285156 0 .38574224-.1123047.68969724-.336914.91186524-.2246094.222168-.5371094.333252-.9375.333252-.4101563 0-.7275391-.1086426-.9521485-.3259278-.2246093-.2172851-.336914-.5236816-.336914-.91918944ZM257.9653319 55.45166c0-2.11914062.447998-3.69628906 1.3439941-4.73144531s2.2375488-1.55273438 4.0246582-1.55273438c.6103516 0 1.0888672.0366211 1.4355469.10986328v1.80908203c-.4345703-.09765624-.8642578-.14648437-1.2890625-.14648437-.7763672 0-1.4099121.1171875-1.9006348.3515625-.4907226.234375-.8581543.58105469-1.1022949 1.04003906-.2441406.45898438-.3881836 1.11083985-.4321289 1.95556641h.0952148c.4833985-.83007813 1.2573243-1.24511719 2.3217774-1.24511719.9570312 0 1.706543.30029297 2.2485351.90087891.5419922.60058594.8129883 1.43066406.8129883 2.49023437 0 1.14257813-.3222656 2.04711914-.9667968 2.71362309-.6445313.6665039-1.538086.9997558-2.6806641.9997558-.7910156 0-1.4807129-.1831054-2.0690918-.5493164-.5883789-.3662109-1.0424805-.90087889-1.3623047-1.60400389s-.4797363-1.55029297-.4797363-2.54150391Zm3.8671875 2.88574219c.4833984 0 .8544922-.16235352 1.1132812-.48706055.2587891-.32470703.3881836-.78735352.3881836-1.38793945 0-.52246094-.1208496-.93383789-.3625488-1.23413086-.2416992-.30029297-.6066895-.45043945-1.0949707-.45043945-.4589844 0-.8508301.14892578-1.1755371.44677734-.3247071.29785156-.4870606.64453125-.4870606 1.04003906 0 .58105469.1525879 1.07177734.4577637 1.47216797.3051758.40039063.6921387.60058594 1.1608887.60058594Z"/>
    </g>
    <path stroke="#8A8A8A" stroke-dasharray="0 8" stroke-linecap="round" stroke-linejoin="round" stroke-width="2" d="M86.5 97.887387 360.5000001 97.5"/>
    <g fill-rule="nonzero">
      <g transform="translate(183.825000, 1.860000)">
        <use xlink:href="#av" fill="#247AAC"/>
        <use xlink:href="#av" fill="#E05C01"/>
      </g>
      <g transform="translate(183.825000, 1.860000)">
        <use xlink:href="#aw" fill="#247AAC"/>
        <use xlink:href="#aw" fill="#E05C01"/>
      </g>
      <g transform="translate(183.825000, 1.860000)">
        <use xlink:href="#ax" fill="#247AAC"/>
        <use xlink:href="#ax" fill="#E05C01"/>
      </g>
      <g transform="translate(183.825000, 1.860000)">
        <use xlink:href="#ay" fill="#247AAC"/>
        <use xlink:href="#ay" fill="#E05C01"/>
      </g>
      <g transform="translate(183.825000, 1.860000)">
        <use xlink:href="#az" fill="#247AAC"/>
        <use xlink:href="#az" fill="#E05C01"/>
      </g>
      <g transform="translate(183.825000, 1.860000)">
        <use xlink:href="#aA" fill="#247AAC"/>
        <use xlink:href="#aA" fill="#E05C01"/>
      </g>
      <g transform="translate(183.825000, 1.860000)">
        <use xlink:href="#aB" fill="#247AAC"/>
        <use xlink:href="#aB" fill="#E05C01"/>
      </g>
      <g transform="translate(183.825000, 1.860000)">
        <use xlink:href="#aC" fill="#247AAC"/>
        <use xlink:href="#aC" fill="#E05C01"/>
      </g>
      <g transform="translate(183.825000, 1.860000)">
        <use xlink:href="#aD" fill="#247AAC"/>
        <use xlink:href="#aD" fill="#E05C01"/>
      </g>
      <g transform="translate(183.825000, 1.860000)">
        <use xlink:href="#aE" fill="#247AAC"/>
        <use xlink:href="#aE" fill="#E05C01"/>
      </g>
      <g transform="translate(183.825000, 1.860000)">
        <use xlink:href="#aF" fill="#247AAC"/>
        <use xlink:href="#aF" fill="#E05C01"/>
      </g>
      <g transform="translate(183.825000, 1.860000)">
        <use xlink:href="#aG" fill="#247AAC"/>
        <use xlink:href="#aG" fill="#E05C01"/>
      </g>
      <g transform="translate(183.825000, 1.860000)">
        <use xlink:href="#aH" fill="#247AAC"/>
        <use xlink:href="#aH" fill="#E05C01"/>
      </g>
      <g transform="translate(183.825000, 1.860000)">
        <use xlink:href="#aI" fill="#247AAC"/>
        <use xlink:href="#aI" fill="#E05C01"/>
      </g>
      <g transform="translate(183.825000, 1.860000)">
        <use xlink:href="#aJ" fill="#247AAC"/>
        <use xlink:href="#aJ" fill="#E05C01"/>
      </g>
      <g transform="translate(183.825000, 1.860000)">
        <use xlink:href="#aK" fill="#247AAC"/>
        <use xlink:href="#aK" fill="#E05C01"/>
      </g>
    </g>
    <path stroke="#8A8A8A" stroke-linecap="round" d="M150.262663 20.0000004V377"/>
  </g>
</svg>
