<svg xmlns="http://www.w3.org/2000/svg" xmlns:xlink="http://www.w3.org/1999/xlink" width="1090" height="383" viewBox="0 0 1090 383">
  <title>Charts/4.1 Trials</title>
  <defs>
    <path id="a" d="M4.686 15.664h3.388V3.388h4.686V.264H0v3.124h4.686z"/>
    <path id="b" d="M22.836 15.928c4.752 0 8.206-3.586 8.206-7.964V7.92c0-4.378-3.41-7.92-8.162-7.92-4.752 0-8.206 3.586-8.206 7.964v.044c0 4.378 3.41 7.92 8.162 7.92Zm.044-3.124c-2.728 0-4.664-2.2-4.664-4.84V7.92c0-2.64 1.892-4.796 4.62-4.796s4.664 2.2 4.664 4.84v.044c0 2.64-1.892 4.796-4.62 4.796Z"/>
    <path id="c" d="M40.48 15.906c4.136 0 6.754-2.288 6.754-6.952V.264h-3.388v8.822c0 2.442-1.254 3.696-3.322 3.696s-3.322-1.298-3.322-3.806V.264h-3.388v8.8c0 4.532 2.53 6.842 6.666 6.842Z"/>
    <path id="d" d="M50.688 15.664h3.388v-4.928h2.662l3.3 4.928h3.96l-3.762-5.5c1.958-.726 3.3-2.288 3.3-4.774v-.044c0-1.452-.462-2.662-1.32-3.52C61.204.814 59.686.264 57.728.264h-7.04v15.4Zm3.388-7.92V3.322h3.366c1.65 0 2.662.748 2.662 2.2v.044c0 1.298-.946 2.178-2.596 2.178h-3.432Z"/>
    <path id="e" d="M66.594 15.664h3.322V5.676l4.29 6.512h.088l4.334-6.578v10.054h3.366V.264h-3.652l-4.048 6.512L70.246.264h-3.652z"/>
    <path id="f" d="M84.37 15.664h3.454l1.408-3.454h6.512l1.408 3.454h3.542l-6.6-15.51H90.97l-6.6 15.51Zm6.072-6.446 2.046-4.994 2.046 4.994h-4.092Z"/>
    <path id="g" d="M103.07 15.664h11.066v-3.08h-7.678V.264h-3.388z"/>
    <path id="h" d="M116.842 15.664h3.388V.264h-3.388z"/>
    <path id="i" d="M124.08 15.664h3.344v-9.79l7.458 9.79h2.882V.264h-3.344v9.482L127.204.264h-3.124z"/>
    <path id="j" d="M141.46 15.664h11.726V12.65h-8.36V9.416h7.26V6.402h-7.26V3.278h8.25V.264H141.46z"/>
    <path id="k" d="M155.452 10.45h6.776V7.238h-6.776z"/>
    <path id="l" d="M165.176 15.664h3.322V5.676l4.29 6.512h.088l4.334-6.578v10.054h3.366V.264h-3.652l-4.048 6.512-4.048-6.512h-3.652z"/>
    <path id="m" d="M184.272 15.664h3.322V5.676l4.29 6.512h.088l4.334-6.578v10.054h3.366V.264h-3.652l-4.048 6.512-4.048-6.512h-3.652z"/>
    <path id="n" d="M205.436 15.664h3.344V.154h-2.31l-4.422 1.32.704 2.772 2.684-.66z"/>
    <path id="o" d="m64.757 44.766 1.474-2.222c-2.97-2.068-4.246-4.092-4.246-7.194 0-3.102 1.276-5.126 4.246-7.194l-1.474-2.222c-4.048 2.2-6.094 5.192-6.094 9.416s2.046 7.216 6.094 9.416Z"/>
    <path id="p" d="M69.003 41.664h3.344v-9.79l7.458 9.79h2.882v-15.4h-3.344v9.482l-7.216-9.482h-3.124z"/>
    <path id="q" d="M86.141 32.578h10.868v-3.036H86.141v3.036Zm0 5.72h10.868v-3.036H86.141v3.036Z"/>
    <path id="r" d="M105.457 41.928c3.432 0 5.544-2.134 5.544-5.038v-.044c0-2.86-2.046-3.96-4.136-4.312l3.894-3.718v-2.552h-10.406v2.904h6.05l-3.674 3.696.528 2.156h1.408c1.892 0 3.014.704 3.014 1.958v.044c0 1.144-.902 1.87-2.178 1.87-1.562 0-2.662-.66-3.718-1.848l-2.332 2.222c1.32 1.562 3.234 2.662 6.006 2.662Z"/>
    <path id="s" d="M119.735 41.928c3.344 0 5.874-2.178 5.874-5.324v-.044c0-3.212-2.354-4.906-5.412-4.906-1.408 0-2.376.44-3.19.99.11-1.342.792-3.564 3.102-3.564 1.32 0 2.134.462 3.146 1.232l1.782-2.618c-1.364-1.078-2.728-1.694-4.818-1.694-4.598 0-6.754 3.652-6.754 8.404v.044c0 3.058.704 4.708 1.826 5.83 1.078 1.078 2.442 1.65 4.444 1.65Zm-.132-2.904c-1.672 0-2.684-.99-2.684-2.288v-.044c0-1.298.968-2.222 2.64-2.222 1.672 0 2.684.946 2.684 2.244v.044c0 1.32-.968 2.266-2.64 2.266Z"/>
    <path id="t" d="M134.849 41.928c4.114 0 6.864-3.498 6.864-7.964v-.044c0-4.466-2.75-7.92-6.82-7.92-4.092 0-6.864 3.498-6.864 7.964v.044c0 4.466 2.706 7.92 6.82 7.92Zm.044-3.058c-2.046 0-3.388-2.09-3.388-4.906v-.044c0-2.816 1.32-4.862 3.344-4.862s3.388 2.112 3.388 4.906v.044c0 2.794-1.298 4.862-3.344 4.862Z"/>
    <path id="u" d="M145.299 44.766c4.048-2.2 6.094-5.192 6.094-9.416s-2.046-7.216-6.094-9.416l-1.474 2.222c2.97 2.068 4.246 4.092 4.246 7.194 0 3.102-1.276 5.126-4.246 7.194l1.474 2.222Z"/>
    <path id="v" d="M4.686 16.06h3.388V3.784h4.686V.66H0v3.124h4.686z"/>
    <path id="w" d="M20.592 16.324c2.134 0 3.718-.836 4.818-2.2l-1.914-1.694c-.924.858-1.738 1.21-2.86 1.21-1.496 0-2.552-.792-2.882-2.31h8.206c.022-.308.044-.616.044-.88 0-3.344-1.804-6.402-5.742-6.402-3.432 0-5.83 2.772-5.83 6.138v.044c0 3.608 2.618 6.094 6.16 6.094ZM17.71 9.24c.264-1.518 1.166-2.508 2.552-2.508 1.408 0 2.288 1.012 2.486 2.508H17.71Z"/>
    <path id="x" d="M28.49 16.06h3.344v-4.356c0-2.816 1.364-4.158 3.586-4.158h.176V4.048c-1.98-.088-3.08.968-3.762 2.596V4.268H28.49V16.06Z"/>
    <path id="y" d="M37.686 19.58h3.344v-5.06c.792.946 1.892 1.76 3.674 1.76 2.794 0 5.368-2.156 5.368-6.094v-.044c0-3.938-2.618-6.094-5.368-6.094-1.738 0-2.86.814-3.674 1.914V4.268h-3.344V19.58Zm6.16-6.138c-1.562 0-2.86-1.298-2.86-3.256v-.044c0-1.958 1.298-3.256 2.86-3.256 1.562 0 2.882 1.298 2.882 3.256v.044c0 1.98-1.32 3.256-2.882 3.256Z"/>
    <path id="z" d="M58.322 16.324c3.674 0 6.402-2.75 6.402-6.138v-.044c0-3.388-2.706-6.094-6.358-6.094-3.674 0-6.402 2.75-6.402 6.138v.044c0 3.388 2.706 6.094 6.358 6.094Zm.044-2.882c-1.848 0-3.102-1.518-3.102-3.256v-.044c0-1.738 1.144-3.212 3.058-3.212 1.848 0 3.102 1.518 3.102 3.256v.044c0 1.738-1.144 3.212-3.058 3.212Z"/>
    <path id="A" d="M71.28 16.28c2.552 0 4.51-1.188 4.51-3.806v-.044c0-2.156-1.914-2.948-3.564-3.498-1.276-.44-2.398-.748-2.398-1.408V7.48c0-.462.418-.814 1.232-.814.858 0 2.024.418 3.19 1.1l1.276-2.31c-1.276-.858-2.904-1.364-4.4-1.364-2.376 0-4.312 1.342-4.312 3.74v.044c0 2.288 1.87 3.058 3.52 3.542 1.298.396 2.442.638 2.442 1.364v.044c0 .528-.44.88-1.408.88-1.1 0-2.442-.484-3.718-1.408l-1.43 2.2c1.562 1.232 3.41 1.782 5.06 1.782Z"/>
    <path id="B" d="M90.376 16.324c2.134 0 3.718-.836 4.818-2.2L93.28 12.43c-.924.858-1.738 1.21-2.86 1.21-1.496 0-2.552-.792-2.882-2.31h8.206c.022-.308.044-.616.044-.88 0-3.344-1.804-6.402-5.742-6.402-3.432 0-5.83 2.772-5.83 6.138v.044c0 3.608 2.618 6.094 6.16 6.094ZM87.494 9.24c.264-1.518 1.166-2.508 2.552-2.508 1.408 0 2.288 1.012 2.486 2.508h-5.038Z"/>
    <path id="C" d="M102.256 16.258c1.122 0 1.936-.264 2.64-.682v-2.684c-.484.264-1.034.418-1.65.418-.748 0-1.078-.374-1.078-1.144V7.128h2.772v-2.86h-2.772V1.254h-3.344v3.014h-1.408v2.86h1.408v5.588c0 2.728 1.386 3.542 3.432 3.542Z"/>
    <path id="D" d="M117.348 16.28c1.628 0 2.75-.594 3.564-1.496v1.276h3.234V9.218c0-1.584-.396-2.882-1.276-3.762-.836-.836-2.156-1.32-3.982-1.32-2.002 0-3.278.374-4.576.946l.836 2.552c1.078-.396 1.98-.638 3.256-.638 1.672 0 2.53.77 2.53 2.156v.198c-.836-.286-1.694-.484-2.882-.484-2.794 0-4.752 1.188-4.752 3.762v.044c0 2.332 1.826 3.608 4.048 3.608Zm1.012-2.31c-1.078 0-1.826-.528-1.826-1.43v-.044c0-1.056.88-1.628 2.31-1.628.814 0 1.562.176 2.134.44v.594c0 1.21-1.056 2.068-2.618 2.068Z"/>
    <path id="E" d="M127.182 16.06h3.344V0h-3.344z"/>
    <path id="F" d="m29.084 45.162 1.474-2.222c-2.97-2.068-4.246-4.092-4.246-7.194 0-3.102 1.276-5.126 4.246-7.194l-1.474-2.222c-4.048 2.2-6.094 5.192-6.094 9.416s2.046 7.216 6.094 9.416Z"/>
    <path id="G" d="M33.33 42.06h3.344v-9.79l7.458 9.79h2.882v-15.4H43.67v9.482l-7.216-9.482H33.33z"/>
    <path id="H" d="M50.468 32.974h10.868v-3.036H50.468v3.036Zm0 5.72h10.868v-3.036H50.468v3.036Z"/>
    <path id="I" d="M66.858 42.06h3.344V26.55h-2.31l-4.422 1.32.704 2.772 2.684-.66z"/>
    <path id="J" d="M78.936 42.324c3.542 0 5.852-2.068 5.852-5.324v-.044c0-3.476-2.398-4.928-5.39-4.928-.858 0-1.408.11-2.024.264l.176-2.662h6.556v-2.97h-9.46l-.44 7.59 1.958 1.298c.726-.308 1.606-.572 2.574-.572 1.606 0 2.728.77 2.728 2.09v.044c0 1.364-.99 2.134-2.574 2.134-1.364 0-2.508-.616-3.674-1.672l-2.046 2.442c1.496 1.43 3.3 2.31 5.764 2.31Z"/>
    <path id="K" d="M92.796 42.324c3.542 0 5.852-2.068 5.852-5.324v-.044c0-3.476-2.398-4.928-5.39-4.928-.858 0-1.408.11-2.024.264l.176-2.662h6.556v-2.97h-9.46l-.44 7.59 1.958 1.298c.726-.308 1.606-.572 2.574-.572 1.606 0 2.728.77 2.728 2.09v.044c0 1.364-.99 2.134-2.574 2.134-1.364 0-2.508-.616-3.674-1.672l-2.046 2.442c1.496 1.43 3.3 2.31 5.764 2.31Z"/>
    <path id="L" d="M102.344 45.162c4.048-2.2 6.094-5.192 6.094-9.416s-2.046-7.216-6.094-9.416l-1.474 2.222c2.97 2.068 4.246 4.092 4.246 7.194 0 3.102-1.276 5.126-4.246 7.194l1.474 2.222Z"/>
    <path id="M" d="M0 16.984h3.388v-6.182h6.248v6.182h3.388v-15.4H9.636v6.094H3.388V1.584H0z"/>
    <path id="N" d="M19.712 17.204c1.628 0 2.75-.594 3.564-1.496v1.276h3.234v-6.842c0-1.584-.396-2.882-1.276-3.762-.836-.836-2.156-1.32-3.982-1.32-2.002 0-3.278.374-4.576.946l.836 2.552c1.078-.396 1.98-.638 3.256-.638 1.672 0 2.53.77 2.53 2.156v.198c-.836-.286-1.694-.484-2.882-.484-2.794 0-4.752 1.188-4.752 3.762v.044c0 2.332 1.826 3.608 4.048 3.608Zm1.012-2.31c-1.078 0-1.826-.528-1.826-1.43v-.044c0-1.056.88-1.628 2.31-1.628.814 0 1.562.176 2.134.44v.594c0 1.21-1.056 2.068-2.618 2.068Zm-.44-11h2.464L20.306 0l-2.882 1.254 2.86 2.64Z"/>
    <path id="O" d="M29.458 3.894h3.52V.924h-3.52v2.97Zm-.352 16.676c2.464 0 3.784-1.188 3.784-3.784V5.192h-3.344v11.33c0 .99-.484 1.364-1.188 1.364-.242 0-.44-.022-.704-.066v2.618c.462.088.836.132 1.452.132Z"/>
    <path id="P" d="M41.624 17.248c2.134 0 3.718-.836 4.818-2.2l-1.914-1.694c-.924.858-1.738 1.21-2.86 1.21-1.496 0-2.552-.792-2.882-2.31h8.206c.022-.308.044-.616.044-.88 0-3.344-1.804-6.402-5.742-6.402-3.432 0-5.83 2.772-5.83 6.138v.044c0 3.608 2.618 6.094 6.16 6.094Zm-2.882-7.084c.264-1.518 1.166-2.508 2.552-2.508 1.408 0 2.288 1.012 2.486 2.508h-5.038Z"/>
    <path id="Q" d="M49.522 16.984h3.344v-3.586l1.188-1.254 3.014 4.84h3.872l-4.642-7.15 4.488-4.642h-4.004l-3.916 4.29V.924h-3.344z"/>
    <path id="R" d="M74.734 17.248c2.134 0 3.718-.836 4.818-2.2l-1.914-1.694c-.924.858-1.738 1.21-2.86 1.21-1.496 0-2.552-.792-2.882-2.31h8.206c.022-.308.044-.616.044-.88 0-3.344-1.804-6.402-5.742-6.402-3.432 0-5.83 2.772-5.83 6.138v.044c0 3.608 2.618 6.094 6.16 6.094Zm-2.882-7.084c.264-1.518 1.166-2.508 2.552-2.508 1.408 0 2.288 1.012 2.486 2.508h-5.038Z"/>
    <path id="S" d="M86.614 17.182c1.122 0 1.936-.264 2.64-.682v-2.684c-.484.264-1.034.418-1.65.418-.748 0-1.078-.374-1.078-1.144V8.052h2.772v-2.86h-2.772V2.178h-3.344v3.014h-1.408v2.86h1.408v5.588c0 2.728 1.386 3.542 3.432 3.542Z"/>
    <path id="T" d="M101.706 17.204c1.628 0 2.75-.594 3.564-1.496v1.276h3.234v-6.842c0-1.584-.396-2.882-1.276-3.762-.836-.836-2.156-1.32-3.982-1.32-2.002 0-3.278.374-4.576.946l.836 2.552c1.078-.396 1.98-.638 3.256-.638 1.672 0 2.53.77 2.53 2.156v.198c-.836-.286-1.694-.484-2.882-.484-2.794 0-4.752 1.188-4.752 3.762v.044c0 2.332 1.826 3.608 4.048 3.608Zm1.012-2.31c-1.078 0-1.826-.528-1.826-1.43v-.044c0-1.056.88-1.628 2.31-1.628.814 0 1.562.176 2.134.44v.594c0 1.21-1.056 2.068-2.618 2.068Z"/>
    <path id="U" d="M111.54 16.984h3.344V.924h-3.344z"/>
    <path id="V" d="m18.249 46.086 1.474-2.222c-2.97-2.068-4.246-4.092-4.246-7.194 0-3.102 1.276-5.126 4.246-7.194l-1.474-2.222c-4.048 2.2-6.094 5.192-6.094 9.416s2.046 7.216 6.094 9.416Z"/>
    <path id="W" d="M22.495 42.984h3.344v-9.79l7.458 9.79h2.882v-15.4h-3.344v9.482l-7.216-9.482h-3.124z"/>
    <path id="X" d="M39.633 33.898h10.868v-3.036H39.633v3.036Zm0 5.72h10.868v-3.036H39.633v3.036Z"/>
    <path id="Y" d="M53.185 42.984h11.396v-2.926h-6.71l2.508-1.936c2.728-2.112 4.048-3.388 4.048-5.962v-.044c0-2.882-2.112-4.752-5.302-4.752-2.75 0-4.224 1.122-5.742 3.19l2.376 1.914c1.144-1.408 1.958-2.068 3.146-2.068 1.21 0 2.068.704 2.068 2.002 0 1.276-.748 2.112-2.662 3.696L53.185 40.3v2.684Z"/>
    <path id="Z" d="M73.271 43.248c3.344 0 5.874-2.178 5.874-5.324v-.044c0-3.212-2.354-4.906-5.412-4.906-1.408 0-2.376.44-3.19.99.11-1.342.792-3.564 3.102-3.564 1.32 0 2.134.462 3.146 1.232l1.782-2.618c-1.364-1.078-2.728-1.694-4.818-1.694-4.598 0-6.754 3.652-6.754 8.404v.044c0 3.058.704 4.708 1.826 5.83 1.078 1.078 2.442 1.65 4.444 1.65Zm-.132-2.904c-1.672 0-2.684-.99-2.684-2.288v-.044c0-1.298.968-2.222 2.64-2.222 1.672 0 2.684.946 2.684 2.244v.044c0 1.32-.968 2.266-2.64 2.266Z"/>
    <path id="aa" d="M87.219 43.248c3.432 0 5.544-2.134 5.544-5.038v-.044c0-2.86-2.046-3.96-4.136-4.312l3.894-3.718v-2.552H82.115v2.904h6.05l-3.674 3.696.528 2.156h1.408c1.892 0 3.014.704 3.014 1.958v.044c0 1.144-.902 1.87-2.178 1.87-1.562 0-2.662-.66-3.718-1.848l-2.332 2.222c1.32 1.562 3.234 2.662 6.006 2.662Z"/>
    <path id="ab" d="M96.437 46.086c4.048-2.2 6.094-5.192 6.094-9.416s-2.046-7.216-6.094-9.416l-1.474 2.222c2.97 2.068 4.246 4.092 4.246 7.194 0 3.102-1.276 5.126-4.246 7.194l1.474 2.222Z"/>
    <path id="ac" d="M0 17.4866943h3.322V7.49869434l4.29 6.51199996H7.7l4.334-6.57799996V17.4866943H15.4V2.08669434h-3.652l-4.048 6.512-4.048-6.512H0z"/>
    <path id="ad" d="M18.81 4.39669434h3.52v-2.97h-3.52v2.97Zm.088 13.08999996h3.344V5.69469434h-3.344V17.4866943Z"/>
    <path id="ae" d="M25.388 17.4866943h3.344v-6.578c0-1.58399996.814-2.39799996 2.09-2.39799996 1.276 0 2.024.814 2.024 2.39799996v6.578h3.344V9.85269434c0-2.706-1.474-4.378-4.004-4.378-1.694 0-2.684.902-3.454 1.892v-1.672h-3.344V17.4866943Z"/>
    <path id="af" d="M42.438 17.7066943c1.628 0 2.75-.594 3.564-1.496v1.276h3.234v-6.842c0-1.58399996-.396-2.88199996-1.276-3.76199996-.836-.836-2.156-1.32-3.982-1.32-2.002 0-3.278.374-4.576.946l.836 2.552c1.078-.396 1.98-.638 3.256-.638 1.672 0 2.53.77 2.53 2.15599996v.198c-.836-.286-1.694-.484-2.882-.484-2.794 0-4.752 1.188-4.752 3.762v.044c0 2.332 1.826 3.608 4.048 3.608Zm1.012-2.31c-1.078 0-1.826-.528-1.826-1.43v-.044c0-1.056.88-1.628 2.31-1.628.814 0 1.562.176 2.134.44v.594c0 1.21-1.056 2.068-2.618 2.068Z"/>
    <path id="ag" d="M52.118 17.4866943h3.344v-4.356c0-2.816 1.364-4.15799996 3.586-4.15799996h.176v-3.498c-1.98-.088-3.08.968-3.762 2.596v-2.376h-3.344V17.4866943Z"/>
    <path id="ah" d="M61.38 4.39669434h3.52v-2.97h-3.52v2.97Zm.088 13.08999996h3.344V5.69469434h-3.344V17.4866943Z"/>
    <path id="ai" d="M67.958 17.4866943h3.344v-3.586l1.188-1.254 3.014 4.84h3.872l-4.642-7.15 4.488-4.64199996h-4.004l-3.916 4.29v-8.558h-3.344z"/>
    <path id="aj" d="M93.17 17.7506943c2.134 0 3.718-.836 4.818-2.2l-1.914-1.694c-.924.858-1.738 1.21-2.86 1.21-1.496 0-2.552-.792-2.882-2.31h8.206c.022-.308.044-.616.044-.88 0-3.34399996-1.804-6.40199996-5.742-6.40199996-3.432 0-5.83 2.772-5.83 6.13799996v.044c0 3.608 2.618 6.094 6.16 6.094Zm-2.882-7.084c.264-1.51799996 1.166-2.50799996 2.552-2.50799996 1.408 0 2.288 1.012 2.486 2.50799996h-5.038Z"/>
    <path id="ak" d="M105.05 17.6846943c1.122 0 1.936-.264 2.64-.682v-2.684c-.484.264-1.034.418-1.65.418-.748 0-1.078-.374-1.078-1.144V8.55469434h2.772v-2.86h-2.772v-3.014h-3.344v3.014h-1.408v2.86h1.408v5.58799996c0 2.728 1.386 3.542 3.432 3.542Z"/>
    <path id="al" d="M120.142 17.7066943c1.628 0 2.75-.594 3.564-1.496v1.276h3.234v-6.842c0-1.58399996-.396-2.88199996-1.276-3.76199996-.836-.836-2.156-1.32-3.982-1.32-2.002 0-3.278.374-4.576.946l.836 2.552c1.078-.396 1.98-.638 3.256-.638 1.672 0 2.53.77 2.53 2.15599996v.198c-.836-.286-1.694-.484-2.882-.484-2.794 0-4.752 1.188-4.752 3.762v.044c0 2.332 1.826 3.608 4.048 3.608Zm1.012-2.31c-1.078 0-1.826-.528-1.826-1.43v-.044c0-1.056.88-1.628 2.31-1.628.814 0 1.562.176 2.134.44v.594c0 1.21-1.056 2.068-2.618 2.068Z"/>
    <path id="am" d="M129.976 17.4866943h3.344V1.42669434h-3.344z"/>
    <path id="an" d="M141.361602 3.72619629h-2.336426v5.76049805h-1.30249V3.72619629h-2.356568V2.44384766h2.356568V0h1.30249v2.44384766h2.336426z"/>
    <path id="ao" d="m34.9672168 46.5886943 1.474-2.222c-2.97-2.068-4.246-4.092-4.246-7.194 0-3.102 1.276-5.126 4.246-7.194l-1.474-2.222c-4.048 2.2-6.094 5.192-6.094 9.416s2.046 7.216 6.094 9.416Z"/>
    <path id="ap" d="M39.2132168 43.4866943h3.344v-9.79l7.458 9.79h2.882v-15.4h-3.344v9.482l-7.216-9.482h-3.124z"/>
    <path id="aq" d="M56.3512168 34.4006943h10.868v-3.036h-10.868v3.036Zm0 5.72h10.868v-3.036h-10.868v3.036Z"/>
    <path id="ar" d="M72.7412168 43.4866943h3.344v-15.51h-2.31l-4.422 1.32.704 2.772 2.684-.66z"/>
    <path id="as" d="M82.0252168 43.4866943h3.344v-15.51h-2.31l-4.422 1.32.704 2.772 2.684-.66z"/>
    <path id="at" d="M96.1492168 43.4866943h3.234v-3.322h2.0680002v-2.75h-2.0680002v-9.438h-2.86l-8.448 9.79.55 2.398h7.524v3.322Zm-4.092-6.072 4.092-4.796v4.796h-4.092Z"/>
    <path id="au" d="M104.949217 46.5886943c4.048-2.2 6.094-5.192 6.094-9.416s-2.046-7.216-6.094-9.416l-1.474 2.222c2.97 2.068 4.246 4.092 4.246 7.194 0 3.102-1.276 5.126-4.246 7.194l1.474 2.222Z"/>
    <path id="av" d="M6.498 14.262c2.772 0 4.374-1.206 5.562-2.844L9.432 9.546c-.756.918-1.53 1.53-2.844 1.53-1.764 0-3.006-1.476-3.006-3.366v-.036c0-1.836 1.242-3.348 3.006-3.348 1.206 0 2.034.594 2.754 1.476l2.628-2.034c-1.116-1.53-2.772-2.61-5.346-2.61C2.808 1.158 0 4.038 0 7.71v.036c0 3.762 2.898 6.516 6.498 6.516Z"/>
    <path id="aw" d="M13.464 14.01h3.402V.87h-3.402z"/>
    <path id="ax" d="M18.81 3.39h3.546V.87H18.81v2.52Zm.072 10.62h3.402V4.272h-3.402v9.738Z"/>
    <path id="ay" d="M24.21 14.01h3.42V8.736c0-1.08.612-1.656 1.44-1.656s1.386.576 1.386 1.656v5.274h3.402V7.638c0-2.214-1.242-3.582-3.312-3.582-1.386 0-2.286.774-2.916 1.584V4.272h-3.42v9.738Z"/>
    <path id="az" d="M35.64 3.39h3.546V.87H35.64v2.52Zm.072 10.62h3.402V4.272h-3.402v9.738Z"/>
    <path id="aA" d="M45.756 14.244c2.124 0 3.42-.9 4.32-2.232l-2.286-1.656c-.522.63-1.044 1.008-1.872 1.008-1.152 0-1.944-.954-1.944-2.214v-.036c0-1.188.81-2.178 1.926-2.178.81 0 1.332.396 1.818 1.026l2.304-1.728c-.828-1.296-2.16-2.16-4.158-2.16-3.078 0-5.202 2.322-5.202 5.076v.036c0 2.754 2.142 5.058 5.094 5.058Z"/>
    <path id="aB" d="M54.072 14.226c1.278 0 2.196-.504 2.88-1.242v1.026h3.366V8.412c0-1.368-.306-2.376-1.044-3.096-.774-.774-1.962-1.188-3.708-1.188-1.674 0-2.844.306-3.942.756l.702 2.394c.882-.324 1.674-.54 2.7-.54 1.314 0 1.944.576 1.944 1.602v.162c-.558-.216-1.44-.378-2.34-.378-2.286 0-3.816 1.026-3.816 3.06v.036c0 1.926 1.404 3.006 3.258 3.006Zm1.224-2.142c-.702 0-1.206-.396-1.206-1.062v-.036c0-.738.576-1.206 1.566-1.206.504 0 .99.108 1.35.252v.45c0 .972-.702 1.602-1.71 1.602Z"/>
    <path id="aC" d="M62.154 14.01h3.402V.87h-3.402z"/>
    <path id="aD" d="M75.744 14.01h3.492V4.47h3.78V1.41H71.982v3.06h3.762z"/>
    <path id="aE" d="M84.348 14.01h3.42v-3.042c0-2.232 1.008-3.258 2.79-3.258h.288v-3.6c-1.62-.072-2.52.792-3.078 2.124V4.272h-3.42v9.738Z"/>
    <path id="aF" d="M92.07 3.39h3.546V.87H92.07v2.52Zm.072 10.62h3.402V4.272h-3.402v9.738Z"/>
    <path id="aG" d="M100.26 14.226c1.278 0 2.196-.504 2.88-1.242v1.026h3.366V8.412c0-1.368-.306-2.376-1.044-3.096-.774-.774-1.962-1.188-3.708-1.188-1.674 0-2.844.306-3.942.756l.702 2.394c.882-.324 1.674-.54 2.7-.54 1.314 0 1.944.576 1.944 1.602v.162c-.558-.216-1.44-.378-2.34-.378-2.286 0-3.816 1.026-3.816 3.06v.036c0 1.926 1.404 3.006 3.258 3.006Zm1.224-2.142c-.702 0-1.206-.396-1.206-1.062v-.036c0-.738.576-1.206 1.566-1.206.504 0 .99.108 1.35.252v.45c0 .972-.702 1.602-1.71 1.602Z"/>
    <path id="aH" d="M108.342 14.01h3.402V.87h-3.402z"/>
    <path id="aI" d="M114.58575 8.01h2.14875V.07875h-1.58625l-2.30625.6525.41625 1.6875 1.3275-.315z"/>
    <path id="aJ" d="M117.9045 9.86625c1.395-.045 2.30625-.61875 2.30625-2.28375V5.79375h-2.21625V7.9875h.855c.03375.6075-.37125.97875-1.125 1.0575l.18.82125Z"/>
    <path id="aK" d="M121.06575 8.01h6.2325V6.2325H124.047l1.35-.945c1.17-.84375 1.8225-1.49625 1.8225-2.75625v-.0225c0-1.485-1.18125-2.50875-2.9025-2.50875-1.51875 0-2.3625.59625-3.20625 1.6875l1.47375 1.22625c.61875-.70875 1.035-1.02375 1.56375-1.02375.54 0 .88875.30375.88875.81 0 .4725-.2925.84375-1.02375 1.4175l-2.9475 2.25V8.01Z"/>
  </defs>
  <g fill="none" fill-rule="evenodd">
    <path stroke="#8A8A8A" stroke-opacity=".3" d="M75.9999996 41.50000012H1089.999997M75.9999996 133.5000001H1089.999997m-1013.9999974-46H1089.999997M75.9999996 180.5H1089.999997m-1013.9999974 45H1089.999997m-1013.9999974 45H1089.999997"/>
    <path stroke="#8A8A8A" d="M75.9999996 41.50000012V316.5H1089.999997"/>
    <path fill="#444" fill-rule="nonzero" d="M47.8038845 38.00390638c0 .90494791-.26367188 1.65852864-.79101562 2.26074218-.52734376.60221354-1.26953126 1.00748698-2.2265625 1.21582032v.078125c1.14583333.14322916 2.00520833.49967447 2.578125 1.06933593.57291666.56966146.859375 1.3264974.859375 2.27050779 0 1.3736979-.48502605 2.4332683-1.45507813 3.178711-.97005208.7454427-2.35026042 1.118164-4.140625 1.118164-1.58203125 0-2.91666667-.2571614-4.00390625-.7714844v-2.0410156c.60546875.2994792 1.24674479.530599 1.92382812.6933594.67708334.1627604 1.328125.2441406 1.953125.2441406 1.10677084 0 1.93359376-.2050781 2.48046876-.6152344.546875-.4101562.8203125-1.0449218.8203125-1.9042968 0-.76171878-.30273438-1.32161461-.90820313-1.67968752-.60546875-.35807292-1.55598958-.53710938-2.8515625-.53710938h-1.24023437v-1.86523438H42.061697c2.27864583 0 3.41796875-.78776041 3.41796875-2.36328124 0-.61197917-.19856771-1.08398438-.59570313-1.41601563-.39713541-.33203125-.98307291-.49804687-1.7578125-.49804687-.54036458 0-1.06119791.07649739-1.5625.22949218-.50130208.15299479-1.09375.45084636-1.77734374.89355469l-1.12304688-1.6015625c1.30859375-.96354167 2.82877604-1.4453125 4.56054688-1.4453125 1.43880208 0 2.56184895.3092448 3.36914062.92773438.80729167.61848958 1.2109375 1.47135416 1.2109375 2.55859375Zm10.873125 3.85742187c0 2.48046875-.398763 4.32291665-1.1962891 5.52734375-.797526 1.2044271-2.0166015 1.8066406-3.6572265 1.8066406-1.5885417 0-2.7929688-.6217448-3.6132813-1.8652344-.8203125-1.2434895-1.2304687-3.0664062-1.2304687-5.46874995 0-2.51953125.398763-4.3766276 1.196289-5.57128906.7975261-1.19466146 2.0133464-1.79199219 3.647461-1.79199219 1.5950521 0 2.8027344.625 3.6230469 1.875s1.2304687 3.07942708 1.2304687 5.48828125Zm-7.3730469 0c0 1.94661458.2001953 3.33658855.600586 4.16992185.4003906.8333334 1.040039 1.25 1.9189453 1.25.8789062 0 1.5218099-.4231771 1.9287109-1.2695312.4069011-.8463542.6103516-2.22981773.6103516-4.15039065 0-1.9140625-.2034505-3.29915365-.6103516-4.15527344-.406901-.85611979-1.0498047-1.28417969-1.9287109-1.28417969-.8789063 0-1.5185547.41992188-1.9189453 1.25976563-.4003907.83984375-.600586 2.23307292-.600586 4.1796875Z"/>
    <path stroke="#8A8A8A" stroke-linecap="round" stroke-linejoin="round" stroke-opacity=".3" d="M76.4563845 41.50000012h-14"/>
    <path fill="#444" fill-rule="nonzero" d="M48.34099338 141.0000001H38.663259v-1.7382812l3.68164062-3.7011719c1.08723959-1.11328125 1.80826823-1.90266927 2.16308594-2.36816406.35481771-.46549479.61360677-.90332032.77636719-1.31347656.16276042-.41015626.24414063-.84960938.24414063-1.31835938 0-.64453125-.1936849-1.15234375-.58105469-1.5234375s-.92285157-.55664062-1.60644531-.55664062c-.546875 0-1.07584636.10091145-1.58691407.30273437-.51106771.20182292-1.10188802.56640625-1.77246094 1.09375l-1.24023437-1.51367188c.79427083-.67057291 1.56575521-1.14583333 2.31445312-1.42578125.74869792-.27994791 1.54622396-.41992187 2.39257813-.41992187 1.328125 0 2.39257813.34667969 3.19335937 1.04003906.80078126.69335938 1.20117188 1.62597657 1.20117188 2.79785157 0 .64453124-.1155599 1.25651041-.34667969 1.8359375-.23111979.57942708-.5859375 1.17675781-1.06445312 1.79199218-.47851563.61523438-1.27441407 1.44694011-2.38769531 2.49511719l-2.48046875 2.40234375v.0976563h6.77734375v2.0214843Zm10.33601562-7.13867185c0 2.48046875-.398763 4.32291665-1.1962891 5.52734375-.797526 1.2044271-2.0166015 1.8066406-3.6572265 1.8066406-1.5885417 0-2.7929688-.6217448-3.6132813-1.8652344-.8203125-1.2434895-1.2304687-3.0664062-1.2304687-5.46874995 0-2.51953125.398763-4.3766276 1.196289-5.57128906.7975261-1.19466146 2.0133464-1.79199219 3.647461-1.79199219 1.5950521 0 2.8027344.625 3.6230469 1.875s1.2304687 3.07942708 1.2304687 5.48828125Zm-7.3730469 0c0 1.94661458.2001953 3.33658855.600586 4.16992185.4003906.8333334 1.040039 1.25 1.9189453 1.25.8789062 0 1.5218099-.4231771 1.9287109-1.2695312.4069011-.8463542.6103516-2.22981773.6103516-4.15039065 0-1.9140625-.2034505-3.29915365-.6103516-4.15527344-.406901-.85611979-1.0498047-1.28417969-1.9287109-1.28417969-.8789063 0-1.5185547.41992188-1.9189453 1.25976563-.4003907.83984375-.600586 2.23307292-.600586 4.1796875ZM48.34099338 94.9999999H38.663259v-1.7382813l3.68164062-3.70117185c1.08723959-1.11328125 1.80826823-1.90266927 2.16308594-2.36816406.35481771-.46549479.61360677-.90332031.77636719-1.31347657.16276042-.41015624.24414063-.84960937.24414063-1.31835937 0-.64453125-.1936849-1.15234375-.58105469-1.5234375s-.92285157-.55664063-1.60644531-.55664063c-.546875 0-1.07584636.10091146-1.58691407.30273438-.51106771.20182292-1.10188802.56640625-1.77246094 1.09375L38.741384 82.36328112c.79427083-.67057291 1.56575521-1.14583333 2.31445312-1.42578124.74869792-.27994792 1.54622396-.41992188 2.39257813-.41992188 1.328125 0 2.39257813.34667969 3.19335937 1.04003906.80078126.69335938 1.20117188 1.62597656 1.20117188 2.79785157 0 .64453125-.1155599 1.25651041-.34667969 1.83593749-.23111979.57942709-.5859375 1.17675782-1.06445312 1.79199219-.47851563.61523438-1.27441407 1.44694011-2.38769531 2.49511719l-2.48046875 2.4023437v.0976563h6.77734375v2.0214844Zm5.50203122-8.91601565c1.4388021 0 2.578125.38085937 3.4179688 1.14257813.8398437.76171874 1.2597656 1.8001302 1.2597656 3.11523437 0 1.52343745-.476888 2.71321615-1.4306641 3.56933595-.953776.8561198-2.3095703 1.2841797-4.0673828 1.2841797-1.5950521 0-2.8483073-.2571615-3.7597656-.7714844v-2.0800781c.5273438.2994791 1.1328125.5305989 1.8164063.6933593.6835937.1627605 1.3183593.2441407 1.9042968.2441407 1.0351563 0 1.8229167-.2311198 2.3632813-.6933594.5403646-.4622396.8105469-1.1393229.8105469-2.03125 0-1.70572917-1.0872396-2.55859375-3.2617188-2.55859375-.3059896 0-.6835937.03092448-1.1328125.09277344-.4492187.06184896-.843099.13183593-1.1816406.20996093l-1.0253906-.60546874.546875-6.97265626h7.421875v2.04101563h-5.4003907L51.802009 86.298828c.2278646-.0390625.5061849-.08463542.8349609-.13671875.3287761-.05208333.7307943-.078125 1.2060547-.078125Z"/>
    <path stroke="#8A8A8A" stroke-linecap="round" stroke-linejoin="round" stroke-opacity=".3" d="M76.456384 133.4999999h-14m14-46.00000002h-14"/>
    <path fill="#444" fill-rule="nonzero" d="M45.40154025 187.9999998h-2.29492188v-9.21875005c0-1.10026042.02604167-1.97265625.07812501-2.6171875-.14973959.15625-.33365886.32877604-.55175782.51757813-.21809896.18880208-.94889323.78776041-2.19238281 1.796875l-1.15234375-1.45507813 4.19921875-3.30078125h1.9140625v14.2773438Zm8.44148435-8.91601568c1.4388021 0 2.578125.38085938 3.4179688 1.14257813.8398437.76171875 1.2597656 1.80013021 1.2597656 3.11523437 0 1.52343748-.476888 2.71321618-1.4306641 3.56933598-.953776.8561198-2.3095703 1.2841796-4.0673828 1.2841796-1.5950521 0-2.8483073-.2571614-3.7597656-.7714843v-2.0800781c.5273438.2994791 1.1328125.5305989 1.8164063.6933593.6835937.1627604 1.3183593.2441407 1.9042968.2441407 1.0351563 0 1.8229167-.2311198 2.3632813-.6933594.5403646-.4622396.8105469-1.1393229.8105469-2.03125002 0-1.70572917-1.0872396-2.55859376-3.2617188-2.55859376-.3059896 0-.6835937.03092448-1.1328125.09277344-.4492187.06184896-.843099.13183594-1.1816406.20996094l-1.0253906-.60546875.546875-6.97265625h7.421875v2.04101562h-5.4003907l-.3222656 3.53515626c.2278646-.0390625.5061849-.08463542.8349609-.13671876.3287761-.05208333.7307943-.078125 1.2060547-.078125Z"/>
    <path stroke="#8A8A8A" stroke-linecap="round" stroke-linejoin="round" stroke-opacity=".3" d="M76.456384 180.49999975h-14"/>
    <path fill="#444" fill-rule="nonzero" d="M45.40154025 233.0000001h-2.29492188v-9.21874998c0-1.10026041.02604167-1.97265624.07812501-2.6171875-.14973959.15625-.33365886.32877605-.55175782.51757813-.21809896.18880208-.94889323.78776042-2.19238281 1.796875l-1.15234375-1.45507813 4.19921875-3.30078125h1.9140625v14.27734373Zm13.27546875-7.13867185c0 2.48046875-.398763 4.32291665-1.1962891 5.52734375-.797526 1.2044271-2.0166015 1.8066406-3.6572265 1.8066406-1.5885417 0-2.7929688-.6217448-3.6132813-1.8652344-.8203125-1.2434895-1.23046872-3.0664062-1.23046872-5.46874995 0-2.51953125.39876302-4.3766276 1.19628902-5.57128906.7975261-1.19466146 2.0133464-1.79199219 3.647461-1.79199219 1.5950521 0 2.8027344.625 3.6230469 1.875s1.2304687 3.07942708 1.2304687 5.48828125Zm-7.3730469 0c0 1.94661458.2001953 3.33658855.600586 4.16992185.4003906.8333334 1.040039 1.25 1.9189453 1.25.8789062 0 1.5218099-.4231771 1.9287109-1.2695312.4069011-.8463542.6103516-2.22981773.6103516-4.15039065 0-1.9140625-.2034505-3.29915365-.6103516-4.15527344-.406901-.85611979-1.0498047-1.28417969-1.9287109-1.28417969-.8789063 0-1.5185547.41992188-1.9189453 1.25976563-.4003907.83984375-.600586 2.23307292-.600586 4.1796875Z"/>
    <path stroke="#8A8A8A" stroke-linecap="round" stroke-linejoin="round" stroke-opacity=".3" d="M76.456384 225.50000012h-14"/>
    <path fill="#444" fill-rule="nonzero" d="M53.84302512 269.08398412c1.43880209 0 2.57812501.38085938 3.41796876 1.14257813.83984374.76171875 1.25976562 1.80013021 1.25976562 3.11523437 0 1.52343748-.47688802 2.71321618-1.43066406 3.56933598-.95377604.8561198-2.30957032 1.2841796-4.06738282 1.2841796-1.59505208 0-2.84830729-.2571614-3.75976562-.7714843v-2.0800781c.52734375.2994791 1.1328125.5305989 1.81640625.6933593.68359375.1627604 1.31835937.2441407 1.90429687.2441407 1.03515626 0 1.82291667-.2311198 2.36328126-.6933594.54036458-.4622396.81054687-1.1393229.81054687-2.03125002 0-1.70572917-1.08723958-2.55859376-3.26171875-2.55859376-.30598958 0-.68359375.03092448-1.1328125.09277344-.44921875.06184896-.84309896.13183594-1.18164062.20996094l-1.02539063-.60546875.546875-6.97265625h7.421875v2.04101562h-5.40039063l-.32226562 3.53515626c.22786458-.0390625.5061849-.08463542.83496094-.13671876.32877604-.05208333.73079427-.078125 1.20605468-.078125Z"/>
    <path stroke="#8A8A8A" stroke-linecap="round" stroke-linejoin="round" stroke-opacity=".3" d="M76.4563845 270.49999975h-14"/>
    <path fill="#444" fill-rule="nonzero" d="M58.67700962 316.86132825c0 2.48046875-.39876302 4.32291665-1.19628906 5.52734375-.79752604 1.2044271-2.01660156 1.8066406-3.65722656 1.8066406-1.58854167 0-2.79296875-.6217448-3.61328125-1.8652344-.8203125-1.2434895-1.23046875-3.0664062-1.23046875-5.46874995 0-2.51953125.39876302-4.3766276 1.19628906-5.57128906.79752604-1.19466146 2.01334636-1.79199219 3.64746094-1.79199219 1.59505208 0 2.80273438.625 3.62304688 1.875s1.23046874 3.07942708 1.23046874 5.48828125Zm-7.37304687 0c0 1.94661458.20019531 3.33658855.60058594 4.16992185.40039062.8333334 1.04003906 1.25 1.91894531 1.25s1.5218099-.4231771 1.92871094-1.2695312c.40690104-.8463542.61035156-2.22981773.61035156-4.15039065 0-1.9140625-.20345052-3.29915365-.61035156-4.15527344-.40690104-.85611979-1.04980469-1.28417969-1.92871094-1.28417969s-1.51855469.41992188-1.91894531 1.25976563c-.40039063.83984375-.60058594 2.23307292-.60058594 4.1796875Z"/>
    <path stroke="#8A8A8A" stroke-linecap="round" stroke-linejoin="round" d="M76.4563846 316.50000012h-14"/>
    <path fill="#8A8A8A" fill-rule="nonzero" d="m17.4179695 273.519531-11.92382812 4.140625v.078125c1.77083333-.11067708 3.43098958-.16601562 4.98046874-.16601562h6.94335938v2.11914062H3.14062575v-3.29101562l11.35742185-3.96484376v-.05859374L3.14062575 268.2949216v-3.3007812H17.4179695v2.2460937h-7.06054688c-.70963541 0-1.63411458-.0179036-2.7734375-.0537109-1.13932291-.0358073-1.82942708-.0667318-2.0703125-.0927734v.078125l11.90429688 4.28710932v2.06054688Zm.1953125-16.7578125c0 1.6796875-.4899089 2.9931641-1.4697266 3.9404297-.9798177.9472656-2.3291015 1.4208984-4.04785152 1.4208984-1.76432292 0-3.15104167-.4394531-4.16015626-1.3183594-1.00911458-.8789062-1.51367187-2.0865885-1.51367187-3.6230468 0-1.4257813.43294271-2.5520834 1.29882813-3.3789063.86588541-.8268229 2.05729166-1.2402343 3.57421874-1.2402343H12.535157v7.1972656c1.0481771-.0325521 1.8538411-.3157552 2.4169922-.8496094.563151-.5338542.8447266-1.2858073.8447266-2.2558594 0-.6380208-.0602214-1.2320963-.1806641-1.7822265-.1204427-.5501302-.320638-1.1409506-.6005859-1.772461h1.8652343c.2669271.5598959.4557292 1.1263021.5664063 1.6992188.1106771.5729166.1660156 1.2272135.1660156 1.9628906Zm-9.453125.4199219c0 .7291666.23111979 1.3134765.69335938 1.7529297.46223958.4394531 1.1360677.7014974 2.02148437.7861328v-4.9023438c-.89192708.0130209-1.56738281.2278646-2.02636719.6445313-.45898437.4166666-.68847656.9895833-.68847656 1.71875Zm9.453125-10.8691406c0 1.3476562-.4882812 2.3990885-1.4648438 3.1542968-.9765624.7552084-2.3470052 1.1328125-4.11132808 1.1328125-1.77083333 0-3.14941406-.382487-4.13574218-1.1474609-.98632813-.764974-1.47949219-1.8245443-1.47949219-3.178711 0-1.4192708.52408854-2.5 1.57226563-3.2421874v-.1171876c-.77473959.1106771-1.38671876.1660157-1.83593751.1660157H2.222657v-2.3046875h15.1953125v1.796875l-1.4160156.4003906v.1074219c1.0742187.7356771 1.6113281 1.813151 1.6113281 3.2324219Zm-1.8554688-.6152344c0-.9440104-.2652994-1.6308594-.7958984-2.0605469-.5305989-.4296875-1.3916016-.6510417-2.5830078-.6640625h-.32226562c-1.36067709 0-2.32747396.2213542-2.90039063.6640625-.57291667.4427083-.859375 1.1360677-.859375 2.0800781 0 .8072917.32714844 1.4290365.98144531 1.8652344.65429688.4361979 1.58691406.6542969 2.79785156.6542969 1.19791668 0 2.11100258-.2115886 2.73925778-.6347657.6282552-.423177.9423828-1.0579427.9423828-1.9042968Zm1.6601563-10.4980469v2.2949219H6.61718825v-2.2949219H17.4179695Zm-13.66210938 2.4316406c-.41015624 0-.72591145-.1123047-.94726562-.336914-.22135417-.2246094-.33203125-.5452474-.33203125-.9619141 0-.4036458.11067708-.7177734.33203125-.9423828.22135417-.2246094.53710938-.3369141.94726562-.3369141.390625 0 .69824219.1123047.92285157.3369141.22460937.2246094.33691406.538737.33691406.9423828 0 .4166667-.11230469.7373047-.33691406.9619141-.22460938.2246093-.53222657.336914-.92285157.336914ZM17.4179695 225.160156l-1.5039063.4589844v.078125c.6575521.5208333 1.1051433 1.0449218 1.3427735 1.5722656.2376302.5273438.3564453 1.2044271.3564453 2.03125 0 1.0611979-.2864583 1.8896484-.859375 2.4853516-.5729167.5957031-1.3834635.8935546-2.4316406.8935546-1.1132813 0-1.953125-.4134114-2.51953128-1.2402343-.56640624-.8268229-.87565104-2.0865886-.92773437-3.7792969l-.05859375-1.8652344h-.57617188c-.69010416 0-1.20605468.1611328-1.54785156.4833985-.34179687.3222656-.51269531.8219401-.51269531 1.4990234 0 .5533854.08138021 1.0839844.24414063 1.5917969.16276041.5078125.3548177.9960937.57617187 1.4648437l-1.640625.7421875c-.30598958-.5859375-.53873698-1.2272135-.69824219-1.9238281-.15950521-.6966146-.23925781-1.3541667-.23925781-1.9726563 0-1.3736979.29947917-2.4104817.8984375-3.1103515.59895833-.6998698 1.53971354-1.0498047 2.82226563-1.0498047h7.27539062v1.640625Zm-1.5625 3.4179688c0-.8333334-.2327474-1.5022787-.6982422-2.006836-.4654948-.5045573-1.1181641-.7568359-1.9580078-.7568359h-.9375l.0585937 1.3867187c.0390626 1.0807292.2197266 1.866862.5419922 2.3583985.3222657.4915364.8154297.7373047 1.4794922.7373047.4817709 0 .8544922-.1432292 1.1181641-.4296876.2636719-.2864583.3955078-.7161458.3955078-1.2890624Zm1.5625-17.7636719v2.3046875h-6.640625c-.83333333 0-1.45507812.1676432-1.86523438.5029297-.41015624.3352864-.61523437.867513-.61523437 1.5966797 0 .970052.28645833 1.6796874.859375 2.1289062.57291667.4492188 1.53320313.6738281 2.88085937.6738281h5.38085938v2.2949219H6.61718825v-1.796875l1.41601563-.3222656v-.1171875c-.51432292-.3255209-.91145834-.7877604-1.19140626-1.3867188-.27994791-.5989583-.41992187-1.2630208-.41992187-1.9921875 0-2.5911458 1.31835937-3.8867187 3.95507813-3.8867187h7.04101562ZM7.457032 192.7285154c1.49088542 0 2.63346354.4882812 3.42773438 1.4648437.79427083.9765625 1.19140624 2.3665365 1.19140624 4.1699219v1.484375h5.34179688v2.3339844H3.14062575v-4.1113282c0-1.7838541.36458333-3.1201171 1.09375-4.008789.72916667-.8886719 1.80338542-1.3330078 3.22265625-1.3330078Zm2.65625 7.1191406v-1.2402344c0-1.1979166-.20833333-2.0768229-.625-2.6367187-.41666667-.5598959-1.06770833-.8398438-1.953125-.8398438-.8203125 0-1.43229167.2506511-1.8359375.7519531-.40364583.5013021-.60546875 1.2825521-.60546875 2.34375v1.6210938H10.113282Zm7.3046875-12.2851562v2.3144531H3.14062575v-8.0566407H5.113282v5.7421876h4.46289062v-5.3808594h1.98242188v5.3808594zM13.5410164 171c1.2695312 0 2.265625.458984 2.9882812 1.376953.7226563.917969 1.0839844 2.184245 1.0839844 3.798828 0 1.614583-.250651 2.936198-.7519531 3.9648438h-2.2070313c.3059896-.6510418.546875-1.3427738.7226563-2.0751958.1757812-.732421.2636719-1.414388.2636719-2.045898 0-.924479-.1757813-1.606445-.5273438-2.045898-.3515625-.439454-.8235677-.65918-1.4160156-.65918-.5338542 0-.9863282.201823-1.3574219.605469-.37109375.403645-.81054688 1.236979-1.31835938 2.5-.52734374 1.302083-1.12955729 2.220052-1.80664062 2.753906-.67708333.533854-1.49088542.8007811-2.44140625.8007811-1.19140625 0-2.12890625-.4231771-2.8125-1.2695311s-1.02539062-1.982422-1.02539062-3.408203c0-1.367188.29947916-2.727865.89843749-4.082031l1.90429688.742187c-.53385417 1.269531-.80078125 2.402344-.80078125 3.398437 0 .755209.16438802 1.328126.49316406 1.71875.32877604.390626.76334636.585938 1.30371094.585938.37109375 0 .68847656-.078125.95214844-.234375.26367187-.15625.51269531-.413411.74707031-.771484s.54361979-1.002605.92773438-1.933594c.43619791-1.048177.84309895-1.816406 1.22070312-2.304688.37760417-.488281.80403646-.846354 1.27929688-1.074218C12.3365893 171.113932 12.8964851 171 13.5410164 171Zm-1.60156252-6.875c-1.72526042 0-3.33984376-.252279-4.84375-.756836-1.50390626-.504557-2.82226563-1.232097-3.95507813-2.182617v-2.001953c1.22395833.904947 2.59602865 1.598307 4.11621094 2.080078 1.52018229.48177 3.07454427.722656 4.66308593.722656 1.58854168 0 3.12825518-.240886 4.61914058-.722656 1.4908855-.481771 2.8385417-1.16862 4.0429688-2.060547v1.982422c-1.1067708.957031-2.3990885 1.686198-3.8769531 2.1875-1.4778646.501302-3.0664063.751953-4.76562502.751953Zm5.47851562-13.59375-11.92382812 4.140625V154.75c1.77083333-.110677 3.43098958-.166016 4.98046874-.166016h6.94335938v2.119141H3.14062575v-3.291016l11.35742185-3.964844v-.058593L3.14062575 145.30664v-3.300781H17.4179695v2.246094h-7.06054688c-.70963541 0-1.63411458-.017904-2.7734375-.053711-1.13932291-.035807-1.82942708-.066732-2.0703125-.092774v.078126l11.90429688 4.287109v2.060547Zm-5.41992188-21.621094c1.76432288 0 3.14127608.452474 4.13085938 1.357422.9895833.904948 1.484375 2.164713 1.484375 3.779297 0 1.009114-.2278646 1.901041-.6835938 2.675781-.4557291.77474-1.110026 1.370443-1.9628906 1.787109-.8528646.416667-1.8424479.625-2.96874998.625-1.75130208 0-3.11848958-.449218-4.1015625-1.347656-.98307291-.898437-1.47460937-2.164713-1.47460937-3.798828 0-1.5625.50292969-2.799479 1.50878906-3.710937 1.00585938-.911459 2.36165365-1.367188 4.06738281-1.367188Zm0 7.861328c2.49348958 0 3.74023438-.921224 3.74023438-2.763672 0-1.822916-1.2467448-2.734375-3.74023438-2.734375-2.46744791 0-3.70117187.917969-3.70117187 2.753907 0 .963541.31901042 1.661783.95703125 2.094726.63802083.432943 1.55273438.649414 2.74414062.649414Zm5.41992188-20v2.304688h-6.640625c-.83333333 0-1.45507812.167643-1.86523438.502929-.41015624.335287-.61523437.867513-.61523437 1.59668 0 .970052.28645833 1.679687.859375 2.128906.57291667.449219 1.53320313.673828 2.88085937.673828h5.38085938v2.294922H6.61718825v-1.796875l1.41601563-.322265v-.117188c-.51432292-.325521-.91145834-.78776-1.19140626-1.386719-.27994791-.598958-.41992187-1.26302-.41992187-1.992187 0-2.591146 1.31835937-3.886719 3.95507813-3.886719h7.04101562Zm-1.6601563-7.216797c0-.559896-.0878906-1.119791-.2636718-1.679687h1.7285156c.1106771.253906.2034505.581054.2783203.981445.0748698.400391.1123047.81543.1123047 1.245117 0 2.174479-1.1458333 3.261719-3.4375 3.261719H8.3554695v1.474609h-1.015625l-.83984375-1.582031-2.28515625-.78125v-1.416015h2.40234375v-3.076172H8.3554695v3.076172h5.78125c.5533854 0 .9619141-.138347 1.2255859-.41504.2636719-.276692.3955078-.639648.3955078-1.088867Zm1.6601563-13.339843v2.304687h-6.640625c-.83333333 0-1.45507812.167643-1.86523438.50293-.41015624.335286-.61523437.867513-.61523437 1.596679 0 .963542.28808594 1.67155.86425781 2.124024.57617188.452474 1.54134115.678711 2.89550782.678711h5.36132812v2.294922H2.222657v-2.294922h3.85742187c.61848959 0 1.27929688.039062 1.98242188.117187v-.146484c-.52083333-.3125-.92447917-.74707-1.2109375-1.303711s-.4296875-1.206055-.4296875-1.948242c0-2.617188 1.31835937-3.925781 3.95507813-3.925781h7.04101562Zm-3.0761719-10.449219c1.0546875 0 1.8636068.384114 2.4267578 1.152343.5631511.76823.8447266 1.86849.8447266 3.300782 0 1.438802-.218099 2.594401-.6542969 3.466797h-1.9824219c.5859376-1.269532.8789063-2.451172.8789063-3.544922 0-1.412761-.4264323-2.119141-1.2792969-2.119141-.2734375 0-.5013021.078125-.6835937.234375-.1822917.15625-.3710938.413412-.5664063.771485-.1953125.358072-.4166666.856119-.6640625 1.49414-.48177081 1.24349-.96354164 2.084961-1.44531248 2.524414-.48177083.439453-1.10677083.65918-1.875.65918-.92447916 0-1.6422526-.372721-2.15332031-1.118164-.51106771-.745443-.76660156-1.75944-.76660156-3.041992 0-1.269532.25716146-2.470704.77148437-3.603516l1.72851563.742188c-.48177083 1.165364-.72265625 2.145182-.72265625 2.939453 0 1.210937.34505208 1.816406 1.03515625 1.816406.33854167 0 .625-.157878.859375-.473633s.55664063-1.004232.96679687-2.06543c.34505209-.891927.6608073-1.539713.94726563-1.943359.28645835-.403646.61686195-.703125.99121095-.898437.3743489-.195313.8219401-.292969 1.3427734-.292969Zm-2.40234372-6.376953c1.71223962 0 3.30729162.252278 4.78515622.756836 1.4778646.504557 2.7636719 1.232096 3.8574219 2.182617v1.982422c-1.2174479-.898438-2.5683594-1.586914-4.0527344-2.06543-1.484375-.478516-3.0208333-.717773-4.60937498-.717773-1.59505208 0-3.14941406.240885-4.66308593.722656-1.51367188.481771-2.88574219 1.17513-4.11621094 2.080078v-2.001953c1.13932292-.957031 2.4625651-1.686198 3.96972656-2.1875 1.50716146-.501302 3.11686198-.751953 4.82910157-.751953Z"/>
    <path fill="#E05C01" d="M158 124h105c2.209139 0 4 1.790861 4 4v188H154V128c0-2.209139 1.790861-4 4-4Z"/>
    <path fill="#006B9A" d="M409 63h105c2.209139 0 4 1.790861 4 4v250H405V67c0-2.209139 1.790861-4 4-4Zm224 59h105c2.209139 0 4 1.790861 4 4v191H629V126c0-2.209139 1.790861-4 4-4Zm219-13h105c2.209139 0 4 1.790861 4 4v204H848V113c0-2.209139 1.790861-4 4-4Z"/>
    <path fill="#FFF" fill-rule="nonzero" d="M201.3056642 227.0000001h-9.9804687v-2.0996093l3.58398438-3.62304692c1.06119791-1.08723959 1.75455729-1.84082032 2.08007812-2.26074219.32552083-.41992188.55989583-.80891927.703125-1.16699219.14322917-.35807292.21484375-.72916667.21484375-1.11328125 0-.57291667-.1578776-.99934896-.47363281-1.27929687-.31575521-.27994792-.73730469-.41992188-1.26464844-.41992188-.55338542 0-1.09049479.12695312-1.61132812.38085938-.52083334.25390624-1.06445313.61523437-1.63085938 1.08398437l-1.640625-1.94335937c.703125-.59895834 1.28580729-1.02213542 1.74804688-1.26953125.46223958-.24739584.96679687-.43782553 1.51367187-.57128907.546875-.13346354 1.15885417-.20019531 1.8359375-.20019531.89192708 0 1.6796875.16276042 2.36328125.48828125s1.21419271.78125 1.59179688 1.3671875c.37760416.5859375.56640624 1.25651042.56640624 2.01171875 0 .65755208-.11555989 1.27441406-.34667968 1.85058594-.23111979.57617187-.58919271 1.16699219-1.07421875 1.77246093-.48502604.60546876-1.33951823 1.46809896-2.56347657 2.58789058l-1.8359375 1.7285157v.1367187h6.22070308v2.5390625Zm11.3378907-7.13867185c0 2.49348958-.4085287 4.33919275-1.225586 5.53710935-.8170573 1.1979167-2.0751953 1.796875-3.774414 1.796875-1.6471354 0-2.8889974-.6184896-3.725586-1.8554687-.8365885-1.2369792-1.2548828-3.06315107-1.2548828-5.47851565 0-2.51953125.4069011-4.3766276 1.2207031-5.57128906.8138021-1.19466146 2.0670573-1.79199219 3.7597657-1.79199219 1.6471354 0 2.8922526.625 3.7353515 1.875.843099 1.25 1.2646485 3.07942708 1.2646485 5.48828125Zm-6.9824219 0c0 1.75130208.1513672 3.00618485.4541016 3.76464845.3027343.7584635.8121744 1.1376953 1.5283203 1.1376953.703125 0 1.2109375-.3841146 1.5234375-1.1523438.3125-.7682291.46875-2.01822912.46875-3.74999995 0-1.75130208-.1578776-3.0094401-.4736328-3.77441406-.3157552-.76497396-.8219401-1.14746094-1.5185547-1.14746094-.7096354 0-1.2174479.38248698-1.5234375 1.14746094-.3059896.76497396-.4589844 2.02311198-.4589844 3.77441406Zm8.8378906 5.74218755c0-.546875.1464844-.9602865.4394532-1.2402344.2929687-.2799479.719401-.4199219 1.2792968-.4199219.5403646 0 .9586589.1432292 1.2548828.4296875.296224.2864583.444336.6966146.444336 1.2304688 0 .5143229-.1497396.9195963-.4492188 1.2158203-.2994791.2962239-.7161458.4443359-1.25.4443359-.546875 0-.9700521-.1448568-1.2695312-.4345703-.2994792-.2897136-.4492188-.6982422-.4492188-1.2255859Zm5.2636719-4.6679688c0-2.82552083.5973307-4.92838542 1.7919922-6.30859375 1.1946614-1.38020833 2.9833984-2.0703125 5.3662109-2.0703125.8138021 0 1.4518229.04882813 1.9140625.14648438v2.41210937c-.5794271-.13020833-1.1523437-.1953125-1.71875-.1953125-1.0351562 0-1.8798828.15625-2.5341797.46875-.6542968.3125-1.1442057.77473958-1.4697265 1.38671875-.3255209.61197917-.5175781 1.48111979-.5761719 2.60742187h.1269531c.6445313-1.10677083 1.6764323-1.66015624 3.0957031-1.66015624 1.2760417 0 2.2753907.40039062 2.9980469 1.20117187.7226563.80078125 1.0839844 1.90755208 1.0839844 3.3203125 0 1.52343745-.4296875 2.72949215-1.2890625 3.61816405-.859375.8886719-2.0507812 1.3330078-3.5742188 1.3330078-1.0546874 0-1.9742838-.2441406-2.758789-.7324218-.7845052-.4882813-1.389974-1.2011719-1.8164063-2.1386719-.4264323-.9375-.6396484-2.06705732-.6396484-3.3886719Zm5.15625 3.8476562c.6445313 0 1.1393229-.2164713 1.484375-.649414s.5175781-1.0498047.5175781-1.85058595c0-.69661458-.1611328-1.24511719-.4833984-1.64550781-.3222656-.40039063-.8089193-.60058594-1.459961-.60058594-.6119791 0-1.1344401.19856771-1.5673828.59570312-.4329427.39713542-.649414.859375-.649414 1.38671876 0 .77473962.2034505 1.42903642.6103515 1.96289062.4069011.5338542.9228516.8007812 1.5478516.8007812ZM895.3056642 221.9999999h-9.9804687v-2.0996094l3.58398438-3.62304688c1.06119791-1.08723958 1.75455729-1.84082031 2.08007812-2.26074218.32552083-.41992188.55989583-.80891927.703125-1.16699219.14322917-.35807292.21484375-.72916667.21484375-1.11328125 0-.57291667-.1578776-.99934896-.47363281-1.27929688-.31575521-.27994791-.73730469-.41992187-1.26464844-.41992187-.55338542 0-1.09049479.12695313-1.61132812.38085937-.52083334.25390626-1.06445313.61523438-1.63085938 1.08398438l-1.640625-1.94335938c.703125-.59895833 1.28580729-1.02213541 1.74804688-1.26953125.46223958-.24739583.96679687-.43782552 1.51367187-.57128906s1.15885417-.20019531 1.8359375-.20019531c.89192708 0 1.6796875.16276042 2.36328125.48828125s1.21419271.78125 1.59179688 1.3671875c.37760416.5859375.56640624 1.25651042.56640624 2.01171875 0 .65755208-.11555989 1.27441406-.34667968 1.85058594-.23111979.57617187-.58919271 1.16699218-1.07421875 1.77246094-.48502604.60546874-1.33951823 1.46809895-2.56347657 2.58789062l-1.8359375 1.7285156v.1367188h6.22070308v2.5390625Zm10.859375-11.0839844c0 .89192708-.2701822 1.65039062-.8105468 2.27539062s-1.2988282 1.0546875-2.2753906 1.2890625v.05859376c1.1523437.14322916 2.0247395.49316406 2.6171874 1.04980468.592448.55664063.8886719 1.30696615.8886719 2.25097654 0 1.3736979-.4980469 2.4430339-1.4941406 3.2080078-.9960937.764974-2.4186198 1.147461-4.2675781 1.147461-1.5494792 0-2.9231771-.2571615-4.1210938-.7714844v-2.5683594c.5533854.2799479 1.1621094.5078125 1.8261719.6835938.6640625.1757812 1.3216146.2636718 1.9726563.2636718.9960937 0 1.7317708-.1692708 2.2070312-.5078124.4752604-.3385417.7128906-.8821615.7128906-1.6308594 0-.67057294-.2734375-1.14583336-.8203125-1.42578128-.546875-.27994791-1.4192708-.41992187-2.6171875-.41992187h-1.0839844v-2.31445313h1.1035157c1.1067708 0 1.9156901-.14485677 2.4267578-.43457031.5110677-.28971354.7666015-.78613281.7666015-1.48925781 0-1.08072917-.6770833-1.62109375-2.03125-1.62109375-.46875 0-.945638.078125-1.430664.234375-.4850261.15625-1.023763.42643229-1.616211.81054687l-1.3964843-2.08007812c1.3020833-.9375 2.8548177-1.40625 4.6582031-1.40625 1.4778646 0 2.6448568.29947917 3.5009766.8984375.8561198.59895833 1.2841796 1.43229167 1.2841796 2.5Zm2.3339844 9.6875c0-.546875.1464844-.9602865.4394532-1.2402344.2929687-.2799479.719401-.4199219 1.2792968-.4199219.5403646 0 .9586589.1432292 1.2548828.4296876.296224.2864583.444336.6966145.444336 1.2304687 0 .5143229-.1497396.9195964-.4492188 1.2158203-.2994791.296224-.7161458.444336-1.25.444336-.546875 0-.9700521-.1448568-1.2695312-.4345704-.2994792-.2897135-.4492188-.6982422-.4492188-1.2255859Zm12.8222656 1.3964844h-3.0175781v-8.26171878l.0292969-1.35742187.0488281-1.484375c-.5013021.50130208-.8496093.83007813-1.0449219.98632813l-1.640625 1.31835937-1.4550781-1.81640625 4.5996094-3.66210938h2.4804687v14.27734378ZM452.3056642 196.9999999h-9.9804687v-2.0996094l3.58398438-3.62304688c1.06119791-1.08723958 1.75455729-1.84082031 2.08007812-2.26074218.32552083-.41992188.55989583-.80891927.703125-1.16699219.14322917-.35807292.21484375-.72916667.21484375-1.11328125 0-.57291667-.1578776-.99934896-.47363281-1.27929688-.31575521-.27994791-.73730469-.41992187-1.26464844-.41992187-.55338542 0-1.09049479.12695313-1.61132812.38085937-.52083334.25390626-1.06445313.61523438-1.63085938 1.08398438l-1.640625-1.94335938c.703125-.59895833 1.28580729-1.02213541 1.74804688-1.26953125.46223958-.24739583.96679687-.43782552 1.51367187-.57128906s1.15885417-.20019531 1.8359375-.20019531c.89192708 0 1.6796875.16276042 2.36328125.48828125s1.21419271.78125 1.59179688 1.3671875c.37760416.5859375.56640624 1.25651042.56640624 2.01171875 0 .65755208-.11555989 1.27441406-.34667968 1.85058594-.23111979.57617187-.58919271 1.16699218-1.07421875 1.77246094-.48502604.60546874-1.33951823 1.46809895-2.56347657 2.58789062l-1.8359375 1.7285156v.1367188h6.22070308v2.5390625Zm2.8515626 0 5.3613281-11.71875002h-7.0410157v-2.5390625h10.2441407v1.89453124l-5.4003907 12.36328128zm10.3417968-1.3964844c0-.546875.1464844-.9602865.4394532-1.2402344.2929687-.2799479.719401-.4199219 1.2792968-.4199219.5403646 0 .9586589.1432292 1.2548828.4296876.296224.2864583.444336.6966145.444336 1.2304687 0 .5143229-.1497396.9195964-.4492188 1.2158203-.2994791.296224-.7161458.444336-1.25.444336-.546875 0-.9700521-.1448568-1.2695312-.4345704-.2994792-.2897135-.4492188-.6982422-.4492188-1.2255859Zm5.2636719-4.66796875c0-2.82552083.5973307-4.92838542 1.7919922-6.30859375 1.1946614-1.38020833 2.9833984-2.0703125 5.3662109-2.0703125.8138021 0 1.4518229.04882813 1.9140625.14648438v2.41210937c-.5794271-.13020833-1.1523437-.1953125-1.71875-.1953125-1.0351562 0-1.8798828.15625-2.5341797.46875-.6542968.3125-1.1442057.77473958-1.4697265 1.38671875-.3255209.61197917-.5175781 1.48111979-.5761719 2.60742188h.1269531c.6445313-1.10677084 1.6764323-1.66015626 3.0957031-1.66015626 1.2760417 0 2.2753907.40039063 2.9980469 1.20117188.7226563.80078125 1.0839844 1.90755208 1.0839844 3.3203125 0 1.5234375-.4296875 2.7294922-1.2890625 3.6181641-.859375.8886718-2.0507812 1.3330078-3.5742188 1.3330078-1.0546874 0-1.9742838-.2441406-2.758789-.7324219-.7845052-.4882813-1.389974-1.2011719-1.8164063-2.1386719-.4264323-.9375-.6396484-2.06705727-.6396484-3.38867185Zm5.15625 3.84765625c.6445313 0 1.1393229-.2164714 1.484375-.6494141s.5175781-1.0498047.5175781-1.8505859c0-.69661458-.1611328-1.24511719-.4833984-1.64550781-.3222656-.40039063-.8089193-.60058594-1.459961-.60058594-.6119791 0-1.1344401.19856771-1.5673828.59570313-.4329427.39713541-.649414.859375-.649414 1.38671874 0 .77473958.2034505 1.42903648.6103515 1.96289068.4069011.5338541.9228516.8007812 1.5478516.8007812ZM676.3056642 226.9999999h-9.9804687v-2.0996094l3.58398438-3.62304688c1.06119791-1.08723958 1.75455729-1.84082031 2.08007812-2.26074218.32552083-.41992188.55989583-.80891927.703125-1.16699219.14322917-.35807292.21484375-.72916667.21484375-1.11328125 0-.57291667-.1578776-.99934896-.47363281-1.27929688-.31575521-.27994791-.73730469-.41992187-1.26464844-.41992187-.55338542 0-1.09049479.12695313-1.61132812.38085937-.52083334.25390626-1.06445313.61523438-1.63085938 1.08398438l-1.640625-1.94335938c.703125-.59895833 1.28580729-1.02213541 1.74804688-1.26953125.46223958-.24739583.96679687-.43782552 1.51367187-.57128906s1.15885417-.20019531 1.8359375-.20019531c.89192708 0 1.6796875.16276042 2.36328125.48828125s1.21419271.78125 1.59179688 1.3671875c.37760416.5859375.56640624 1.25651042.56640624 2.01171875 0 .65755208-.11555989 1.27441406-.34667968 1.85058594-.23111979.57617187-.58919271 1.16699218-1.07421875 1.77246094-.48502604.60546874-1.33951823 1.46809895-2.56347657 2.58789062l-1.8359375 1.7285156v.1367188h6.22070308v2.5390625Zm8.8964844 0h-3.0175781v-8.26171878l.0292969-1.35742187.0488281-1.484375c-.5013021.50130208-.8496094.83007813-1.0449219.98632813l-1.640625 1.31835937-1.4550781-1.81640625 4.5996094-3.66210938h2.4804687v14.27734378Zm4.296875-1.3964844c0-.546875.1464844-.9602865.4394532-1.2402344.2929687-.2799479.719401-.4199219 1.2792968-.4199219.5403646 0 .9586589.1432292 1.2548828.4296876.296224.2864583.444336.6966145.444336 1.2304687 0 .5143229-.1497396.9195964-.4492188 1.2158203-.2994791.296224-.7161458.444336-1.25.444336-.546875 0-.9700521-.1448568-1.2695312-.4345704-.2994792-.2897135-.4492188-.6982422-.4492188-1.2255859Zm15.3417969 1.3964844h-9.9804687v-2.0996094l3.5839843-3.62304688c1.0611979-1.08723958 1.7545573-1.84082031 2.0800781-2.26074218.3255209-.41992188.5598959-.80891927.703125-1.16699219.1432292-.35807292.2148438-.72916667.2148438-1.11328125 0-.57291667-.1578776-.99934896-.4736328-1.27929688-.3157552-.27994791-.7373047-.41992187-1.2646484-.41992187-.5533855 0-1.0904948.12695313-1.6113282.38085937-.5208333.25390626-1.0644531.61523438-1.6308594 1.08398438l-1.640625-1.94335938c.703125-.59895833 1.2858073-1.02213541 1.7480469-1.26953125.4622396-.24739583.9667969-.43782552 1.5136719-.57128906.546875-.13346354 1.1588542-.20019531 1.8359375-.20019531.8919271 0 1.6796875.16276042 2.3632813.48828125.6835937.32552083 1.2141927.78125 1.5917968 1.3671875.3776042.5859375.5664063 1.25651042.5664063 2.01171875 0 .65755208-.1155599 1.27441406-.3466797 1.85058594-.2311198.57617187-.5891927 1.16699218-1.0742188 1.77246094-.485026.60546874-1.3395182 1.46809895-2.5634765 2.58789062l-1.8359375 1.7285156v.1367188h6.2207031v2.5390625Z"/>
    <g fill-rule="nonzero">
      <g transform="translate(105.776783, 336.336000)">
        <use xlink:href="#a" fill="#333F48"/>
        <use xlink:href="#a" fill="#E05C01"/>
      </g>
      <g transform="translate(105.776783, 336.336000)">
        <use xlink:href="#b" fill="#333F48"/>
        <use xlink:href="#b" fill="#E05C01"/>
      </g>
      <g transform="translate(105.776783, 336.336000)">
        <use xlink:href="#c" fill="#333F48"/>
        <use xlink:href="#c" fill="#E05C01"/>
      </g>
      <g transform="translate(105.776783, 336.336000)">
        <use xlink:href="#d" fill="#333F48"/>
        <use xlink:href="#d" fill="#E05C01"/>
      </g>
      <g transform="translate(105.776783, 336.336000)">
        <use xlink:href="#e" fill="#333F48"/>
        <use xlink:href="#e" fill="#E05C01"/>
      </g>
      <g transform="translate(105.776783, 336.336000)">
        <use xlink:href="#f" fill="#333F48"/>
        <use xlink:href="#f" fill="#E05C01"/>
      </g>
      <g transform="translate(105.776783, 336.336000)">
        <use xlink:href="#g" fill="#333F48"/>
        <use xlink:href="#g" fill="#E05C01"/>
      </g>
      <g transform="translate(105.776783, 336.336000)">
        <use xlink:href="#h" fill="#333F48"/>
        <use xlink:href="#h" fill="#E05C01"/>
      </g>
      <g transform="translate(105.776783, 336.336000)">
        <use xlink:href="#i" fill="#333F48"/>
        <use xlink:href="#i" fill="#E05C01"/>
      </g>
      <g transform="translate(105.776783, 336.336000)">
        <use xlink:href="#j" fill="#333F48"/>
        <use xlink:href="#j" fill="#E05C01"/>
      </g>
      <g transform="translate(105.776783, 336.336000)">
        <use xlink:href="#k" fill="#333F48"/>
        <use xlink:href="#k" fill="#E05C01"/>
      </g>
      <g transform="translate(105.776783, 336.336000)">
        <use xlink:href="#l" fill="#333F48"/>
        <use xlink:href="#l" fill="#E05C01"/>
      </g>
      <g transform="translate(105.776783, 336.336000)">
        <use xlink:href="#m" fill="#333F48"/>
        <use xlink:href="#m" fill="#E05C01"/>
      </g>
      <g transform="translate(105.776783, 336.336000)">
        <use xlink:href="#n" fill="#333F48"/>
        <use xlink:href="#n" fill="#E05C01"/>
      </g>
      <g transform="translate(105.776783, 336.336000)">
        <use xlink:href="#o" fill="#333F48"/>
        <use xlink:href="#o" fill="#E05C01"/>
      </g>
      <g transform="translate(105.776783, 336.336000)">
        <use xlink:href="#p" fill="#333F48"/>
        <use xlink:href="#p" fill="#E05C01"/>
      </g>
      <g transform="translate(105.776783, 336.336000)">
        <use xlink:href="#q" fill="#333F48"/>
        <use xlink:href="#q" fill="#E05C01"/>
      </g>
      <g transform="translate(105.776783, 336.336000)">
        <use xlink:href="#r" fill="#333F48"/>
        <use xlink:href="#r" fill="#E05C01"/>
      </g>
      <g transform="translate(105.776783, 336.336000)">
        <use xlink:href="#s" fill="#333F48"/>
        <use xlink:href="#s" fill="#E05C01"/>
      </g>
      <g transform="translate(105.776783, 336.336000)">
        <use xlink:href="#t" fill="#333F48"/>
        <use xlink:href="#t" fill="#E05C01"/>
      </g>
      <g transform="translate(105.776783, 336.336000)">
        <use xlink:href="#u" fill="#333F48"/>
        <use xlink:href="#u" fill="#E05C01"/>
      </g>
    </g>
    <g fill-rule="nonzero">
      <g transform="translate(396.090783, 335.940000)">
        <use xlink:href="#v" fill="#333F48"/>
        <use xlink:href="#v" fill="#247AAC"/>
      </g>
      <g transform="translate(396.090783, 335.940000)">
        <use xlink:href="#w" fill="#333F48"/>
        <use xlink:href="#w" fill="#247AAC"/>
      </g>
      <g transform="translate(396.090783, 335.940000)">
        <use xlink:href="#x" fill="#333F48"/>
        <use xlink:href="#x" fill="#247AAC"/>
      </g>
      <g transform="translate(396.090783, 335.940000)">
        <use xlink:href="#y" fill="#333F48"/>
        <use xlink:href="#y" fill="#247AAC"/>
      </g>
      <g transform="translate(396.090783, 335.940000)">
        <use xlink:href="#z" fill="#333F48"/>
        <use xlink:href="#z" fill="#247AAC"/>
      </g>
      <g transform="translate(396.090783, 335.940000)">
        <use xlink:href="#A" fill="#333F48"/>
        <use xlink:href="#A" fill="#247AAC"/>
      </g>
      <g transform="translate(396.090783, 335.940000)">
        <use xlink:href="#B" fill="#333F48"/>
        <use xlink:href="#B" fill="#247AAC"/>
      </g>
      <g transform="translate(396.090783, 335.940000)">
        <use xlink:href="#C" fill="#333F48"/>
        <use xlink:href="#C" fill="#247AAC"/>
      </g>
      <g transform="translate(396.090783, 335.940000)">
        <use xlink:href="#D" fill="#333F48"/>
        <use xlink:href="#D" fill="#247AAC"/>
      </g>
      <g transform="translate(396.090783, 335.940000)">
        <use xlink:href="#E" fill="#333F48"/>
        <use xlink:href="#E" fill="#247AAC"/>
      </g>
      <g transform="translate(396.090783, 335.940000)">
        <use xlink:href="#F" fill="#333F48"/>
        <use xlink:href="#F" fill="#247AAC"/>
      </g>
      <g transform="translate(396.090783, 335.940000)">
        <use xlink:href="#G" fill="#333F48"/>
        <use xlink:href="#G" fill="#247AAC"/>
      </g>
      <g transform="translate(396.090783, 335.940000)">
        <use xlink:href="#H" fill="#333F48"/>
        <use xlink:href="#H" fill="#247AAC"/>
      </g>
      <g transform="translate(396.090783, 335.940000)">
        <use xlink:href="#I" fill="#333F48"/>
        <use xlink:href="#I" fill="#247AAC"/>
      </g>
      <g transform="translate(396.090783, 335.940000)">
        <use xlink:href="#J" fill="#333F48"/>
        <use xlink:href="#J" fill="#247AAC"/>
      </g>
      <g transform="translate(396.090783, 335.940000)">
        <use xlink:href="#K" fill="#333F48"/>
        <use xlink:href="#K" fill="#247AAC"/>
      </g>
      <g transform="translate(396.090783, 335.940000)">
        <use xlink:href="#L" fill="#333F48"/>
        <use xlink:href="#L" fill="#247AAC"/>
      </g>
    </g>
    <g fill-rule="nonzero">
      <g transform="translate(628.461783, 335.016000)">
        <use xlink:href="#M" fill="#333F48"/>
        <use xlink:href="#M" fill="#247AAC"/>
      </g>
      <g transform="translate(628.461783, 335.016000)">
        <use xlink:href="#N" fill="#333F48"/>
        <use xlink:href="#N" fill="#247AAC"/>
      </g>
      <g transform="translate(628.461783, 335.016000)">
        <use xlink:href="#O" fill="#333F48"/>
        <use xlink:href="#O" fill="#247AAC"/>
      </g>
      <g transform="translate(628.461783, 335.016000)">
        <use xlink:href="#P" fill="#333F48"/>
        <use xlink:href="#P" fill="#247AAC"/>
      </g>
      <g transform="translate(628.461783, 335.016000)">
        <use xlink:href="#Q" fill="#333F48"/>
        <use xlink:href="#Q" fill="#247AAC"/>
      </g>
      <g transform="translate(628.461783, 335.016000)">
        <use xlink:href="#R" fill="#333F48"/>
        <use xlink:href="#R" fill="#247AAC"/>
      </g>
      <g transform="translate(628.461783, 335.016000)">
        <use xlink:href="#S" fill="#333F48"/>
        <use xlink:href="#S" fill="#247AAC"/>
      </g>
      <g transform="translate(628.461783, 335.016000)">
        <use xlink:href="#T" fill="#333F48"/>
        <use xlink:href="#T" fill="#247AAC"/>
      </g>
      <g transform="translate(628.461783, 335.016000)">
        <use xlink:href="#U" fill="#333F48"/>
        <use xlink:href="#U" fill="#247AAC"/>
      </g>
      <g transform="translate(628.461783, 335.016000)">
        <use xlink:href="#V" fill="#333F48"/>
        <use xlink:href="#V" fill="#247AAC"/>
      </g>
      <g transform="translate(628.461783, 335.016000)">
        <use xlink:href="#W" fill="#333F48"/>
        <use xlink:href="#W" fill="#247AAC"/>
      </g>
      <g transform="translate(628.461783, 335.016000)">
        <use xlink:href="#X" fill="#333F48"/>
        <use xlink:href="#X" fill="#247AAC"/>
      </g>
      <g transform="translate(628.461783, 335.016000)">
        <use xlink:href="#Y" fill="#333F48"/>
        <use xlink:href="#Y" fill="#247AAC"/>
      </g>
      <g transform="translate(628.461783, 335.016000)">
        <use xlink:href="#Z" fill="#333F48"/>
        <use xlink:href="#Z" fill="#247AAC"/>
      </g>
      <g transform="translate(628.461783, 335.016000)">
        <use xlink:href="#aa" fill="#333F48"/>
        <use xlink:href="#aa" fill="#247AAC"/>
      </g>
      <g transform="translate(628.461783, 335.016000)">
        <use xlink:href="#ab" fill="#333F48"/>
        <use xlink:href="#ab" fill="#247AAC"/>
      </g>
    </g>
    <g fill-rule="nonzero">
      <g transform="translate(834.846567, 334.513306)">
        <use xlink:href="#ac" fill="#333F48"/>
        <use xlink:href="#ac" fill="#247AAC"/>
      </g>
      <g transform="translate(834.846567, 334.513306)">
        <use xlink:href="#ad" fill="#333F48"/>
        <use xlink:href="#ad" fill="#247AAC"/>
      </g>
      <g transform="translate(834.846567, 334.513306)">
        <use xlink:href="#ae" fill="#333F48"/>
        <use xlink:href="#ae" fill="#247AAC"/>
      </g>
      <g transform="translate(834.846567, 334.513306)">
        <use xlink:href="#af" fill="#333F48"/>
        <use xlink:href="#af" fill="#247AAC"/>
      </g>
      <g transform="translate(834.846567, 334.513306)">
        <use xlink:href="#ag" fill="#333F48"/>
        <use xlink:href="#ag" fill="#247AAC"/>
      </g>
      <g transform="translate(834.846567, 334.513306)">
        <use xlink:href="#ah" fill="#333F48"/>
        <use xlink:href="#ah" fill="#247AAC"/>
      </g>
      <g transform="translate(834.846567, 334.513306)">
        <use xlink:href="#ai" fill="#333F48"/>
        <use xlink:href="#ai" fill="#247AAC"/>
      </g>
      <g transform="translate(834.846567, 334.513306)">
        <use xlink:href="#aj" fill="#333F48"/>
        <use xlink:href="#aj" fill="#247AAC"/>
      </g>
      <g transform="translate(834.846567, 334.513306)">
        <use xlink:href="#ak" fill="#333F48"/>
        <use xlink:href="#ak" fill="#247AAC"/>
      </g>
      <g transform="translate(834.846567, 334.513306)">
        <use xlink:href="#al" fill="#333F48"/>
        <use xlink:href="#al" fill="#247AAC"/>
      </g>
      <g transform="translate(834.846567, 334.513306)">
        <use xlink:href="#am" fill="#333F48"/>
        <use xlink:href="#am" fill="#247AAC"/>
      </g>
      <g transform="translate(834.846567, 334.513306)">
        <use xlink:href="#an" fill="#333F48"/>
        <use xlink:href="#an" fill="#247AAC"/>
      </g>
      <g transform="translate(834.846567, 334.513306)">
        <use xlink:href="#ao" fill="#333F48"/>
        <use xlink:href="#ao" fill="#247AAC"/>
      </g>
      <g transform="translate(834.846567, 334.513306)">
        <use xlink:href="#ap" fill="#333F48"/>
        <use xlink:href="#ap" fill="#247AAC"/>
      </g>
      <g transform="translate(834.846567, 334.513306)">
        <use xlink:href="#aq" fill="#333F48"/>
        <use xlink:href="#aq" fill="#247AAC"/>
      </g>
      <g transform="translate(834.846567, 334.513306)">
        <use xlink:href="#ar" fill="#333F48"/>
        <use xlink:href="#ar" fill="#247AAC"/>
      </g>
      <g transform="translate(834.846567, 334.513306)">
        <use xlink:href="#as" fill="#333F48"/>
        <use xlink:href="#as" fill="#247AAC"/>
      </g>
      <g transform="translate(834.846567, 334.513306)">
        <use xlink:href="#at" fill="#333F48"/>
        <use xlink:href="#at" fill="#247AAC"/>
      </g>
      <g transform="translate(834.846567, 334.513306)">
        <use xlink:href="#au" fill="#333F48"/>
        <use xlink:href="#au" fill="#247AAC"/>
      </g>
    </g>
    <path fill="#247AAC" fill-rule="nonzero" d="M584.491625 19h3.492v-3.816h1.548l2.538 3.816h4.014l-3.006-4.392c1.566-.666 2.592-1.944 2.592-3.888v-.036c0-1.242-.378-2.196-1.116-2.934-.846-.846-2.178-1.35-4.104-1.35h-5.958V19Zm3.492-6.552V9.406h2.304c1.152 0 1.89.504 1.89 1.512v.036c0 .918-.702 1.494-1.872 1.494h-2.322Zm14.094 6.786c1.926 0 3.276-.792 4.212-1.98l-1.89-1.566c-.702.684-1.332.99-2.16.99-1.062 0-1.836-.54-2.106-1.602h6.516c.018-.234.018-.486.018-.702 0-2.862-1.548-5.328-4.896-5.328-2.88 0-4.914 2.25-4.914 5.094v.036c0 3.006 2.16 5.058 5.22 5.058Zm-1.998-5.904c.18-1.08.792-1.764 1.692-1.764.936 0 1.584.684 1.71 1.764h-3.402Zm10.854 5.886c1.278 0 2.196-.504 2.88-1.242V19h3.366v-5.598c0-1.368-.306-2.376-1.044-3.096-.774-.774-1.962-1.188-3.708-1.188-1.674 0-2.844.306-3.942.756l.702 2.394c.882-.324 1.674-.54 2.7-.54 1.314 0 1.944.576 1.944 1.602v.162c-.558-.216-1.44-.378-2.34-.378-2.286 0-3.816 1.026-3.816 3.06v.036c0 1.926 1.404 3.006 3.258 3.006Zm1.224-2.142c-.702 0-1.206-.396-1.206-1.062v-.036c0-.738.576-1.206 1.566-1.206.504 0 .99.108 1.35.252v.45c0 .972-.702 1.602-1.71 1.602Zm6.858 1.926h3.402V5.86h-3.402zm5.13-4.14h5.904v-2.988h-5.904zm11.106 4.23h3.042l2.538-7.254 2.52 7.254h3.042l4.212-12.69h-3.618l-2.196 7.29-2.43-7.326h-3.006l-2.43 7.326-2.196-7.29h-3.69zm21.51.144c3.132 0 5.4-2.322 5.4-5.094v-.036c0-2.772-2.25-5.058-5.364-5.058s-5.382 2.322-5.382 5.094v.036c0 2.772 2.25 5.058 5.346 5.058Zm.036-2.898c-1.206 0-2.07-1.008-2.07-2.196v-.036c0-1.188.792-2.178 2.034-2.178 1.206 0 2.088 1.008 2.088 2.214v.036c0 1.17-.81 2.16-2.052 2.16Zm6.804 2.664h3.42v-3.042c0-2.232 1.008-3.258 2.79-3.258h.288V9.1c-1.62-.072-2.52.792-3.078 2.124V9.262h-3.42V19Zm7.794 0h3.402V5.86h-3.402zm9.288.216c1.458 0 2.286-.702 2.952-1.512V19h3.42V5.86h-3.42v4.59c-.63-.738-1.494-1.404-2.97-1.404-2.304 0-4.302 1.926-4.302 5.094v.036c0 3.114 1.998 5.04 4.32 5.04Zm1.026-2.862c-1.098 0-1.998-.918-1.998-2.214v-.036c0-1.296.9-2.214 1.998-2.214 1.116 0 1.998.936 1.998 2.214v.036c0 1.296-.882 2.214-1.998 2.214Zm12.366 2.646h10.224v-2.97h-6.768v-1.998h6.048v-2.754h-6.048V9.352h6.678V6.4h-10.134zm12.438 0h3.42v-7.002h2.178V9.37h-2.25v-.234c0-.63.342-.918.972-.918.504 0 .882.072 1.278.198V6.004c-.522-.162-1.188-.27-2.214-.27-1.17 0-1.962.252-2.556.846-.576.576-.828 1.404-.828 2.52v.198h-1.134v2.7h1.134V19Zm7.272 0h3.42v-7.002h2.178V9.37h-2.25v-.234c0-.63.342-.918.972-.918.504 0 .882.072 1.278.198V6.004c-.522-.162-1.188-.27-2.214-.27-1.17 0-1.962.252-2.556.846-.576.576-.828 1.404-.828 2.52v.252h-1.134v2.646h1.134V19Zm11.502.234c1.926 0 3.276-.792 4.212-1.98l-1.89-1.566c-.702.684-1.332.99-2.16.99-1.062 0-1.836-.54-2.106-1.602h6.516c.018-.234.018-.486.018-.702 0-2.862-1.548-5.328-4.896-5.328-2.88 0-4.914 2.25-4.914 5.094v.036c0 3.006 2.16 5.058 5.22 5.058Zm-1.998-5.904c.18-1.08.792-1.764 1.692-1.764.936 0 1.584.684 1.71 1.764h-3.402Zm12.78 5.904c2.124 0 3.42-.9 4.32-2.232l-2.286-1.656c-.522.63-1.044 1.008-1.872 1.008-1.152 0-1.944-.954-1.944-2.214v-.036c0-1.188.81-2.178 1.926-2.178.81 0 1.332.396 1.818 1.026l2.304-1.728c-.828-1.296-2.16-2.16-4.158-2.16-3.078 0-5.202 2.322-5.202 5.076v.036c0 2.754 2.142 5.058 5.094 5.058Zm9.396-.036c.954 0 1.764-.234 2.376-.576v-2.664c-.414.198-.846.324-1.296.324-.63 0-.936-.288-.936-.972v-3.312h2.268V9.262h-2.268V6.796h-3.402v2.466h-1.152v2.736h1.152v3.978c0 2.322 1.206 3.222 3.258 3.222Zm3.906-10.818h3.546V5.86h-3.546v2.52Zm.072 10.62h3.402V9.262h-3.402V19Zm8.478.072h3.114l3.888-9.81h-3.528l-1.89 5.688-1.872-5.688h-3.6zm12.942.162c1.926 0 3.276-.792 4.212-1.98l-1.89-1.566c-.702.684-1.332.99-2.16.99-1.062 0-1.836-.54-2.106-1.602h6.516c.018-.234.018-.486.018-.702 0-2.862-1.548-5.328-4.896-5.328-2.88 0-4.914 2.25-4.914 5.094v.036c0 3.006 2.16 5.058 5.22 5.058Zm-1.998-5.904c.18-1.08.792-1.764 1.692-1.764.936 0 1.584.684 1.71 1.764h-3.402Zm8.064 5.67h3.42v-5.274c0-1.08.612-1.656 1.44-1.656s1.386.576 1.386 1.656V19h3.402v-6.372c0-2.214-1.242-3.582-3.312-3.582-1.386 0-2.286.774-2.916 1.584V9.262h-3.42V19Zm16.254.234c1.926 0 3.276-.792 4.212-1.98l-1.89-1.566c-.702.684-1.332.99-2.16.99-1.062 0-1.836-.54-2.106-1.602h6.516c.018-.234.018-.486.018-.702 0-2.862-1.548-5.328-4.896-5.328-2.88 0-4.914 2.25-4.914 5.094v.036c0 3.006 2.16 5.058 5.22 5.058Zm-1.998-5.904c.18-1.08.792-1.764 1.692-1.764.936 0 1.584.684 1.71 1.764h-3.402Zm11.934 5.886c2.376 0 3.978-1.116 3.978-3.258v-.036c0-1.89-1.53-2.556-3.456-3.096-1.008-.306-1.584-.486-1.584-.864v-.036c0-.288.27-.486.792-.486.774 0 1.872.342 2.88.918l1.17-2.16c-1.116-.72-2.592-1.134-4.014-1.134-2.25 0-3.906 1.152-3.906 3.222v.036c0 1.944 1.53 2.592 3.456 3.096 1.026.288 1.584.45 1.584.846v.036c0 .342-.288.522-.882.522-1.008 0-2.214-.378-3.33-1.116l-1.278 2.052c1.332.972 2.952 1.458 4.59 1.458Zm9.252 0c2.376 0 3.978-1.116 3.978-3.258v-.036c0-1.89-1.53-2.556-3.456-3.096-1.008-.306-1.584-.486-1.584-.864v-.036c0-.288.27-.486.792-.486.774 0 1.872.342 2.88.918l1.17-2.16c-1.116-.72-2.592-1.134-4.014-1.134-2.25 0-3.906 1.152-3.906 3.222v.036c0 1.944 1.53 2.592 3.456 3.096 1.026.288 1.584.45 1.584.846v.036c0 .342-.288.522-.882.522-1.008 0-2.214-.378-3.33-1.116l-1.278 2.052c1.332.972 2.952 1.458 4.59 1.458Zm8.79525-6.216h2.10375v-1.53h1.00125V9.83875h-1.00125v-4.77h-2.19375l-4.08375 4.86.34875 1.54125h3.825V13Zm-1.89-3.15 1.89-2.2725V9.85h-1.89Zm5.76.5625h3.69V8.545h-3.69zm7.97625 2.745c1.72125 0 3.1275-1.08 3.1275-2.835V10.3c0-1.575-1.215-2.4525-2.59875-2.4525-.675 0-1.1925.21375-1.69875.6075.05625-.63.34875-1.6875 1.485-1.6875.63 0 1.08.23625 1.56375.59625l1.02375-1.53c-.75375-.5625-1.51875-.86625-2.62125-.86625-2.46375 0-3.65625 1.8675-3.65625 4.32V9.31c0 1.47375.3825 2.3625.9675 2.9475.57375.5625 1.29375.9 2.4075.9Zm-.09-1.69875c-.68625 0-1.11375-.45-1.11375-1.02375v-.0225c0-.57375.405-1.00125 1.09125-1.00125s1.125.43875 1.125 1.0125v.0225c0 .57375-.41625 1.0125-1.1025 1.0125Z"/>
    <g fill-rule="nonzero">
      <g transform="translate(147.993750, 4.990000)">
        <use xlink:href="#av" fill="#247AAC"/>
        <use xlink:href="#av" fill="#E05C01"/>
      </g>
      <g transform="translate(147.993750, 4.990000)">
        <use xlink:href="#aw" fill="#247AAC"/>
        <use xlink:href="#aw" fill="#E05C01"/>
      </g>
      <g transform="translate(147.993750, 4.990000)">
        <use xlink:href="#ax" fill="#247AAC"/>
        <use xlink:href="#ax" fill="#E05C01"/>
      </g>
      <g transform="translate(147.993750, 4.990000)">
        <use xlink:href="#ay" fill="#247AAC"/>
        <use xlink:href="#ay" fill="#E05C01"/>
      </g>
      <g transform="translate(147.993750, 4.990000)">
        <use xlink:href="#az" fill="#247AAC"/>
        <use xlink:href="#az" fill="#E05C01"/>
      </g>
      <g transform="translate(147.993750, 4.990000)">
        <use xlink:href="#aA" fill="#247AAC"/>
        <use xlink:href="#aA" fill="#E05C01"/>
      </g>
      <g transform="translate(147.993750, 4.990000)">
        <use xlink:href="#aB" fill="#247AAC"/>
        <use xlink:href="#aB" fill="#E05C01"/>
      </g>
      <g transform="translate(147.993750, 4.990000)">
        <use xlink:href="#aC" fill="#247AAC"/>
        <use xlink:href="#aC" fill="#E05C01"/>
      </g>
      <g transform="translate(147.993750, 4.990000)">
        <use xlink:href="#aD" fill="#247AAC"/>
        <use xlink:href="#aD" fill="#E05C01"/>
      </g>
      <g transform="translate(147.993750, 4.990000)">
        <use xlink:href="#aE" fill="#247AAC"/>
        <use xlink:href="#aE" fill="#E05C01"/>
      </g>
      <g transform="translate(147.993750, 4.990000)">
        <use xlink:href="#aF" fill="#247AAC"/>
        <use xlink:href="#aF" fill="#E05C01"/>
      </g>
      <g transform="translate(147.993750, 4.990000)">
        <use xlink:href="#aG" fill="#247AAC"/>
        <use xlink:href="#aG" fill="#E05C01"/>
      </g>
      <g transform="translate(147.993750, 4.990000)">
        <use xlink:href="#aH" fill="#247AAC"/>
        <use xlink:href="#aH" fill="#E05C01"/>
      </g>
      <g transform="translate(147.993750, 4.990000)">
        <use xlink:href="#aI" fill="#247AAC"/>
        <use xlink:href="#aI" fill="#E05C01"/>
      </g>
      <g transform="translate(147.993750, 4.990000)">
        <use xlink:href="#aJ" fill="#247AAC"/>
        <use xlink:href="#aJ" fill="#E05C01"/>
      </g>
      <g transform="translate(147.993750, 4.990000)">
        <use xlink:href="#aK" fill="#247AAC"/>
        <use xlink:href="#aK" fill="#E05C01"/>
      </g>
    </g>
    <path stroke="#8A8A8A" stroke-dasharray="0 8" stroke-linecap="round" stroke-linejoin="round" stroke-width="2" d="M330.387387 316 330 42"/>
  </g>
</svg>
