<svg width="162" height="58" viewBox="0 0 162 58" xmlns="http://www.w3.org/2000/svg">
  <title>Takeda logo</title>
  <path d="M22.142989 18.102218C9.125369 27.069508.000079 39.177048.000079 39.177048l17.07269 11.5419s1.4852-3.68851 1.52786-3.79121c4.05902 8.36294 12.76561 10.60733 17.6328 10.48883h-.08058 88.65064-.09322c4.92328.13351 13.71835-2.08086 17.81608-10.43353.13825.34681 1.47414 3.59766 1.47414 3.59766l17.07427-11.41866s-9.26749-12.12097-22.37754-21.07641c-12.07989-8.24839-32.01317-18.08547-58.36915-18.08547-26.36151 0-46.1913 9.84419-58.18508 18.10206" fill="#FFF"/>
  <path fill="#E10" d="m54.477452 27.260451 1.4773-3.15526h-18.93472l-1.4773 3.15526h7.3312l-7.59032 15.44687h4.89958l7.59269-15.44687zm73.09159 12.664332s-.95511.43924-1.36828.01343c-.41317-.42818-.04503-1.2166-.04503-1.2166l4.00451-8.41192h-4.08035l-.62173 1.1218c-2.38343-2.09587-6.86352-1.01278-9.64116 1.89047-1.60054 1.67559-2.51062 3.65454-2.63149 5.37832-.45662.30415-1.21265.75998-2.19225 1.15024 0 0-.95353.43608-1.3667.00948-.41317-.42739-.04661-1.21897-.04661-1.21897l7.10684-14.61421h-4.07877l-3.72722 7.32725c-2.38027-2.09192-6.86115-1.00962-9.63879 1.89363-.56564.59171-1.03727 1.21976-1.42674 1.8565l.00158-.01343c-.02686.04977-.05609.10191-.08374.15247-.08532.15089-.17064.30178-.24648.44872-2.21674 3.83782-4.97305 4.47851-4.97305 4.47851-5.82704 1.74353-6.49459-1.11153-6.49459-1.11153 6.52856-2.41503 8.97756-5.27009 8.75715-7.45523-.22515-2.19146-3.22873-2.30206-3.22873-2.30206-4.93434-.29625-9.20192 3.15447-10.24077 6.53014-.31521 1.03095-.41238 2.08797-.21883 3.05019-1.975 1.0507-3.11102 1.21818-3.11102 1.21818-1.64399.51903-1.84623-.25596-2.04452-.73865-.19829-.47953-.93773-4.68233-.93773-4.68233l6.9283-4.52986h-4.24151l-5.2061 3.22715c-1.16999.48032-.71574-.74497-.71574-.74497l4.24704-8.60863h-4.07798l-6.89433 13.96957c-.79316.47005-2.38817 1.39909-3.53841 1.85808 0 0-.95511.43608-1.36986.00948-.41159-.42739-.04424-1.21897-.04424-1.21897l4.00372-8.40876h-4.07877l-.62489 1.1218c-2.38106-2.09192-6.86115-1.00962-9.63879 1.89363-2.77764 2.8993-3.48785 6.72922-1.58553 8.54464 1.52154 1.45913 4.25257 1.19053 6.70552-.46689 0 0 .62173-.53483.95827.09638.34997.64306 1.75459 2.11088 4.98964.83345 1.0349-.40685 1.96947-.87295 2.76895-1.32167l-.84846 1.71983h4.07956l2.04215-4.13486 1.77513-1.12891s.54115-.42818.76235.48585c0 0 .87927 3.47363 1.22134 3.92867.34128.45583 1.02147 1.47414 3.88759.65096 2.19857-.62963 4.24625-1.41015 5.3246-1.86914.95827 1.31851 2.80608 2.2199 5.82783 2.2199 4.47851 0 7.63298-2.13537 8.96887-3.24611.09401.88401.43687 1.66532 1.03569 2.23254 1.52075 1.45913 4.25099 1.19053 6.70631-.46689 0 0 .62173-.53483.95985.09638.3476.64306 1.75222 2.11088 4.98727.83345 1.48757-.58697 2.48376-1.14866 3.13235-1.58474.17538.45425.43766.86268.79 1.20238 1.52075 1.45439 4.25099 1.18342 6.70473-.47163 0 0 .62173-.53088.96064.09401.34839.64859 1.75143 2.11167 4.98648.83582 3.23821-1.27901 4.16646-2.4332 4.16646-2.4332l-.81765-1.44254c-.11692.0632-1.11153.85478-2.66388 1.4694m-70.79032-2.41582c-1.40857 1.98606-3.40253 2.98462-4.45639 2.24281-1.05386-.7505-.76235-2.96171.64464-4.95093 1.40778-1.97974 3.40253-2.98225 4.45639-2.2357 1.05228.74734.76314 2.96171-.64464 4.94382m28.91005-1.4378s.91324-3.07784 3.88917-4.31024c0 0 .84056-.28993 1.29244.079 0 0 .63753.61936-.12087 1.74827-.67861 1.00804-2.30206 2.83373-4.06613 3.44756 0 0-1.59738.69283-.99461-.96459m20.58977 1.4378c-1.41094 1.98606-3.40411 2.98462-4.45718 2.24281-1.05465-.7505-.7663-2.96171.64543-4.95093 1.4062-1.97974 3.40095-2.98225 4.45639-2.2357 1.05149.74734.76156 2.96171-.64464 4.94382m16.57341.07584c-1.40699 1.97974-3.40174 2.98146-4.45481 2.23965-1.05386-.7505-.76393-2.96171.64385-4.94382 1.40936-1.98369 3.40253-2.98304 4.45718-2.24044 1.0507.7505.76235 2.96013-.64622 4.94461"/>
  <path d="M80.328306 3.348731c-49.36631 0-75.54691 35.02149-75.54691 35.02149l10.73452 7.25457s1.29639-3.24848 4.26995-7.89763c.01185 1.16525.17064 1.98053.17064 1.98053 1.89679 14.71375 16.19658 14.36457 16.19658 14.36457h88.64985s14.48702.39342 16.38223-14.31243c0 0 .14931-.75998.16037-1.91733 2.9151 4.53381 4.19648 7.68512 4.19648 7.68512l10.71951-7.17478s-26.56612-35.00411-75.93322-35.00411m58.66619 36.18753s-1.92997 11.25829-14.37563 11.25829h-88.50607c-12.4425 0-14.19472-11.36178-14.19472-11.36178-.47637-3.01622.10823-5.07891 1.0349-6.50644 8.95939-11.79865 26.68778-27.62709 57.33504-27.62709 30.91191 0 48.78487 16.05912 57.74505 27.86014 1.0349 1.30824 1.41963 3.45862.96143 6.37688" fill="#E10"/>
</svg>
