<svg width="244" height="52" viewBox="0 0 244 52" xmlns="http://www.w3.org/2000/svg" xmlns:xlink="http://www.w3.org/1999/xlink">
  <defs>
    <path id="h2a-a" d="M0 0h18.9628v28.8488095H0z"/>
    <path id="h2a-c" d="M0 0h6.688v9.60273748H0z"/>
    <path id="h2a-e" d="M0 0h13.54663v11.43875H0z"/>
  </defs>
  <g fill="none" fill-rule="evenodd">
    <path d="M61.3571 38.9619c-.027-1.905-1.281-3.102-3.325-3.102-1.935 0-3.135 1.224-3.38 3.102h6.705Zm-6.705 2.449c.218 1.932 1.689 3.103 3.516 3.103 1.635 0 2.698-.762 3.515-1.769l2.344 1.769c-1.525 1.876-3.46 2.612-5.532 2.612-3.952 0-7.113-2.749-7.113-6.858s3.161-6.858 7.113-6.858c3.652 0 6.133 2.559 6.133 7.103v.898h-9.976Zm11.6486-7.6737h3.271v2.068h.054c.708-1.496 2.152-2.395 3.87-2.395.408 0 .79.082 1.172.191v3.157c-.546-.136-1.063-.245-1.58-.245-3.08 0-3.516 2.585-3.516 3.292v6.994h-3.271v-13.062Zm18.416 5.2247c-.027-1.905-1.281-3.102-3.325-3.102-1.935 0-3.135 1.224-3.38 3.102h6.705Zm-6.705 2.449c.218 1.932 1.689 3.103 3.516 3.103 1.635 0 2.698-.762 3.515-1.769l2.344 1.769c-1.525 1.876-3.46 2.612-5.532 2.612-3.952 0-7.113-2.749-7.113-6.858s3.161-6.858 7.113-6.858c3.652 0 6.133 2.559 6.133 7.103v.898h-9.976Z" fill="#4D4D4F"/>
    <path d="m90.74 43.3434 7.495-7.238c.9-.871 1.99-1.933 1.99-3.266 0-1.578-1.308-2.531-2.807-2.531-1.609 0-2.753 1.035-2.971 2.612l-3.434-.272c.327-3.565 2.916-5.443 6.405-5.443 3.461 0 6.241 1.769 6.241 5.47 0 2.422-1.254 4.082-2.971 5.66l-5.969 5.524h9.587l-1.218 2.94H90.74v-3.456Z" fill="#E8002A"/>
    <path d="m118.1639 39.4518-2.971-7.837-3.025 7.837h5.996Zm-4.361-11.919h2.972l8.312 19.267h-3.925l-1.799-4.409h-8.367l-1.745 4.409h-3.842l8.394-19.267Zm19.8475 9.824c-.627-.871-1.445-1.334-2.562-1.334-.872 0-1.908.408-1.908 1.388 0 2.341 7.059.436 7.059 5.524 0 3.102-2.971 4.192-5.642 4.192-2.017 0-3.761-.518-5.096-2.015l2.18-2.04c.845.924 1.717 1.604 3.107 1.604.954 0 2.181-.461 2.181-1.496 0-2.694-7.06-.572-7.06-5.551 0-2.912 2.617-4.219 5.261-4.219 1.743 0 3.597.545 4.66 1.988l-2.18 1.959Zm11.5862 0c-.627-.871-1.445-1.334-2.562-1.334-.872 0-1.908.408-1.908 1.388 0 2.341 7.059.436 7.059 5.524 0 3.102-2.971 4.192-5.642 4.192-2.017 0-3.761-.518-5.096-2.015l2.18-2.04c.845.924 1.717 1.604 3.107 1.604.954 0 2.181-.461 2.181-1.496 0-2.694-7.06-.572-7.06-5.551 0-2.912 2.617-4.219 5.261-4.219 1.743 0 3.597.545 4.66 1.988l-2.18 1.959Zm4.5774 9.4412h3.272V33.737h-3.272v13.061Zm1.609-19.457c1.198 0 2.126.844 2.126 1.961 0 1.115-.928 1.959-2.126 1.959-1.199 0-2.071-.926-2.071-1.959 0-1.034.872-1.961 2.071-1.961Zm11.7247 10.0158c-.627-.871-1.445-1.334-2.562-1.334-.872 0-1.908.408-1.908 1.388 0 2.341 7.059.436 7.059 5.524 0 3.102-2.971 4.192-5.642 4.192-2.017 0-3.761-.518-5.096-2.015l2.18-2.04c.845.924 1.717 1.604 3.107 1.604.954 0 2.181-.461 2.181-1.496 0-2.694-7.06-.572-7.06-5.551 0-2.912 2.617-4.219 5.261-4.219 1.743 0 3.597.545 4.66 1.988l-2.18 1.959Zm3.2384-.8442v-2.776h2.698v-3.781h3.27v3.781h3.598v2.776h-3.598v5.715c0 1.306.382 2.122 1.826 2.122.572 0 1.363-.108 1.772-.408v2.749c-.682.326-1.826.435-2.589.435-3.462 0-4.279-1.551-4.279-4.626v-5.987h-2.698Z" fill="#4D4D4F"/>
    <g transform="translate(6.9772 22.939)">
      <mask id="h2a-b" fill="#fff">
        <use xlink:href="#h2a-a"/>
      </mask>
      <path d="M0 18.0525V2.0265C0 .0305 1.291-.5995 2.869.6255l4.586 3.558c1.578 1.226 4.161 3.23 5.738 4.454l4.587 3.56c1.579 1.224 1.579 3.228 0 4.454l-4.587 3.559c-1.577 1.225-4.16 3.228-5.738 4.454l-4.586 3.559C1.291 29.4485 0 28.8175 0 26.8215v-8.769Z" fill="#FFCC31" mask="url(#b)"/>
    </g>
    <g transform="translate(17.694 24.55)">
      <mask id="h2a-d" fill="#fff">
        <use xlink:href="#h2a-c"/>
      </mask>
      <path d="M6.2358 3.9948c.604.444.604 1.169 0 1.613l-1.472 1.081c-.603.444-1.592 1.169-2.195 1.613l-1.472 1.081c-.603.444-1.097.194-1.097-.554V.7738c0-.749.494-.998 1.097-.554l1.472 1.081c.603.443 1.592 1.169 2.195 1.613l1.472 1.081Z" fill="#EE7622" mask="url(#d)"/>
    </g>
    <g transform="translate(.145 33.55015)">
      <mask id="h2a-f" fill="#fff">
        <use xlink:href="#h2a-e"/>
      </mask>
      <path d="M5.5928.79875c.65-1.065 1.713-1.065 2.362 0l1.472 2.415c.649 1.065 1.712 2.809 2.361 3.874l1.472 2.415c.649 1.066.159 1.936-1.09 1.936H1.3768c-1.249 0-1.739-.87-1.09-1.936l1.472-2.415c.65-1.065 1.713-2.809 2.362-3.874l1.472-2.415Z" fill="#20B1E7" mask="url(#f)"/>
    </g>
    <path fill="#E8002A" d="M33.6772 5.0618h-5.506v-3.755h15.263v3.755h-5.505v15.512h-4.252zm16.1466 9.7151c-1.254 0-4.034.109-4.034 1.905 0 .98 1.036 1.441 1.934 1.441 1.609 0 3.108-.842 3.108-2.475v-.871h-1.008Zm1.008 4.136h-.054c-.899 1.416-2.535 1.987-4.197 1.987-2.481 0-4.716-1.416-4.716-4.082 0-4.572 5.56-4.653 8.967-4.653 0-1.443-1.199-2.368-2.617-2.368-1.335 0-2.452.599-3.324 1.578l-2.181-2.231c1.499-1.415 3.68-2.123 5.833-2.123 4.77 0 6.05 2.422 6.05 6.83v6.722h-3.761v-1.66ZM57.0235.0009h4.088v12.572l4.524-5.224h5.015l-5.26 5.958 5.396 7.266h-5.151l-4.469-6.694h-.055v6.694h-4.088z"/>
    <path d="M80.1515 12.4639c.027-1.361-1.036-2.504-2.508-2.504-1.797 0-2.779 1.225-2.888 2.504h5.396Zm3.462 5.824c-1.309 1.659-3.462 2.612-5.588 2.612-4.087 0-7.358-2.721-7.358-6.94 0-4.217 3.271-6.939 7.358-6.939 3.816 0 6.214 2.722 6.214 6.939v1.28h-9.484c.327 1.551 1.499 2.558 3.079 2.558 1.337 0 2.235-.68 2.917-1.607l2.862 2.097Zm9.4923-7.6745c-2.044 0-3.271 1.361-3.271 3.346 0 1.988 1.227 3.348 3.271 3.348 2.044 0 3.271-1.36 3.271-3.348 0-1.985-1.227-3.346-3.271-3.346Zm7.032 9.959h-3.761v-1.741h-.055c-.626.952-2.208 2.069-4.061 2.069-3.925 0-6.514-2.831-6.514-6.831 0-3.674 2.29-7.048 6.052-7.048 1.689 0 3.269.462 4.196 1.742h.055V.0014h4.088v20.571Zm9.9973-5.7955c-1.254 0-4.034.109-4.034 1.905 0 .98 1.036 1.441 1.934 1.441 1.609 0 3.108-.842 3.108-2.475v-.871h-1.008Zm1.008 4.136h-.054c-.899 1.416-2.535 1.987-4.197 1.987-2.481 0-4.716-1.416-4.716-4.082 0-4.572 5.56-4.653 8.967-4.653 0-1.443-1.199-2.368-2.617-2.368-1.335 0-2.452.599-3.324 1.578l-2.181-2.231c1.499-1.415 3.68-2.123 5.833-2.123 4.77 0 6.05 2.422 6.05 6.83v6.722h-3.761v-1.66Zm23.4659-1.769c3.625 0 5.996-2.612 5.996-6.204 0-3.592-2.371-6.204-5.996-6.204-3.625 0-5.996 2.612-5.996 6.204 0 3.592 2.371 6.204 5.996 6.204m0-16.327c6.023 0 10.412 3.946 10.412 10.123 0 6.178-4.389 10.123-10.412 10.123-6.023 0-10.412-3.945-10.412-10.123 0-6.177 4.389-10.123 10.412-10.123m12.5435 6.5313h3.925v1.795h.054c.544-1.033 1.881-2.122 3.871-2.122 4.141 0 4.905 2.722 4.905 6.259v7.293h-4.088v-6.477c0-1.523-.027-3.482-2.126-3.482-2.126 0-2.453 1.66-2.453 3.373v6.586h-4.088V7.3482Zm24.1049 4.2724c-.409-.572-1.172-1.007-2.018-1.007-2.044 0-3.27 1.361-3.27 3.346 0 1.988 1.226 3.349 3.27 3.349.901 0 1.554-.463 2.018-1.008l2.698 2.83c-1.281 1.306-3.162 1.769-4.716 1.769-4.087 0-7.358-2.721-7.358-6.94 0-4.217 3.271-6.938 7.358-6.938 1.554 0 3.435.462 4.716 1.769l-2.698 2.83Zm10.2252 5.6872c2.044 0 3.271-1.361 3.271-3.347 0-1.987-1.227-3.347-3.271-3.347-2.044 0-3.271 1.36-3.271 3.347 0 1.986 1.227 3.347 3.271 3.347m0-10.287c4.088 0 7.359 2.722 7.359 6.94s-3.271 6.939-7.359 6.939-7.359-2.721-7.359-6.939 3.271-6.94 7.359-6.94m9.4154 13.5512h4.087V0h-4.087zm13.457-3.2642c2.044 0 3.271-1.361 3.271-3.347 0-1.987-1.227-3.347-3.271-3.347-2.044 0-3.271 1.36-3.271 3.347 0 1.986 1.227 3.347 3.271 3.347m0-10.287c4.088 0 7.359 2.722 7.359 6.94s-3.271 6.939-7.359 6.939-7.359-2.721-7.359-6.939 3.271-6.94 7.359-6.94m16.1376 10.1231c1.853 0 3.271-1.551 3.271-3.266 0-1.713-1.418-3.264-3.271-3.264s-3.271 1.551-3.271 3.264c0 1.715 1.418 3.266 3.271 3.266Zm7.032 2.314c0 4.979-2.535 7.645-7.658 7.645-2.345 0-4.742-.407-6.651-1.931l2.262-3.374c1.254 1.061 2.645 1.715 4.307 1.715 2.48 0 3.652-1.361 3.652-3.239v-1.279h-.055c-.927 1.279-2.507 1.741-3.734 1.741-3.925 0-6.514-2.829-6.514-6.829 0-3.511 2.29-6.885 6.052-6.885 2.315 0 3.897 1.115 4.523 2.068h.055v-1.742h3.761v12.11Zm10.3346 3.2651c-1.089 2.803-1.717 4.38-5.615 4.38-1.034 0-2.07-.163-3.051-.488l.545-3.348c.627.272 1.226.408 1.907.408 1.853 0 2.153-.789 2.725-2.231l.3-.762-5.804-13.334h4.415l3.406 8.735h.055l2.916-8.735h4.197l-5.996 15.375Z" fill="#E8002A"/>
    <path fill="#4D4D4F" d="M46.0958 46.7987v-8.49h-9.022v8.49h-3.433v-19.266h3.433v7.674h9.022v-7.674h3.434v19.266z"/>
  </g>
</svg>
