<svg width="424" height="163" viewBox="0 0 424 163" xmlns="http://www.w3.org/2000/svg" xmlns:xlink="http://www.w3.org/1999/xlink">
  <title>NINLARO logo</title>
  <defs>
    <path id="ninlaro-a" d="M0 161.80318h423.17032V0H0z"/>
  </defs>
  <g transform="translate(.21684 .58391)" fill="none" fill-rule="evenodd">
    <path d="M121.85423 127.615776h-2.24112c-5.74026-6.17294-8.7899-13.83706-8.7899-22.22386 0-8.3897 3.00556-16.00684 8.74582-22.17746h2.24112c-5.87424 5.73504-8.69942 14.46172-8.69942 22.17746 0 7.71284 2.86926 16.4865 8.7435 22.22386m161.635386-44.401958h2.24112c5.74026 6.17062 8.787 13.78776 8.787 22.17746s-3.04674 16.05324-8.787 22.22618h-2.24112c5.87134-5.73968 8.74292-14.51334 8.74292-22.22618 0-7.71342-2.87158-16.4401-8.74292-22.17746" fill="#6D6E70"/>
    <path fill="#ED7724" d="M159.729158 75.975882h-6.11842l-33.2166-38.24172v38.24172h-6.7019v-49.67816h5.68284l33.65218 38.46096v-38.46096h6.7019z"/>
    <mask id="ninlaro-b" fill="#fff">
      <use xlink:href="#ninlaro-a"/>
    </mask>
    <path fill="#ED7724" mask="url(#ninlaro-b)" d="M167.80966 75.97652h7.14038V26.29836h-7.14038zm61.189362-.000638h-6.11842l-33.2166-38.24172v38.24172h-6.7048v-49.67816h5.68574l33.65218 38.46096v-38.46096h6.7019zm15.074258-6.40958h22.4373v6.409H236.9329v-49.67874h7.14038zm42.392606-14.64268h15.4425l-8.01154-17.99334-7.43096 17.99334Zm32.2683 21.0511h-7.28248l-6.63114-14.63978h-21.12476l-6.264 14.63978h-7.28538l21.34458-49.96874h5.02744l22.21574 49.96874Zm11.287554-27.971196h4.58954c7.64672 0 9.83332-3.93472 9.75966-8.08578-.07134-4.6632-2.84142-7.50462-9.75966-7.50462h-4.58954v15.5904Zm5.38936-21.70882c10.05314 0 16.31656 5.3186 16.31656 13.91652 0 5.7536-2.9841 10.05256-8.30212 12.1626 4.5153 2.98642 7.28306 7.57596 11.0722 13.76804 2.11236 3.42548 3.35066 5.09936 6.77324 9.8339h-8.52136l-6.5569-10.19814c-6.554-10.19814-9.54332-11.36278-13.18166-11.36278h-2.98932v21.56092h-7.13748v-49.68106h12.52684Zm49.98295 43.780952c11.14644 0 19.37722-8.08578 19.37722-18.94164 0-10.92372-8.23078-18.93584-19.37722-18.93584-11.0751 0-19.30298 8.01212-19.30298 18.93584 0 10.85586 8.22788 18.94164 19.30298 18.94164m0-44.4367c16.39022 0 26.73394 11.65568 26.73394 25.49506 0 13.40438-10.05314 25.49854-26.88184 25.49854-16.2429 0-26.5147-12.0205-26.5147-25.49854 0-13.76514 10.56528-25.49506 26.6626-25.49506"/>
    <path d="M80.615824 87.471714c14.33006-20.69208 14.01512-45.25624-.70702-54.85988-14.71634-9.60886-38.26608-.62176-52.59382 20.068-14.32716 20.69208-14.00932 45.25334.70702 54.8622 14.71924 9.60654 38.26666.61944 52.59382-20.07032m-55.57502 20.64858c-16.327-10.65866-17.43422-36.81724-2.46848-58.42978 14.96574-21.61602 40.33784-30.4935 56.66542-19.83484 16.3299 10.65866 17.43422 36.81956 2.46848 58.43268-14.96574 21.61254-40.33494 30.49292-56.66542 19.83194" fill="#BCBBBB" mask="url(#ninlaro-b)"/>
    <path d="M90.503548 54.199956c-1.01906-17.53572-21.6456-30.59732-46.0723-29.17226-24.42438 1.42216-43.39618 16.79564-42.37654 34.33426 1.01674 17.53572 21.6456 30.59732 46.06998 29.17226 24.4238-1.42448 43.39792-16.79564 42.37886-34.33426m-42.21472 35.68798c-25.51188 1.4877-47.11108-13.07784-48.24266-32.53452-1.13158-19.4561 18.63482-36.43328 44.1467-37.92388 25.5113-1.4877 47.10818 13.07552 48.24208 32.53452 1.13158 19.45958-18.63424 36.43618-44.14612 37.92388" fill="#0465A2" mask="url(#ninlaro-b)"/>
    <path d="M19.143364 11.232338c12.63414-12.37082 36.84682-8.13508 54.07862 9.46386s20.96062 41.89398 8.32706 54.2677c-12.63704 12.37082-36.84972 8.13508-54.08152-9.46386-17.2318-17.60126-20.9612-41.89688-8.32416-54.2677m7.28538 55.1638c17.99914 18.38252 43.95472 22.15542 57.97216 8.43088 14.01802-13.72744 10.79032-39.75668-7.20882-58.1392-18.00146-18.38252-43.95414-22.15542-57.97216-8.42856-14.02034 13.72744-10.79264 39.75436 7.20882 58.13688" fill="#ED7724" mask="url(#ninlaro-b)"/>
    <path fill="#6D6E70" mask="url(#ninlaro-b)" d="M122.2002 93.90142h2.46848v-4.39234h-2.46848zm0 27.48446h2.46848V97.33444h-2.46848zm8.535106-.001044h-3.18652l10.53802-12.31862-10.53802-11.73282h3.18652l9.05032 9.96266 9.04974-9.96266h3.18652l-10.59254 11.73282 10.59254 12.31862h-3.18652l-9.04974-10.55136zm35.42727-12.267116c-6.01402-.26564-11.00376 2.46616-11.00376 6.64448 0 2.24692 1.95634 3.96198 4.57562 3.96198 2.21154 0 4.01128-.85782 6.42814-3.10706v-7.4994Zm.05742 12.267-.02436-1.84672s.01334-.12354-.03306-.67164c-2.56998 2.0909-4.78152 3.00034-7.25 3.00034-3.49624 0-6.22224-2.7318-6.22224-6.1045 0-6.26922 6.73438-8.46626 13.47224-8.787v-3.05254c0-3.21378-1.69592-4.92884-5.14286-4.92884-2.46616 0-4.3181.90944-7.04178 3.05196V99.4236c2.8275-1.82178 4.93464-2.57288 7.45532-2.57288 2.8768 0 7.1978 1.23308 7.1978 6.26632v15.0017l.01392 3.26598h-2.42498Zm25.342636-23.247676-15.16874 20.89218h15.16874v2.35654h-19.02342l-.25752-.80272 15.26966-20.89218h-14.29468v-2.35944h18.10064zm12.701362 1.231282c-5.24726 0-9.15414 4.23342-9.15414 10.01718 0 5.73214 3.90688 9.96266 9.15414 9.96266 5.19216 0 9.09962-4.23052 9.09962-9.96266 0-5.72924-3.90746-10.01718-9.09962-10.01718m0 22.49762c-6.73496 0-11.77632-5.3534-11.77632-12.48044 0-7.17576 5.04136-12.53496 11.77632-12.53496s11.7218 5.3592 11.7218 12.53496c0 7.12704-4.98684 12.48044-11.7218 12.48044m17.29415-20.300696h.1015c2.05784-3.3756 4.2166-4.7154 7.35382-4.7154 3.60064 0 5.96472 1.87688 7.45532 5.78666 2.31246-4.0165 4.68002-5.78666 8.02024-5.78666 4.83604 0 8.02256 3.85758 8.02256 9.74864v14.78768h-2.46848v-13.66132c0-4.8198-1.95402-8.35722-6.0146-8.35722-2.8304 0-4.68002 1.60834-6.9948 5.62542v16.39312h-2.46616v-13.71642c0-5.94268-2.8304-8.30212-6.06912-8.30212-2.8275 0-4.78094 1.4471-6.94028 5.14286v16.87568h-2.46848V97.33183h2.46848v4.23342Zm36.144556-7.66383h2.46848v-4.39234h-2.46848zm0 27.48446h2.46848V97.33444h-2.46848zm10.047224-3.161058c2.05784.80562 3.85526 1.12346 5.655 1.12346 6.0175 0 10.3356-4.44454 10.3356-10.60646 0-5.67704-3.34312-9.74864-7.97094-9.74864-2.8768 0-5.24146 1.39432-8.01966 4.6632v14.56844Zm-2.46848-31.04392h2.46848v13.58186c2.41686-2.46558 4.62782-3.91268 8.32938-3.91268 6.06622 0 10.2834 4.8227 10.2834 11.73282 0 8.0881-5.08834 13.28316-12.90558 13.28316-2.7753 0-5.03846-.53418-8.17568-1.81888v-32.86628Zm152.324066-51.67133h.52026c.60552 0 1.0933-.203 1.0933-.6902 0-.43326-.31494-.72384-1.00804-.72384-.28768 0-.49068.03016-.60552.06032v1.35372Zm-.02726 2.6796h-1.0962v-4.72642c.43326-.08758 1.03878-.145 1.81656-.145.8932 0 1.2963.145 1.6414.348.26042.2001.45994.57536.45994 1.0353 0 .52084-.40252.92336-.97788 1.0962v.05742c.46052.17284.72036.51794.86304 1.15362.145.72094.23316 1.00862.348 1.18088h-1.18378c-.1421-.17226-.23026-.60552-.37236-1.15072-.08816-.52084-.37584-.75052-.98136-.75052h-.51736v1.90124Zm-2.91276-2.4766c0 2.10424 1.55614 3.77522 3.69054 3.77522 2.07408 0 3.60354-1.67098 3.60354-3.74796 0-2.10424-1.52946-3.80306-3.6337-3.80306s-3.66038 1.69882-3.66038 3.7758Zm8.50454 0c0 2.6796-2.10424 4.78384-4.84416 4.78384-2.70976 0-4.87142-2.10424-4.87142-4.78384 0-2.62508 2.16166-4.72932 4.87142-4.72932 2.73992 0 4.84416 2.10424 4.84416 4.72932Zm-113.895064 86.182432c-4.90158 0-8.19772-3.53742-8.19772-8.80324 0-5.47462 3.33964-9.29682 8.12638-9.29682 1.392 0 2.50444.21344 4.40336.84622l.08758.03016v2.31536l-.18096-.07946c-1.84092-.81084-2.8304-1.06024-4.23864-1.06024-3.63022 0-6.06622 2.83562-6.06622 7.0557 0 4.27982 2.378 6.94028 6.21412 6.94028 1.51496 0 2.62218-.2494 4.38654-.98368l.18096-.07714v2.19762l-.08758.03016c-1.90704.66062-3.07458.88508-4.62782.88508m23.895304-3.300316c1.6385.91814 2.80314 1.24642 4.4196 1.24642 3.8715 0 6.47164-2.7753 6.47164-6.902 0-4.10698-2.81358-7.0905-6.69088-7.0905-1.46856 0-2.5781.31784-4.20036 1.20814v11.53794Zm0 11.74616h-2.01956v-26.20498h2.01956v.87696c1.77828-.88798 3.10416-1.21916 4.82212-1.21916 4.79254 0 8.26906 3.78102 8.26906 8.99522 0 5.10458-3.66328 9.10484-8.34272 9.10484-1.6443 0-2.99222-.34278-4.74846-1.21684v9.66396Zm19.91024-8.445844c-1.71796 0-3.31296-.50402-5.02222-1.5863l-.05742-.03828v-2.08278l.1885.1015c2.2417 1.18668 3.40866 1.55382 5.11328 1.55382 1.97258 0 3.35356-1.17566 3.35356-2.85244 0-1.80554-1.80554-2.55084-3.71838-3.34022-2.26316-.93148-4.82792-1.9865-4.82792-5.02744 0-2.70744 2.39192-4.82792 5.44736-4.82792 1.41926 0 2.75384.43848 4.4689 1.46856l.06264.03828v2.30434l-.20242-.13688c-1.86296-1.28238-3.02528-1.73478-4.43874-1.73478-1.90182 0-3.39184 1.21684-3.39184 2.77298 0 1.7864 1.67098 2.44934 3.60528 3.21958 2.31536.91756 4.94044 1.95924 4.94044 5.30178 0 2.7289-2.42498 4.8662-5.52102 4.8662m13.817862 0c-1.62226 0-3.11808-.551-4.20848-1.55382-1.35662-1.2412-2.04682-3.0769-2.04682-5.452v-10.75204h2.01898v10.71318c0 2.30202 1.1484 4.99264 4.38422 4.99264 2.52358 0 3.828-1.31254 5.22232-3.5757v-12.13012h2.02246v17.41508h-2.02246v-2.64944c-1.55092 2.20284-2.98352 2.99222-5.37022 2.99222m11.096908-.342084h2.01956v-26.3146h-2.01956zm6.849858-10.957824h10.35706c-.62756-3.15114-2.32638-4.74556-5.05238-4.74556-2.64422 0-4.6661 1.81366-5.30468 4.74556m5.96472 11.29956c-4.83314 0-8.3433-3.89354-8.3433-9.25854 0-5.12372 3.2306-8.84152 7.68326-8.84152 3.57802 0 7.42806 2.6332 7.42806 8.41986v.12876h-12.99606c-.20242 1.9894.38686 3.8715 1.66634 5.30758 1.2383 1.39142 2.98062 2.19182 4.78384 2.19182 2.16166 0 3.91268-.73428 6.04128-2.5317l.21112-.18096v2.40584l-.0464.04118c-1.96446 1.5805-4.00606 2.31768-6.42814 2.31768m14.764016.000348c-1.71796 0-3.31296-.50402-5.0199-1.5863l-.05974-.03828v-2.08278l.1885.1015c2.11004 1.11824 3.54032 1.55382 5.11038 1.55382 1.97548 0 3.35646-1.17566 3.35646-2.85244 0-1.80554-1.80554-2.55084-3.72128-3.34022-2.26026-.93148-4.82502-1.9865-4.82502-5.02744 0-2.70744 2.39482-4.82792 5.44736-4.82792 1.41926 0 2.75616.43848 4.4689 1.46856l.06264.03828v2.30434l-.20242-.13688c-1.86296-1.28238-3.02528-1.73478-4.43874-1.73478-1.90182 0-3.38952 1.21684-3.38952 2.77298 0 1.7864 1.66866 2.44934 3.60296 3.21958 2.31536.91756 4.94044 1.95924 4.94044 5.30178 0 2.7289-2.42498 4.8662-5.52102 4.8662m-79.969356-9.10629c-2.45224 0-4.64174.71514-5.93746 1.95344-.78938.75632-1.20582 1.67678-1.20582 2.66916 0 1.537 1.3456 2.69584 3.132 2.69584 1.537 0 2.78922-.6003 4.45498-2.14252v-5.1678c-.1479-.00522-.2958-.00812-.4437-.00812m-4.59766 9.10774c-2.55954 0-4.5675-1.97026-4.5675-4.48514 0-5.10458 5.9624-6.19788 9.60886-6.38986v-2.05494c0-2.24402-1.189-3.38372-3.53742-3.38372-1.6327 0-2.9261.56144-4.94276 2.14774l-.21054.16472v-2.20864l.05974-.03828c2.07176-1.33458 3.5815-1.85484 5.38704-1.85484 2.54562 0 5.2635 1.20814 5.2635 4.60056l.01392 13.1573h-1.9894l-.01914-1.4442c.0029-.01102.00522-.06322-.0058-.22736-1.76726 1.392-3.33442 2.01666-5.0605 2.01666m-95.457676 25.741908h5.0083v-6.0117l-5.0083 6.0117Zm6.97044 8.35432h-1.96214v-6.64448h-7.85784v-.88798l.07946-.0928 8.76786-10.50554h.97266v9.77648h2.40004v1.70984h-2.40004v6.64448Zm23.191126.000116h-1.885v-6.32374c0-1.38678-.13456-2.15354-.49358-2.82518-.41876-.75052-1.26846-1.26034-2.10134-1.26034-.20822 0-2.05204.06844-3.15114 2.41396v7.9953h-1.885v-6.14858c0-2.14832-.25752-2.69874-.5974-3.19464-.48488-.67686-1.2412-1.06604-2.07118-1.06604-1.67388 0-2.5839 1.41926-3.074 2.21154v8.19772h-1.86354v-12.0176h1.86354v1.31776c.63568-.73138 1.6791-1.54512 3.35066-1.54512 2.27418 0 3.27178 1.40302 3.7236 2.34262 1.10142-1.61356 2.32638-2.34262 3.90746-2.34262 1.49002 0 2.86288.75342 3.50146 1.91806.7424 1.35082.77546 2.21908.77546 3.90166v6.42524Zm6.228504-10.333512c-1.47146 0-2.66858 1.19712-2.66858 2.66858 0 .84158.37526 1.61936 1.0353 2.1344.6467.50692 1.4935.67976 2.31826.47676.90422-.22156 1.65242-.95062 1.90414-1.85194.23548-.83868.08236-1.67156-.42978-2.34842-.51272-.67686-1.32066-1.07938-2.15934-1.07938m.43036 10.94054c-1.58108 0-2.17558.1508-2.8362.47154-.36424.16994-.97266.56434-.97266 1.31254 0 1.50974 2.24402 1.7371 3.58092 1.7371 2.60594 0 3.5293-1.00282 3.5293-1.86354 0-1.4877-1.885-1.65764-3.30136-1.65764m-.3045 5.20318c-5.0576 0-5.3128-2.80546-5.3128-3.3698 0-.66584.26564-2.14832 2.50154-2.85824-.83288-.46284-1.0353-1.07358-1.0353-1.56136 0-1.02776.72036-1.49872 1.682-1.885-1.02486-.49648-2.36466-1.50742-2.36466-3.7236 0-1.6878.89088-3.22538 2.21966-3.81988 1.27426-.61074 2.31768-.61074 3.422-.61074h4.32912v1.6849h-2.10714c.53708.60842 1.0962 1.48248 1.0962 2.74572 0 .74762-.2523 3.25496-3.48522 4.1151-2.1373.57826-2.41686.67106-2.70976.899-.17516.1421-.27434.32596-.27434.51736 0 .7018 1.28528.82476 2.40352.8526 1.54802.05162 2.40526.10382 3.45738.67106.96744.51794 1.595 1.57528 1.595 2.69642 0 2.2823-2.02768 3.64646-5.4172 3.64646m29.99876-5.58279c-.38106 0-2.3809-.04408-4.14004-.8932l-.18908-.09048v-1.9343l.48198.23026c1.16174.55622 2.4418.85202 3.69634.85202 2.21676 0 3.70446-1.34792 3.70446-3.35124 0-.45182-.09048-1.59732-.95062-2.44934-.71514-.70992-1.80322-1.0382-3.20566-1.05502h-.33988v-1.87978l.33118-.00522c3.1291-.0522 3.96198-1.92618 3.96198-3.0247 0-1.88268-1.86818-2.89652-3.63022-2.89652-1.12056 0-2.29042.38106-3.3727 1.10432l-.52374.348v-2.0387l.13978-.10092c.48488-.3509 1.62748-1.17276 3.83322-1.17276 3.58962 0 5.4665 2.35364 5.4665 4.67944 0 1.26904-.46574 2.92378-2.54852 3.95386 1.13216.52084 2.75094 1.67446 2.75094 4.43642 0 3.87962-3.26888 5.28786-5.46592 5.28786m26.326374-.227418h-1.885v-6.32374c0-1.3891-.13456-2.15354-.49068-2.82518-.42456-.75052-1.27136-1.26034-2.10424-1.26034-.20822 0-2.05204.06844-3.15114 2.41396v7.9953h-1.885v-6.14858c0-2.14832-.25752-2.69874-.5974-3.19464-.48198-.67686-1.2412-1.06604-2.07118-1.06604-1.67446 0-2.5839 1.41926-3.07458 2.21154v8.19772h-1.86006v-12.0176h1.86006v1.31776c.63858-.73138 1.68258-1.54512 3.35124-1.54512 2.27418 0 3.27178 1.40302 3.7236 2.34262 1.10432-1.61356 2.32928-2.34262 3.90746-2.34262 1.49002 0 2.86288.75342 3.50146 1.91806.7424 1.35082.77546 2.21908.77546 3.90166v6.42524Zm6.228446-10.333512c-1.47146 0-2.66916 1.19712-2.66916 2.66858 0 .84158.37584 1.61646 1.03588 2.13208.6496.50924 1.49872.68208 2.31826.47908.90422-.22156 1.65184-.95062 1.90414-1.85194.23548-.83868.08236-1.67446-.43036-2.34842-.51214-.67686-1.32066-1.07938-2.15876-1.07938m.43036 10.94054c-1.58108 0-2.17558.1508-2.8333.47154-.36714.16994-.97556.56434-.97556 1.31254 0 1.50974 2.24402 1.7371 3.58092 1.7371 2.60594 0 3.5293-1.00282 3.5293-1.86354 0-1.4877-1.885-1.65764-3.30136-1.65764m-.3045 5.20318c-5.05818 0-5.3128-2.80546-5.3128-3.3698 0-.66584.26564-2.14832 2.50154-2.85824-.83288-.46284-1.0353-1.07358-1.0353-1.56136 0-1.03066.72036-1.49872 1.682-1.885-1.02486-.49648-2.36466-1.50742-2.36466-3.7236 0-1.6878.8932-3.22538 2.21966-3.81988 1.27368-.61074 2.31768-.61074 3.422-.61074h4.32912v1.6849h-2.10714c.53998.60552 1.0962 1.48248 1.0962 2.74572 0 .74762-.2523 3.25496-3.48522 4.1151-2.1373.57826-2.41686.67106-2.70976.899-.17574.1421-.27434.32596-.27434.51736 0 .7018 1.28528.82476 2.40294.8526 1.55092.05162 2.40584.10382 3.46086.67106.96454.51794 1.5921 1.57528 1.5921 2.69642 0 2.2823-2.02478 3.64646-5.4172 3.64646m37.106718-5.810208h-12.19044l.63568-.58348c1.96504-1.80554 3.80074-3.93472 5.6144-6.51572 1.0411-1.50162 2.2852-3.73462 2.2852-5.84466 0-2.07118-1.81946-3.35356-3.50436-3.35356-1.52888 0-2.57578.81954-3.69112 1.81134l-.56144.4959v-2.39482l.12064-.1015c1.27658-1.07648 2.73992-1.64662 4.23342-1.64662 3.32862 0 5.39226 2.70686 5.39226 5.2142 0 1.48248-.32074 3.3234-2.6361 6.757-.97788 1.4355-2.11526 2.80836-3.21378 4.13424l-.11542.13978h7.63106v1.8879Zm3.00585-.001218h2.31536v-3.1233h-2.31536z"/>
    <path fill="#ED7724" mask="url(#ninlaro-b)" d="M339.2275 158.37828h1.03588v-21.21582h-1.03588zm-62.24966 0h1.03588v-21.21582h-1.03588z"/>
    <path d="M373.814408 156.220216c-.38106 0-2.37858-.04408-4.13714-.8932l-.19198-.09048v-1.9343l.48198.23026c1.16174.55622 2.4418.85202 3.69634.85202 2.21676 0 3.70736-1.34792 3.70736-3.35124 0-.45182-.09338-1.59732-.95062-2.44934-.71572-.70992-1.82526-1.05212-3.20856-1.05502h-.33988v-1.87978l.33118-.00522c3.1291-.0522 3.96488-1.92618 3.96488-3.0247 0-1.88268-1.87166-2.89652-3.63312-2.89652-1.12346 0-2.29042.38106-3.3727 1.10432l-.52374.348v-2.0387l.13978-.10092c.48546-.3509 1.62516-1.17276 3.83612-1.17276 3.58672 0 5.4636 2.35364 5.4636 4.67944 0 1.26904-.46342 2.92378-2.54852 3.95676 1.13216.51794 2.75094 1.67156 2.75094 4.43352 0 3.87962-3.26888 5.28786-5.46592 5.28786m26.327476-.227418h-1.885v-6.32374c0-1.38678-.13456-2.15354-.49358-2.82518-.42166-.75052-1.26846-1.26034-2.10134-1.26034-.20822 0-2.05204.06844-3.15114 2.41396v7.9953h-1.885v-6.14858c0-2.14832-.25752-2.69874-.5974-3.19464-.48488-.67686-1.2412-1.06604-2.07118-1.06604-1.67446 0-2.5839 1.41926-3.07458 2.21154v8.19772h-1.86296v-12.0176h1.86296v1.31776c.63568-.73138 1.67968-1.54512 3.35124-1.54512 2.27418 0 3.2712 1.40302 3.7236 2.34262 1.10142-1.61356 2.32638-2.34262 3.90746-2.34262 1.49002 0 2.86288.75342 3.50146 1.91806.7424 1.35082.77546 2.21908.77546 3.90166v6.42524Zm6.228504-10.333512c-1.47146 0-2.66916 1.19712-2.66916 2.66858 0 .84158.37584 1.61936 1.03588 2.1344.6467.50692 1.4935.67976 2.31826.47676.90422-.22156 1.65184-.95062 1.90414-1.85194.23548-.83868.08236-1.67156-.43036-2.34842-.51214-.67686-1.32066-1.07938-2.15876-1.07938m.43036 10.94054c-1.58108 0-2.17558.1508-2.8362.47154-.36424.16994-.97266.56434-.97266 1.31254 0 1.50974 2.24402 1.7371 3.58092 1.7371 2.60594 0 3.5293-1.00282 3.5293-1.86354 0-1.4877-1.885-1.65764-3.30136-1.65764m-.3045 5.20318c-5.05818 0-5.3128-2.80546-5.3128-3.3698 0-.66584.26564-2.14832 2.50154-2.85824-.83288-.46284-1.0353-1.07358-1.0353-1.56136 0-1.02776.72036-1.49872 1.682-1.885-1.02486-.49648-2.36466-1.50742-2.36466-3.7236 0-1.6878.89088-3.22538 2.21966-3.81988 1.27368-.61074 2.31768-.61074 3.422-.61074h4.32912v1.6849h-2.10946c.5394.60842 1.09852 1.48248 1.09852 2.74572 0 .74762-.2523 3.25496-3.48522 4.1151-2.1373.57826-2.41686.67106-2.70976.899-.17574.1421-.27434.32596-.27434.51736 0 .7018 1.28528.82476 2.40294.8526 1.5486.05162 2.40584.10382 3.45796.67106.96744.51794 1.595 1.57528 1.595 2.69642 0 2.2823-2.02768 3.64646-5.4172 3.64646" fill="#6D6E70" mask="url(#ninlaro-b)"/>
  </g>
</svg>
