<?xml version="1.0" standalone="no"?>
<!DOCTYPE svg PUBLIC "-//W3C//DTD SVG 20010904//EN"
 "http://www.w3.org/TR/2001/REC-SVG-20010904/DTD/svg10.dtd">
<svg version="1.0" xmlns="http://www.w3.org/2000/svg"
 width="1227.000000pt" height="1227.000000pt" viewBox="0 0 1227.000000 1227.000000"
 preserveAspectRatio="xMidYMid meet">
<metadata>
Created by potrace 1.14, written by Peter Selinger 2001-2017
</metadata>
<g transform="translate(0.000000,1227.000000) scale(0.100000,-0.100000)"
fill="#000000" stroke="none">
<path d="M5210 12263 c-151 -14 -248 -26 -325 -39 -921 -151 -1656 -615 -2147
-1354 -107 -161 -259 -464 -323 -645 -151 -420 -221 -869 -213 -1352 l3 -202
-110 -113 c-484 -496 -798 -1032 -944 -1615 -72 -290 -85 -404 -85 -748 0
-260 3 -319 22 -440 125 -796 527 -1480 1219 -2074 l63 -54 0 -201 c0 -1057
333 -1944 967 -2573 494 -490 1146 -781 1892 -844 195 -16 579 -6 776 20 1787
240 3515 1586 4464 3478 305 608 504 1238 591 1873 12 85 35 214 51 285 76
345 92 527 86 957 -5 386 -18 508 -87 848 -198 978 -676 1907 -1406 2735 -149
170 -467 486 -624 621 -977 841 -2100 1341 -3223 1433 -116 10 -562 13 -647 4z
m480 -482 c1195 -157 2389 -790 3351 -1778 293 -301 622 -710 805 -998 l19
-30 -21 15 c-12 8 -73 54 -135 101 -646 490 -1457 832 -2329 983 -374 65 -686
90 -1120 90 -430 0 -737 -24 -1124 -89 -1016 -171 -1981 -600 -2706 -1204
l-85 -71 -7 52 c-10 67 7 399 27 554 74 561 299 1085 637 1479 404 471 978
779 1648 884 219 35 300 40 595 36 215 -2 319 -8 445 -24z m895 -2241 c223
-11 431 -30 635 -58 l125 -18 -120 -23 c-1544 -299 -3021 -1409 -3961 -2977
-59 -98 -107 -180 -108 -181 -4 -5 -151 254 -222 392 -233 450 -401 906 -493
1335 -17 80 -33 155 -36 166 -4 17 15 38 98 106 600 497 1364 873 2172 1068
647 157 1285 220 1910 190z m2120 -468 c755 -333 1356 -805 1737 -1366 96
-141 105 -163 168 -411 53 -210 91 -409 117 -615 25 -198 25 -724 0 -910 -50
-371 -142 -678 -293 -980 -156 -311 -355 -570 -600 -780 -411 -353 -892 -562
-1494 -647 -181 -25 -707 -25 -905 0 -768 100 -1506 375 -2220 829 -572 364
-1158 893 -1607 1453 l-57 70 61 115 c589 1108 1499 2074 2508 2660 494 287
1038 494 1535 585 242 44 368 54 660 52 l270 -3 120 -52z m-6406 -1072 c41
-219 155 -602 258 -863 112 -286 272 -609 429 -870 l85 -142 -95 -195 c-208
-430 -349 -818 -455 -1260 -64 -262 -95 -455 -136 -822 -4 -32 -11 -58 -16
-58 -19 0 -380 369 -459 470 -320 405 -509 816 -591 1285 -27 153 -37 505 -19
668 69 637 373 1245 894 1785 44 45 83 79 87 75 3 -5 12 -37 18 -73z m1327
-2626 c970 -1144 2324 -1929 3644 -2113 256 -36 408 -44 715 -38 351 6 502 25
850 102 44 10 -48 -41 -227 -126 -303 -142 -615 -255 -963 -349 -1339 -359
-2782 -291 -4000 186 -249 98 -728 344 -742 381 -9 23 23 334 53 515 83 511
245 1031 484 1553 l32 69 27 -30 c14 -17 71 -84 127 -150z m7155 -660 c-264
-928 -741 -1798 -1425 -2594 -191 -223 -556 -578 -806 -785 -914 -757 -1995
-1194 -2950 -1195 -1241 0 -2192 708 -2556 1905 -98 320 -161 775 -152 1096
l3 117 125 -70 c707 -395 1490 -627 2390 -710 219 -20 876 -17 1105 5 807 78
1515 273 2191 602 314 152 568 303 809 480 39 28 126 84 193 125 417 252 785
623 1029 1035 43 73 79 132 81 130 1 -1 -16 -64 -37 -141z"/>
</g>
</svg>
