<?xml version="1.0" encoding="UTF-8"?>
<svg width="146px" height="63px" viewBox="0 0 146 63" version="1.1" xmlns="http://www.w3.org/2000/svg" xmlns:xlink="http://www.w3.org/1999/xlink">
    <title>21%</title>
    <g id="Page-1" stroke="none" stroke-width="1" fill="none" fill-rule="evenodd">
        <g id="Large-Stat" transform="translate(-7.000000, -26.000000)" fill="#247AAC" fill-rule="nonzero">
            <g id="Group" transform="translate(7.235596, 18.000000)">
                <g id="21%" transform="translate(0.000000, 8.983643)">
                    <path d="M44.1738281,62.0163574 L0.65625,62.0163574 L0.65625,51.3522949 L15.2988281,36.5456543 C19.4824219,32.1706543 22.2167969,29.1833496 23.5019531,27.5837402 C24.7871094,25.9841309 25.6826172,24.6101074 26.1884766,23.4616699 C26.6943359,22.3132324 26.9472656,21.1101074 26.9472656,19.8522949 C26.9472656,18.2937012 26.4414062,17.0632324 25.4296875,16.1608887 C24.4179687,15.2585449 22.9960938,14.807373 21.1640625,14.807373 C19.2773438,14.807373 17.3701172,15.3474121 15.4423828,16.4274902 C13.5146484,17.5075684 11.3339844,19.1003418 8.90039062,21.2058105 L0,10.7878418 C3.08984375,8.02612305 5.6875,6.05053711 7.79296875,4.86108398 C9.8984375,3.67163086 12.1884766,2.76245117 14.6630859,2.13354492 C17.1376953,1.50463867 19.9199219,1.19018555 23.0097656,1.19018555 C26.8925781,1.19018555 30.3583984,1.8737793 33.4072266,3.2409668 C36.4560547,4.6081543 38.8212891,6.55639648 40.5029297,9.08569336 C42.1845703,11.6149902 43.0253906,14.4519043 43.0253906,17.5964355 C43.0253906,19.947998 42.7314453,22.1218262 42.1435547,24.1179199 C41.5556641,26.1140137 40.6464844,28.0759277 39.4160156,30.0036621 C38.1855469,31.9313965 36.5517578,33.9616699 34.5146484,36.0944824 C32.4775391,38.2272949 28.1367188,42.2741699 21.4921875,48.2351074 L21.4921875,48.6452637 L44.1738281,48.6452637 L44.1738281,62.0163574 Z" id="Path"></path>
                    <path d="M86.0097656,62.0163574 L69.5625,62.0163574 L69.5625,30.2702637 C69.5625,26.4147949 69.6445312,22.8874512 69.8085938,19.6882324 C68.796875,20.9187012 67.5390625,22.2038574 66.0351562,23.5437012 L59.2265625,29.1628418 L50.8183594,18.8269043 L71.4082031,2.05151367 L86.0097656,2.05151367 L86.0097656,62.0163574 Z" id="Path"></path>
                    <path d="M105.256348,11.817627 C105.256348,13.782959 105.418701,15.201416 105.743408,16.072998 C106.068115,16.9445801 106.555176,17.3803711 107.20459,17.3803711 C107.854004,17.3803711 108.336792,16.953125 108.652954,16.0986328 C108.969116,15.2441406 109.127197,13.8171387 109.127197,11.817627 C109.127197,9.85229492 108.969116,8.43383789 108.652954,7.56225586 C108.336792,6.69067383 107.854004,6.25488281 107.20459,6.25488281 C106.538086,6.25488281 106.046753,6.69921875 105.730591,7.58789062 C105.414429,8.4765625 105.256348,9.88647461 105.256348,11.817627 Z M116.868896,11.7150879 C116.868896,15.4748535 116.022949,18.3843994 114.331055,20.4437256 C112.63916,22.5030518 110.229492,23.5327148 107.102051,23.5327148 C104.162598,23.5327148 101.834106,22.4688721 100.116577,20.3411865 C98.3990479,18.213501 97.5402832,15.3381348 97.5402832,11.7150879 C97.5402832,7.95532227 98.3776855,5.06286621 100.05249,3.03771973 C101.727295,1.01257324 104.077148,0 107.102051,0 C110.092773,0 112.468262,1.05102539 114.228516,3.15307617 C115.98877,5.25512695 116.868896,8.10913086 116.868896,11.7150879 Z M135.556641,0.538330078 L114.766846,38.0163574 L107.15332,38.0163574 L127.943115,0.538330078 L135.556641,0.538330078 Z M133.762207,26.7370605 C133.762207,28.7023926 133.924561,30.1208496 134.249268,30.9924316 C134.573975,31.8640137 135.061035,32.2998047 135.710449,32.2998047 C136.445312,32.2998047 136.953735,31.7999268 137.235718,30.8001709 C137.5177,29.800415 137.658691,28.4460449 137.658691,26.7370605 C137.658691,25.0280762 137.5177,23.6737061 137.235718,22.6739502 C136.953735,21.6741943 136.445312,21.1743164 135.710449,21.1743164 C135.043945,21.1743164 134.552612,21.6186523 134.23645,22.5073242 C133.920288,23.3959961 133.762207,24.8059082 133.762207,26.7370605 Z M145.374756,26.6345215 C145.374756,30.3771973 144.524536,33.2781982 142.824097,35.3375244 C141.123657,37.3968506 138.718262,38.4265137 135.60791,38.4265137 C132.668457,38.4265137 130.339966,37.3626709 128.622437,35.2349854 C126.904907,33.1072998 126.046143,30.2404785 126.046143,26.6345215 C126.046143,22.8747559 126.883545,19.9822998 128.55835,17.9571533 C130.233154,15.9320068 132.583008,14.9194336 135.60791,14.9194336 C138.598633,14.9194336 140.974121,15.970459 142.734375,18.0725098 C144.494629,20.1745605 145.374756,23.0285645 145.374756,26.6345215 Z" id="Shape"></path>
                </g>
            </g>
        </g>
    </g>
</svg>