<svg width="0" height="0" class="hidden">
  <symbol xmlns="http://www.w3.org/2000/svg" fill="none" stroke="currentColor" stroke-width="2" stroke-linecap="round" stroke-linejoin="round" viewBox="0 0 24 24" id="icon-circle-x">
    <circle cx="12" cy="12" r="10"></circle>
    <line x1="15" y1="9" x2="9" y2="15"></line>
    <line x1="9" y1="9" x2="15" y2="15"></line>
  </symbol>
  <symbol xmlns="http://www.w3.org/2000/svg" fill="none" stroke="currentColor" stroke-linecap="round" stroke-linejoin="round" stroke-width="2" viewBox="0 0 24 24" id="icon-x">
    <path d="M18 6 6 18M6 6l12 12"></path>
  </symbol>
  <symbol xmlns="http://www.w3.org/2000/svg" fill="none" stroke="currentColor" stroke-linecap="round" stroke-linejoin="round" stroke-width="2" viewBox="0 0 24 24" id="icon-menu">
    <path d="M3 12h18M3 6h18M3 18h18"></path>
  </symbol>
  <symbol xmlns="http://www.w3.org/2000/svg" fill="none" stroke="currentColor" stroke-width="2" stroke-linecap="round" stroke-linejoin="round" viewBox="0 0 24 24" id="icon-arrow-up">
    <line x1="12" y1="19" x2="12" y2="5"></line>
    <polyline points="5 12 12 5 19 12"></polyline>
  </symbol>
  <symbol xmlns="http://www.w3.org/2000/svg" fill="none" stroke="currentColor" stroke-width="2" stroke-linecap="round" stroke-linejoin="round" viewBox="0 0 24 24" id="icon-circle-arrow-left">
    <circle cx="12" cy="12" r="10"></circle>
    <polyline points="12 8 8 12 12 16"></polyline>
    <line x1="16" y1="12" x2="8" y2="12"></line>
  </symbol>
  <symbol xmlns="http://www.w3.org/2000/svg" fill="none" stroke="currentColor" stroke-width="2" stroke-linecap="round" stroke-linejoin="round" viewBox="0 0 24 24" id="icon-arrow-right">
    <line x1="5" y1="12" x2="19" y2="12"></line>
    <polyline points="12 5 19 12 12 19"></polyline>
  </symbol>
  <symbol xmlns="http://www.w3.org/2000/svg" fill="none" stroke="currentColor" stroke-width="2" stroke-linecap="round" stroke-linejoin="round" viewBox="0 0 24 24" id="icon-circle-play">
    <circle cx="12" cy="12" r="10"></circle>
    <polygon points="10 8 16 12 10 16 10 8"></polygon>
  </symbol>
  <symbol xmlns="http://www.w3.org/2000/svg" fill="none" stroke="currentColor" stroke-width="2" stroke-linecap="round" stroke-linejoin="round" viewBox="0 0 24 24" id="icon-pause">
    <rect x="6" y="4" width="4" height="16"></rect>
    <rect x="14" y="4" width="4" height="16"></rect>
  </symbol>
  <symbol xmlns="http://www.w3.org/2000/svg" fill="none" stroke="currentColor" stroke-width="2" stroke-linecap="round" stroke-linejoin="round" viewBox="0 0 24 24" id="icon-circle-check">
    <path d="M22 11.08V12a10 10 0 1 1-5.93-9.14"></path>
    <polyline points="22 4 12 14.01 9 11.01"></polyline>
  </symbol>
  <symbol xmlns="http://www.w3.org/2000/svg" viewBox="0 0 24 24" id="icon-plus-solid">
    <path d="M12 0C5.376 0 0 5.376 0 12s5.376 12 12 12 12-5.376 12-12S18.624 0 12 0Z"></path>
    <path fill="#FFF" d="M13.2 6h-2.4v4.8H6v2.4h4.8V18h2.4v-4.8H18v-2.4h-4.8z"></path>
  </symbol>
  <symbol xmlns="http://www.w3.org/2000/svg" fill="none" stroke="currentColor" stroke-width="2" stroke-linecap="round" stroke-linejoin="round" viewBox="0 0 24 24" id="icon-circle-arrow-right">
    <circle cx="12" cy="12" r="10"></circle>
    <polyline points="12 16 16 12 12 8"></polyline>
    <line x1="8" y1="12" x2="16" y2="12"></line>
  </symbol>
  <symbol xmlns="http://www.w3.org/2000/svg" xmlns:xlink="http://www.w3.org/1999/xlink" viewBox="0 0 63 65" id="icon-pill-hand">
    <defs>
      <path id="pillhand-a" d="M0 0h62.9785912v20.7556319H0z"></path>
      <path id="pillhand-c" d="M0 0h17.150008v36.3359H0z"></path>
    </defs>
    <g fill-rule="evenodd">
      <path d="M51.7989018 28.2768c-.244 0-.489-.093-.675-.28l-.203-.203c-.373-.373-.373-.977 0-1.35.372-.373.977-.373 1.349 0l.204.204c.373.372.373.977 0 1.349-.186.187-.431.28-.675.28m2.9103 2.9104c-.244 0-.489-.093-.675-.28l-.204-.203c-.372-.373-.372-.978.001-1.35.373-.373.977-.373 1.35 0l.203.204c.373.372.373.977 0 1.35-.187.186-.431.279-.675.279m-3.1138 0c-.244 0-.488-.093-.675-.279-.373-.373-.373-.978 0-1.35l.203-.204c.373-.373.977-.373 1.35 0 .373.372.373.977.001 1.35l-.204.203c-.186.187-.431.28-.675.28m2.9103-2.9104c-.244 0-.489-.093-.675-.28-.373-.372-.373-.977 0-1.349l.204-.204c.372-.373.977-.373 1.349 0 .373.373.373.977 0 1.35l-.203.203c-.186.187-.431.28-.675.28m3.0019-12.5397c-.244 0-.489-.093-.675-.28-.373-.372-.373-.977 0-1.349l.651-.652c.373-.372.977-.373 1.35 0 .373.373.373.978 0 1.35l-.651.651c-.186.187-.431.28-.675.28m3.5124-3.5125c-.244 0-.489-.093-.675-.28-.373-.372-.373-.977 0-1.349l.651-.651c.373-.373.977-.373 1.35 0 .373.372.373.977 0 1.349l-.651.651c-.186.187-.431.28-.675.28m.651 3.5125c-.244 0-.489-.093-.675-.28l-.651-.651c-.373-.373-.373-.977 0-1.35.373-.373.977-.372 1.35 0l.651.652c.373.372.373.977 0 1.35-.186.186-.431.279-.675.279m-3.5124-3.5125c-.244 0-.489-.093-.675-.28l-.651-.651c-.373-.372-.373-.977 0-1.349.373-.373.977-.373 1.35 0l.651.651c.373.372.373.977 0 1.349-.186.187-.431.28-.675.28M8.56740175 8.0641c-.244 0-.488-.093-.675-.279l-.203-.204c-.373-.373-.373-.977-.001-1.35.373-.373.977-.373 1.35 0l.204.203c.373.373.373.977 0 1.35-.186.187-.431.28-.675.28m2.91030005 2.9104c-.244 0-.489-.093-.675-.28l-.204-.203c-.372-.373-.372-.978.001-1.35.373-.373.977-.373 1.35 0l.203.204c.373.372.373.977 0 1.35-.187.186-.431.279-.675.279m-3.11390005 0c-.244 0-.489-.093-.675-.28-.373-.372-.373-.977 0-1.349l.204-.204c.372-.373.977-.373 1.35 0 .372.373.372.977 0 1.35l-.204.203c-.186.187-.431.28-.675.28m2.91040005-2.9104c-.244 0-.489-.093-.675-.28-.373-.372-.373-.977 0-1.349l.204-.204c.372-.373.977-.373 1.349 0 .373.373.373.977 0 1.35l-.203.203c-.186.187-.431.28-.675.28m-9.96680005 24.003c-.244 0-.489-.093-.675-.28-.373-.372-.373-.977 0-1.349l.651-.651c.373-.373.977-.373 1.35 0 .373.372.373.977 0 1.349l-.651.651c-.186.187-.431.28-.675.28m3.5124-3.5124c-.244 0-.489-.093-.675-.28-.373-.372-.373-.977 0-1.349l.651-.652c.373-.372.977-.372 1.35 0 .373.373.373.978 0 1.35l-.651.651c-.186.187-.431.28-.675.28m.651 3.5124c-.244 0-.489-.093-.675-.28l-.651-.651c-.373-.372-.373-.977 0-1.349.373-.373.977-.373 1.35 0l.651.651c.373.372.373.977 0 1.349-.186.187-.431.28-.675.28m-3.5124-3.5124c-.244 0-.489-.093-.675-.28l-.651-.651c-.373-.372-.373-.977 0-1.35.373-.372.977-.372 1.35 0l.651.652c.373.372.373.977 0 1.349-.186.187-.431.28-.675.28"></path>
      <g transform="translate(.021311 43.575368)">
        <mask id="pillhand-b" fill="#fff">
          <use xlink:href="#pillhand-a"></use>
        </mask>
        <path d="M25.9462912 20.7556319c-.208 0-.409-.006-.604-.017-4.36-.249-7.754-1.204-11.351-3.192-4.55199999-2.516-9.21699999-4.128-13.136-4.539-.525-.055-.905-.525-.85-1.049.055-.524.524-.904 1.04900001-.85 4.168.437 9.08999999 2.13 13.85999999 4.767 3.375 1.865 6.428 2.722 10.537 2.957 3.596.207 10.238-1.876 19.211-6.022 4.446-2.054 8.987-4.20700004 12.083-6.03200004 3.628-2.138 4.264-3.244 4.32-3.713.011-.09.04-.328-.44-.71-1.101-.877-3.805-.299-5.879.341-2.959.912-6.558 2.5-10.039 4.037-1.339.591-2.724 1.202-4.051 1.766-.485.205-1.046-.021-1.252-.506-.206-.486.021-1.046.506-1.252 1.315-.558 2.693-1.166 4.026-1.755 3.531-1.558 7.182-3.17 10.247-4.115 3.76-1.159 6.185-1.162 7.631-.01 1.086.865 1.223 1.8 1.147 2.432-.346 2.867-5.677 5.788-17.499 11.25000004-8.927 4.125-15.486 6.212-19.516 6.212" mask="url(#pillhand-b)"></path>
      </g>
      <path d="M35.5240018 57.3798c-1.526 0-3.507-.711-6.146-1.658-.728-.261-1.423-.519-2.095-.769-3.178-1.182-5.923-2.203-9.81-2.62-.524-.056-.903-.526-.847-1.051.056-.524.527-.903 1.051-.847 4.125.443 6.973 1.502 10.272 2.728.666.248 1.356.505 2.074.762 2.688.965 5.227 1.876 6.175 1.426.135-.064.308-.187.443-.568.229-.648-.631-1.906-2.192-3.205-1.747-1.453-4.266-2.92-6.912-4.027-1.694-.708-3.135-1.651-4.529-2.562-1.819-1.19-3.538-2.314-5.468-2.616-2.8-.438-5.381.114-7.538.712-3.73300005 1.035-6.76900005 1.56-9.02500005 1.56h-.024c-.527-.001-.954-.429-.95300175-.956.00100175-.527.42800175-.953.95400175-.953h.024c2.083 0 4.947-.502 8.514-1.491 4.21700005-1.169 6.67400005-1.019 8.34300005-.758 2.336.365 4.221 1.599 6.218 2.904 1.322.864 2.688 1.758 4.221 2.399 2.813 1.176 5.509 2.751 7.396 4.321 1.638 1.363 3.449 3.391 2.771 5.309-.277.781-.756 1.338-1.425 1.656-.443.21-.938.304-1.492.304m2.345-8.087c-.29 0-.576-.131-.763-.38-.317-.421-.233-1.019.187-1.337.265-.199 6.558-4.896 14.141-6.41.517-.104 1.02.232 1.123.749.103.517-.232 1.02-.749 1.123-7.145 1.427-13.304 6.017-13.366 6.063-.172.129-.373.192-.573.192m-3.2587-2.6635c-.277 0-.552-.12-.741-.352-.333-.409-.271-1.01.138-1.343.203-.165 5.03-4.061 10.649-5.748.505-.151 1.038.135 1.189.64.152.505-.135 1.037-.639 1.188-5.261 1.58-9.947 5.363-9.994 5.401-.177.144-.39.214-.602.214m-3.5886-2.2335c-.266 0-.531-.111-.719-.327-.347-.397-.306-.999.09-1.346.131-.114 3.244-2.815 7.416-4.612.484-.209 1.046.015 1.254.499.209.484-.015 1.046-.499 1.254-3.886 1.675-6.885 4.271-6.915 4.297-.181.157-.404.235-.627.235"></path>
      <g transform="translate(21.956794)">
        <mask id="pillhand-d" fill="#fff">
          <use xlink:href="#pillhand-c"></use>
        </mask>
        <path d="M8.70600798 36.3359c-.041 0-.081 0-.122-.001-1.708 0-3.221-.375-4.498-1.113h-.001c-1.286-.744-2.302-1.8-3.019-3.139-.708-1.322-1.058-2.872-1.039-4.608L0 19.6889c-.00099202-.237.09200798-.464.25900798-.632.167-.167.394-.262.631-.262l15.35500002-.013h.001c.492 0 .89.398.891.889l.013 7.805c-.009 1.749-.372 3.301-1.079 4.621-.717 1.338-1.735 2.396-3.025 3.144-1.254.727-2.713 1.095-4.34000002 1.095Zm-3.729-2.657c1.004.58 2.219.874 3.612.874.003 0 .007 0 .01.001 1.351.017 2.54800002-.272 3.55300002-.854 1.014-.588 1.782-1.388 2.348-2.445.568-1.06.861-2.333.869-3.782l-.012-6.909-13.57200002.012.023 6.899v.013c-.016 1.435.263 2.698.829 3.754.565 1.056 1.331 1.853 2.34 2.437Zm-4.059-16.138c-.492 0-.891-.398-.891-.89l-.01416645-7.778c-.00883355-1.743.34716645-3.301 1.06016645-4.628.722-1.344 1.745-2.402 3.042-3.146 1.288-.739 2.795-1.105 4.479-1.09907258C10.274008.0099 11.777008.3889 13.062008 1.1259c1.298.744 2.317 1.799 3.03 3.134.702 1.316 1.058 2.863 1.058 4.598l-.013 7.78c-.001.491-.399.889-.89.889l-15.32900002.014Zm7.611-15.759c-1.343 0-2.529.29-3.527.863-1.018.584-1.789 1.383-2.359 2.443-.571 1.062-.856 2.333-.848 3.778l.012 6.892 13.55000002-.012.012-6.89c0-1.437-.286-2.701-.849-3.757-.561-1.05-1.328-1.844-2.344-2.427-1.015-.582-2.22400002-.882-3.59300002-.89h-.054Z" mask="url(#pillhand-d)"></path>
      </g>
    </g>
  </symbol>
  <symbol xmlns="http://www.w3.org/2000/svg" viewBox="0 0 30 31" id="icon-pill-round">
    <path d="M15.1096466.1165662c2.5198641 0 4.8397045.5647409 6.9600647 1.6947662 2.1198167 1.1300254 3.8846999 2.6600981 5.2946498 4.5902184 1.4099498 1.9301202 2.2953809 4.095051 2.6552062 6.4947921H.169831c.3598253-2.3997411 1.239821-4.5646719 2.6399871-6.4947921 1.400166-1.9301203 3.1650493-3.460193 5.2946497-4.5902184C10.2346118.6813071 12.5696714.1165662 15.1096466.1165662Zm14.9099207 17.39989c-.3598253 2.4399633-1.2452564 4.6250051-2.6552062 6.5551253-1.4099499 1.9295767-3.1748331 3.4596495-5.2946498 4.5896749-2.1203602 1.1300253-4.4402006 1.6953098-6.9600647 1.6953098-2.5600863 0-4.9000378-.5652845-7.0198544-1.6953098-2.1198167-1.1300254-3.8798081-2.6600982-5.2799741-4.5896749C1.409652 22.1414613.5296563 19.9564195.169831 17.5164562h29.8497363Z" fill-rule="evenodd"></path>
  </symbol>
  <symbol xmlns="http://www.w3.org/2000/svg" fill="none" stroke="currentColor" stroke-width="2" stroke-linecap="round" stroke-linejoin="round" viewBox="0 0 24 24" id="icon-circle">
    <circle cx="12" cy="12" r="10"></circle>
  </symbol>
  <symbol xmlns="http://www.w3.org/2000/svg" fill="none" stroke="currentColor" stroke-width="2" stroke-linecap="round" stroke-linejoin="round" viewBox="0 0 24 24" id="icon-arrow-left">
    <line x1="19" y1="12" x2="5" y2="12"></line>
    <polyline points="12 19 5 12 12 5"></polyline>
  </symbol>
  <symbol xmlns="http://www.w3.org/2000/svg" fill="none" stroke="currentColor" stroke-width="2" stroke-linecap="round" stroke-linejoin="round" viewBox="0 0 24 24" id="icon-chevron-down">
    <polyline points="6 9 12 15 18 9"></polyline>
  </symbol>
  <symbol xmlns="http://www.w3.org/2000/svg" fill="none" stroke="currentColor" stroke-width="2" stroke-linecap="round" stroke-linejoin="round" viewBox="0 0 24 24" id="icon-arrow-down">
    <line x1="12" y1="5" x2="12" y2="19"></line>
    <polyline points="19 12 12 19 5 12"></polyline>
  </symbol>
  <symbol xmlns="http://www.w3.org/2000/svg" viewBox="0 0 112 90" id="icon-b2t">
    <path d="M110.5 88c0 .1380712-.05596441.2630712-.14644661.3535534C110.26307119 88.4440356 110.13807119 88.5 110 88.5H2c-.1380712 0-.2630712-.0559644-.3535534-.1464466C1.5559644 88.2630712 1.5 88.1380712 1.5 88V24.9084786c0-.1015469.0307122-.1980496.0849245-.2787693.0542123-.0807198.1319246-.1456566.2259248-.1840719L57.4506796 1.707147c.1246415-.0509376.2645592-.0494514.3880906.0041225l52.36016977 22.7078808c.09139089.039635.16665589.104507.21907318.1843741Z" stroke="#EF7622" stroke-width="3" fill="#0065A2"></path>
    <path d="M31.1722791 39.99791713h4.4433594c2.0247396 0 3.4944661.28808593 4.4091797.86425781.9147135.57617187 1.3720703 1.49251302 1.3720703 2.74902343 0 .85286459-.2001953 1.55273438-.6005859 2.09960938-.4003907.546875-.9326172.87565104-1.5966797.98632813v.09765624c.9049479.20182292 1.5576172.57942709 1.9580078 1.1328125.4003906.55338542.6005859 1.2890625.6005859 2.20703128 0 1.3020833-.4703776 2.3177083-1.4111328 3.046875-.9407552.7291666-2.2184245 1.09375-3.8330078 1.09375h-5.3417969V39.99791713Zm3.0273438 5.65429687h1.7578125c.8203125 0 1.414388-.12695312 1.7822265-.38085938.3678386-.25390624.5517579-.67382812.5517579-1.25976562 0-.546875-.2001954-.9391276-.600586-1.17675781-.4003906-.23763021-1.0335286-.35644531-1.899414-.35644531h-1.5917969V45.652214Zm0 2.40234375v3.72070315h1.9726562c.8333334 0 1.4485677-.1595052 1.8457031-.4785157.3971355-.3190104.5957032-.8072916.5957032-1.4648437 0-1.18489583-.8463542-1.77734375-2.5390625-1.77734375h-1.875Zm19.1503906 6.22070315-1.0351563-3.3984375h-5.2050781l-1.0351562 3.3984375h-3.2617188l5.0390625-14.33593752h3.7011719l5.0585937 14.33593752h-3.2617187Zm-1.7578125-5.93750002c-.9570312-3.07942709-1.4957682-4.82096355-1.6162109-5.22460938-.1204427-.40364583-.2067058-.72265625-.2587891-.95703125-.2148438.83333333-.8300781 2.89388021-1.8457031 6.18164063h3.7207031Zm12.8808594-6.02539063c-1.1393229 0-2.0214844.4280599-2.6464844 1.28417969-.625.85611979-.9375 2.04915364-.9375 3.57910156 0 3.1835937 1.1946615 4.7753906 3.5839844 4.7753906 1.0026041 0 2.2167968-.250651 3.6425781-.7519531v2.5390625c-1.171875.4882813-2.4804688.7324219-3.9257813.7324219-2.0768229 0-3.6653645-.6298828-4.765625-1.8896485-1.1002604-1.2597656-1.6503906-3.06803382-1.6503906-5.42480465 0-1.484375.2701823-2.78483073.8105469-3.90136719.5403646-1.11653646 1.3167318-1.97265625 2.3291016-2.56835937 1.0123698-.59570313 2.1988932-.89355469 3.5595703-.89355469 1.3867187 0 2.7799479.33528646 4.1796875 1.00585938l-.9765625 2.4609375c-.5338542-.25390626-1.0709636-.47526042-1.6113282-.6640625-.5403645-.18880209-1.0709635-.28320313-1.5917968-.28320313ZM82.6371229 54.2752609h-3.4375l-3.7402344-6.01562502-1.2792969.91796874v5.09765628h-3.0273437V39.99791713h3.0273437v6.53320312l1.1914063-1.6796875 3.8671875-4.85351562h3.359375l-4.9804688 6.31835937zm-55.70312502 21h-3.02734376V63.5174484H20.029701v-2.5195313h10.78125v2.5195313h-3.87695312zM45.967201 68.1170578c0 2.3632812-.5859375 4.1796874-1.7578125 5.4492187-1.171875 1.2695313-2.8515625 1.9042969-5.0390625 1.9042969s-3.8671875-.6347656-5.0390625-1.9042969c-1.171875-1.2695313-1.7578125-3.0924479-1.7578125-5.46875s.5875651-4.1910807 1.7626953-5.4443359c1.1751302-1.2532552 2.8597005-1.8798828 5.0537109-1.8798828 2.1940105 0 3.8720704.6315104 5.0341797 1.8945312 1.1621094 1.2630208 1.7431641 3.0794271 1.7431641 5.4492188Zm-10.4199219 0c0 1.595052.3027344 2.7962239.9082031 3.6035156.6054688.8072916 1.5104167 1.2109375 2.7148438 1.2109375 2.4153646 0 3.6230469-1.6048177 3.6230469-4.8144531 0-3.2161459-1.2011719-4.8242188-3.6035157-4.8242188-1.204427 0-2.1126302.4052734-2.7246093 1.2158203-.6119792.8105469-.9179688 2.0133464-.9179688 3.6083985Zm24.0820313 7.1582031h-3.0273438V63.5174484h-3.8769531v-2.5195313h10.78125v2.5195313h-3.8769531zm19.0332031-7.1582031c0 2.3632812-.5859375 4.1796874-1.7578125 5.4492187-1.171875 1.2695313-2.8515625 1.9042969-5.0390625 1.9042969s-3.8671875-.6347656-5.0390625-1.9042969c-1.171875-1.2695313-1.7578125-3.0924479-1.7578125-5.46875s.5875651-4.1910807 1.7626953-5.4443359c1.1751302-1.2532552 2.8597005-1.8798828 5.053711-1.8798828 2.1940104 0 3.8720703.6315104 5.0341796 1.8945312 1.1621094 1.2630208 1.7431641 3.0794271 1.7431641 5.4492188Zm-10.4199219 0c0 1.595052.3027344 2.7962239.9082032 3.6035156.6054687.8072916 1.5104166 1.2109375 2.7148437 1.2109375 2.4153646 0 3.6230469-1.6048177 3.6230469-4.8144531 0-3.2161459-1.2011719-4.8242188-3.6035156-4.8242188-1.2044271 0-2.1126303.4052734-2.7246094 1.2158203-.6119792.8105469-.9179688 2.0133464-.9179688 3.6083985Zm16.40625-.4003907h.9960938c.9309896 0 1.6276041-.1839192 2.0898437-.5517578.4622396-.3678385.6933594-.9033203.6933594-1.6064453 0-.7096354-.1936849-1.233724-.5810547-1.5722656-.3873698-.3385417-.9944661-.5078125-1.821289-.5078125h-1.3769532v4.2382812Zm6.8359375-2.265625c0 1.5364584-.4801432 2.7115886-1.4404297 3.5253907-.9602864.813802-2.3258463 1.2207031-4.0966796 1.2207031h-1.2988282v5.078125h-3.0273437V60.9979171h4.5605469c1.7317708 0 3.0485026.3727214 3.9501953 1.1181641.9016927.7454427 1.352539 1.8570963 1.352539 3.3349609Z" fill="#FFF"></path>
    <path fill="none" stroke="#FFF" stroke-width="1.5" stroke-linecap="round" d="m30 24.5729523 27.4024352-10 25.5975648 10"></path>
  </symbol>
  <symbol xmlns="http://www.w3.org/2000/svg" fill="none" stroke="currentColor" stroke-width="2" stroke-linecap="round" stroke-linejoin="round" viewBox="0 0 24 24" id="icon-circle-pause">
    <circle cx="12" cy="12" r="10"></circle>
    <line x1="10" y1="15" x2="10" y2="9"></line>
    <line x1="14" y1="15" x2="14" y2="9"></line>
  </symbol>
  <symbol xmlns="http://www.w3.org/2000/svg" fill="none" stroke="currentColor" stroke-width="2" stroke-linecap="round" stroke-linejoin="round" viewBox="0 0 24 24" id="icon-chevron-left">
    <polyline points="15 18 9 12 15 6"></polyline>
  </symbol>
  <symbol xmlns="http://www.w3.org/2000/svg" fill="none" stroke="currentColor" stroke-width="2" stroke-linecap="round" stroke-linejoin="round" viewBox="0 0 24 24" id="icon-circle-minus">
    <circle cx="12" cy="12" r="10"></circle>
    <line x1="8" y1="12" x2="16" y2="12"></line>
  </symbol>
  <symbol xmlns="http://www.w3.org/2000/svg" fill="none" stroke="currentColor" stroke-width="2" stroke-linecap="round" stroke-linejoin="round" viewBox="0 0 24 24" id="icon-chevron-up">
    <polyline points="18 15 12 9 6 15"></polyline>
  </symbol>
  <symbol xmlns="http://www.w3.org/2000/svg" viewBox="0 0 34 34" id="icon-syringe">
    <path d="m.2892105 12.216099 2.28243 2.333767 2.2824301-2.343684 15.9802387 16.3529 2.28243 2.317239 2.0919586-2.183361 4.9942281 5.031153h3.0862845v-2.175098l-5.3945412-5.112141 1.8805028-2.338726-2.28243-2.337073-4.3760028 4.480768-4.5648601-4.675799 2.0919586-2.142042-2.2824301-2.337073-2.0935727 2.142042-9.1297202-9.349945 2.0919585-2.142042 9.1313344 9.349945 6.8472902 7.011219 2.2840442-2.337073L11.5125034 5.399911l2.28243-2.337073-2.28243-2.338725C7.168784 5.173477 9.7692046 2.509147 6.9476433 5.399911L4.6652132 3.062838 2.381169 5.399911l2.2840442 2.337073C2.0357376 10.429412 3.054276 9.384836.2892105 12.216099"></path>
  </symbol>
  <symbol xmlns="http://www.w3.org/2000/svg" fill="none" stroke="currentColor" stroke-width="2" stroke-linecap="round" stroke-linejoin="round" viewBox="0 0 24 24" id="icon-circle-plus">
    <circle cx="12" cy="12" r="10"></circle>
    <line x1="12" y1="8" x2="12" y2="16"></line>
    <line x1="8" y1="12" x2="16" y2="12"></line>
  </symbol>
  <symbol xmlns="http://www.w3.org/2000/svg" fill="none" stroke="currentColor" stroke-width="2" stroke-linecap="round" stroke-linejoin="round" viewBox="0 0 24 24" id="icon-circle-arrow-down">
    <circle cx="12" cy="12" r="10"></circle>
    <polyline points="8 12 12 16 16 12"></polyline>
    <line x1="12" y1="8" x2="12" y2="16"></line>
  </symbol>
  <symbol xmlns="http://www.w3.org/2000/svg" fill="none" stroke="currentColor" stroke-width="2" stroke-linecap="round" stroke-linejoin="round" viewBox="0 0 24 24" id="icon-play">
    <polygon points="5 3 19 12 5 21 5 3"></polygon>
  </symbol>
  <symbol xmlns="http://www.w3.org/2000/svg" fill="none" stroke="currentColor" stroke-width="2" stroke-linecap="round" stroke-linejoin="round" viewBox="0 0 24 24" id="icon-x-circle">
    <circle cx="12" cy="12" r="10"></circle>
    <line x1="15" y1="9" x2="9" y2="15"></line>
    <line x1="9" y1="9" x2="15" y2="15"></line>
  </symbol>
  <symbol xmlns="http://www.w3.org/2000/svg" fill="none" stroke="currentColor" stroke-width="2" stroke-linecap="round" stroke-linejoin="round" viewBox="0 0 24 24" id="icon-chevron-right">
    <polyline points="9 18 15 12 9 6"></polyline>
  </symbol>
  <symbol xmlns="http://www.w3.org/2000/svg" viewBox="0 0 20 45" id="icon-pill-long">
    <path d="M4.8539324 43.4740208c1.4778575.8541192 3.2207227 1.2816412 5.2295193 1.2816412 1.9626279.023084 3.6856406-.395665 5.1690383-1.2557868 1.4833977-.8601213 2.6380748-2.0605054 3.4635696-3.6016138.8254949-1.5415701 1.2437826-3.345378 1.2553247-5.4114236l-.0170823-10.061065-19.7934095.0170824.0346265 10.0439826c-.0230843 2.0545035.378121 3.8527711 1.2036158 5.3938795.8254949 1.5411085 1.9769402 2.7391841 3.4547976 3.5933035ZM.195519 20.5291416l19.758783-.0170824.0170823-10.0264385c0-2.0549652-.4099773-3.850001-1.2294702-5.3855692-.819493-1.5355682-1.9741701-2.730412-3.463108-3.5845314C13.7894065.6614007 12.0576217.228339 10.0834517.2167969 8.1092816.2052547 6.3779585.6267742 4.8885589 1.4808936c-1.4893996.8541194-2.6496169 2.0549652-3.480652 3.6020755C.5768718 6.6296178.1668944 8.4366574.1784366 10.5031647L.195519 20.5291416Z" fill-rule="evenodd"></path>
  </symbol>
  <symbol xmlns="http://www.w3.org/2000/svg" viewBox="0 0 24 25" id="icon-minus-solid">
    <path d="M12 .25c-6.624 0-12 5.376-12 12s5.376 12 12 12 12-5.376 12-12-5.376-12-12-12Z"></path>
    <path fill="#FFF" d="M10.8 11.05H6v2.4h12v-2.4h-4.8z"></path>
  </symbol>
  <symbol xmlns="http://www.w3.org/2000/svg" viewBox="0 0 6 6" id="icon-triangle-down">
    <path d="M5.85635172.41870117c0-.12931315-.04518045-.23142497-.13554137-.30633545S5.5092291 0 5.35714935 0H.4992634C.34685817 0 .2255463.03688558.13532778.11065674.04510926.1844279 0 .28597005 0 .4152832c0 .06807455.01327341.1324056.03982024.19299317.02654682.06058756.05723333.12913004.0920595.20562744l2.33343544 4.81488037c.07197139.14396159.14402416.24428304.21615829.30096436.07213413.05668131.15380885.08502197.24502414.08502197.09345297 0 .17624651-.02834066.24838065-.08502197.07213413-.05668132.14418689-.15700277.21615828-.30096436L5.72105446.81390381c.03710452-.07421875.0689302-.1416219.09547703-.20220947.02654682-.06058757.03982023-.12491862.03982023-.19299317Z"></path>
  </symbol>
  <symbol xmlns="http://www.w3.org/2000/svg" viewBox="0 0 29 59" id="icon-pill-ninlaro">
    <path d="m27.4332446 30.1673738.0219984 13.5883815c-.0146934 2.7025702-.5602836 5.0575539-1.6103038 7.0724252-1.0785873 2.0690683-2.5897064 3.6779268-4.5273299 4.8323691-1.9231611 1.1458256-4.1540843 1.7179021-6.7008141 1.6883692-2.59648579-.0012809-4.84373582-.5848369-6.75223325-1.7182243-1.93139818-1.1469872-3.43959624-2.7531779-4.51880778-4.8234438-1.05224823-2.0185417-1.57842598-4.3710924-1.55031356-7.0638234l-.04462604-13.5532782 25.68243003-.0227753ZM14.6234361 1.65029985c2.5538832.01534313 4.7894642.60334715 6.7145082 1.73772695 1.9493449 1.1490559 3.4635399 2.7545309 4.5367125 4.8208811 1.0444037 2.0109569 1.5806062 4.3592735 1.5806046 7.0549421l-.0219271 14.2170982-25.65586448.0227922-.02191143-14.2136862c-.0147373-2.711304.52222623-5.0775282 1.58224734-7.1047314 1.08718939-2.079781 2.60777086-3.6909307 4.55559564-4.8387347 1.92950853-1.1370107 4.16984458-1.71166926 6.73003473-1.69628825Z" fill="#FFF" stroke="#EF7622" stroke-width="2.7" fill-rule="evenodd"></path>
  </symbol>
  <symbol xmlns="http://www.w3.org/2000/svg" fill="none" stroke="currentColor" stroke-width="2" stroke-linecap="round" stroke-linejoin="round" viewBox="0 0 24 24" id="icon-circle-arrow-up">
    <circle cx="12" cy="12" r="10"></circle>
    <polyline points="16 12 12 8 8 12"></polyline>
    <line x1="12" y1="16" x2="12" y2="8"></line>
  </symbol>
  <symbol xmlns="http://www.w3.org/2000/svg" viewBox="0 0 24 24" fill="none" stroke="currentColor" stroke-width="2" stroke-linecap="round" stroke-linejoin="round" id="icon-download">
    <path d="M21 15v4a2 2 0 0 1-2 2H5a2 2 0 0 1-2-2v-4M7 10l5 5 5-5M12 15V3"/>
  </symbol>
  <symbol xmlns="http://www.w3.org/2000/svg" viewBox="0 0 24 24" fill="none" stroke="currentColor" stroke-width="2" stroke-linecap="round" stroke-linejoin="round" id="icon-plus">
    <line x1="12" y1="5" x2="12" y2="19"></line><line x1="5" y1="12" x2="19" y2="12"></line>
  </symbol>
  <symbol xmlns="http://www.w3.org/2000/svg" fill="none" stroke="currentColor" stroke-width="2" stroke-linecap="round" stroke-linejoin="round" id="icon-minus">
    <path d="M5 12h14"/>
  </symbol>
  <symbol xmlns="http://www.w3.org/2000/svg" fill="none" stroke="#8a8a8a" stroke-width="2" stroke-linecap="round" stroke-linejoin="round" id="icon-x">
    <path d="M18 6 6 18M6 6l12 12"/>
  </symbol>
</svg>