<?xml version="1.0" encoding="UTF-8"?>
<svg width="37px" height="75px" viewBox="0 0 37 75" version="1.1" xmlns="http://www.w3.org/2000/svg" xmlns:xlink="http://www.w3.org/1999/xlink">
    <title>icon/NINLARO</title>
    <g id="Style-Guide" stroke="none" stroke-width="1" fill="none" fill-rule="evenodd">
        <g id="Text-styles-02" transform="translate(-161.000000, -558.000000)" fill="#FFFFFF" stroke="#EF7622" stroke-width="3.429">
            <g id="Styles" transform="translate(165.000000, 164.750000)">
                <g id="Pull-Quote" transform="translate(0.000000, 345.000000)">
                    <g id="Graphic" transform="translate(0.000000, 52.000000)">
                        <path d="M30.896532,34.5025647 L30.9245074,51.7536558 C30.9066419,55.1884989 30.2137113,58.1813736 28.8793887,60.7417892 C27.5095829,63.3695059 25.5904616,65.4127562 23.1296797,66.878898 C20.6872652,68.3340965 17.8539927,69.0606336 14.619646,69.0231268 C11.3221089,69.0215001 8.46810141,68.280384 6.04430966,66.840982 C3.59143398,65.3843082 1.67602244,63.3444461 0.305423786,60.7152084 C-1.03093147,58.1516604 -1.6991772,55.163921 -1.66347443,51.7441527 L-1.66347443,51.7441527 L-1.7201495,34.5314894 L30.896532,34.5025647 Z M14.6280798,-1.71411918 C17.8715115,-1.69463342 20.7106994,-0.947868347 23.1555052,0.492794045 C25.6311732,1.95209507 27.5542009,3.99104833 28.9171301,6.61531305 C30.2435228,9.16922831 30.9245,12.1515903 30.924498,15.5750895 L30.924498,15.5750895 L30.8966506,33.6308042 L-1.68629734,33.6597503 L-1.71412486,15.6083688 C-1.73284122,12.1650128 -1.05089755,9.15990801 0.295329272,6.58535991 C1.6760598,3.94403806 3.60719826,1.89787795 6.08093573,0.4401669 C8.53141157,-1.00383666 11.3766383,-1.73365307 14.6280798,-1.71411918 Z" id="icon/NINLARO"></path>
                    </g>
                </g>
            </g>
        </g>
    </g>
</svg>